<svg width="24" height="24" viewBox="0 0 24 24" fill="none" xmlns="http://www.w3.org/2000/svg">
<g clip-path="url(#clip0_584_5085)">
<path d="M23.8126 6.02937C23.8865 5.96795 23.9419 5.88723 23.9727 5.79619C24.0034 5.70515 24.0083 5.60737 23.9868 5.51372C23.9652 5.42007 23.9181 5.33424 23.8507 5.26576C23.7833 5.19729 23.6982 5.14887 23.6049 5.12588L22.7845 4.91818C22.7099 4.8995 22.6404 4.86449 22.581 4.81568C22.5216 4.76686 22.4737 4.70545 22.4409 4.63589C22.4081 4.56634 22.3912 4.49036 22.3914 4.41347C22.3915 4.33657 22.4087 4.26066 22.4418 4.19123L22.8987 3.26697C22.9419 3.17741 22.9584 3.07733 22.9464 2.97864C22.9344 2.87995 22.8942 2.78679 22.8308 2.71024C22.7674 2.63368 22.6833 2.57694 22.5886 2.54677C22.4938 2.51659 22.3924 2.51425 22.2964 2.54002L20.2194 3.12158C20.142 3.14415 20.0604 3.14839 19.9811 3.13397C19.9018 3.11955 19.827 3.08686 19.7625 3.0385C18.8637 2.3644 17.7705 2 16.647 2C15.2698 2 13.9491 2.54706 12.9753 3.52085C12.0016 4.49463 11.4545 5.81536 11.4545 7.19249V7.56635C11.4549 7.63013 11.4319 7.69186 11.3898 7.73974C11.3476 7.78763 11.2893 7.81832 11.226 7.82597C8.30784 8.16868 5.51428 6.68363 2.50263 3.21504C2.43721 3.14289 2.35316 3.09017 2.25972 3.06269C2.16628 3.03521 2.06707 3.03402 1.973 3.05927C1.88826 3.09822 1.81557 3.15928 1.76257 3.23603C1.70958 3.31278 1.67824 3.40239 1.67184 3.49544C1.25587 5.20412 1.42405 7.00289 2.14955 8.60485C2.17101 8.64734 2.18038 8.69491 2.17663 8.74237C2.17288 8.78982 2.15616 8.83534 2.12829 8.87393C2.10042 8.91252 2.06247 8.94271 2.0186 8.96119C1.97473 8.97966 1.92662 8.98573 1.87954 8.97871L0.716418 8.75024C0.633818 8.73696 0.549232 8.74383 0.46986 8.77028C0.390489 8.79672 0.318683 8.84195 0.260554 8.90212C0.202425 8.96229 0.159696 9.03561 0.136003 9.11585C0.11231 9.19609 0.108355 9.28086 0.124474 9.36295C0.214137 10.1599 0.481898 10.9266 0.907938 11.6061C1.33398 12.2856 1.90738 12.8606 2.58571 13.2885C2.62961 13.3097 2.66663 13.3429 2.69253 13.3843C2.71843 13.4256 2.73217 13.4734 2.73217 13.5221C2.73217 13.5709 2.71843 13.6187 2.69253 13.66C2.66663 13.7013 2.62961 13.7345 2.58571 13.7558L2.03531 13.9739C1.96847 14.0007 1.90793 14.0411 1.85754 14.0925C1.80716 14.144 1.76802 14.2054 1.74263 14.2728C1.71724 14.3401 1.70614 14.4121 1.71004 14.484C1.71395 14.5559 1.73276 14.6262 1.7653 14.6904C2.06968 15.3565 2.53104 15.9387 3.10984 16.3873C3.68864 16.8359 4.3676 17.1374 5.08849 17.2659C5.13862 17.2841 5.18192 17.3173 5.21252 17.361C5.24313 17.4046 5.25954 17.4567 5.25954 17.51C5.25954 17.5633 5.24313 17.6153 5.21252 17.659C5.18192 17.7026 5.13862 17.7358 5.08849 17.754C3.67651 18.338 2.16124 18.6312 0.633338 18.616C0.495625 18.5884 0.352611 18.6167 0.235757 18.6946C0.118903 18.7725 0.0377822 18.8937 0.0102395 19.0314C-0.0173032 19.1691 0.0109887 19.3121 0.0888911 19.429C0.166794 19.5458 0.287925 19.6269 0.425639 19.6545C3.07126 20.9092 5.95168 21.5922 8.87901 21.6588C11.4539 21.698 13.983 20.9754 16.1485 19.5818C17.9298 18.3927 19.3891 16.7815 20.3966 14.8916C21.4041 13.0017 21.9283 10.8919 21.9225 8.75024V7.84674C21.9232 7.77134 21.9402 7.69697 21.9725 7.62883C22.0048 7.56068 22.0515 7.50037 22.1095 7.45212L23.8126 6.02937Z" fill="#8F8E8C"/>
</g>
<defs>
<clipPath id="clip0_584_5085">
<rect width="24" height="24" fill="white"/>
</clipPath>
</defs>
</svg>
