<svg width="24" height="24" viewBox="0 0 24 24" fill="none" xmlns="http://www.w3.org/2000/svg">
<path d="M22.0833 1H1.91667C1.67355 1 1.44039 1.09658 1.26849 1.26849C1.09658 1.44039 1 1.67355 1 1.91667L1 22.0833C1 22.3264 1.09658 22.5596 1.26849 22.7315C1.44039 22.9034 1.67355 23 1.91667 23H22.0833C22.3264 23 22.5596 22.9034 22.7315 22.7315C22.9034 22.5596 23 22.3264 23 22.0833V1.91667C23 1.67355 22.9034 1.44039 22.7315 1.26849C22.5596 1.09658 22.3264 1 22.0833 1V1ZM19.6633 6.3625L18.4167 7.49C18.3677 7.52851 18.33 7.57944 18.3074 7.63748C18.2849 7.69552 18.2783 7.75854 18.2883 7.82V16.51C18.2783 16.5715 18.2849 16.6345 18.3074 16.6925C18.33 16.7506 18.3677 16.8015 18.4167 16.84L19.6542 18.0592V18.3067H13.8333V18.0592L14.8967 16.8125C15.0158 16.6933 15.0158 16.6567 15.0158 16.4825V10.1667L12.4492 17.4083L12.1742 18.325H11.45C9.02083 13.0175 8.25083 11.1567 7.50833 9.8825V16.2992L9.01167 18.1325V18.38H4.66667V18.1325L6.13333 16.2992V8.04917L4.99667 6.6375V6.15167H9.36917L12.3208 13.2192L14.75 6.555C14.7869 6.39426 14.8803 6.25212 15.0132 6.15452C15.1462 6.05692 15.3098 6.01036 15.4742 6.02333H19.6725L19.6633 6.3625Z" fill="#8F8E8C"/>
</svg>
