<svg width="23" height="24" viewBox="0 0 23 24" fill="none" xmlns="http://www.w3.org/2000/svg">
<path fill-rule="evenodd" clip-rule="evenodd" d="M3 9.58144C3 4.83934 6.85877 1 11.6128 1C16.3668 1 20.2255 4.83934 20.2255 9.58144V21.084C20.2255 22.1449 19.3628 23 18.3047 23H4.92078C3.8627 23 3 22.1449 3 21.084V9.58144ZM11.6128 1.72163C7.25461 1.72163 3.72163 5.24059 3.72163 9.58144V21.084C3.72163 21.7436 4.25851 22.2784 4.92078 22.2784H18.3047C18.9671 22.2784 19.5039 21.7436 19.5039 21.084V9.58144C19.5039 5.24059 15.9709 1.72163 11.6128 1.72163Z" fill="#8F8D8C"/>
<path d="M18.2933 6.11759L4.08245 20.3285V21.084C4.08245 21.1645 4.09395 21.2424 4.11542 21.3162L18.6148 6.8168C18.5194 6.57744 18.412 6.34412 18.2933 6.11759Z" fill="#8F8D8C"/>
<path fill-rule="evenodd" clip-rule="evenodd" d="M4.08245 9.58144C4.08245 5.44121 7.45253 2.08245 11.6128 2.08245C13.7265 2.08245 15.6363 2.94951 17.0037 4.34558L4.08245 17.2668V9.58144Z" fill="#8F8D8C"/>
<path d="M4.92078 21.9176H18.3047C18.7692 21.9176 19.1431 21.543 19.1431 21.084V9.58144C19.1431 8.88843 19.0487 8.21732 18.8719 7.58019L4.59838 21.8537C4.69754 21.8948 4.80642 21.9176 4.92078 21.9176Z" fill="#8F8D8C"/>
</svg>
