<svg width="24" height="24" viewBox="0 0 24 24" fill="none" xmlns="http://www.w3.org/2000/svg">
<g clip-path="url(#clip0_584_5097)">
<path fill-rule="evenodd" clip-rule="evenodd" d="M21.3769 3.98149C22.4095 4.2575 23.2227 5.07073 23.4987 6.10333C24.0002 7.97497 24.0002 11.88 24.0002 11.88C24.0002 11.88 24.0002 15.785 23.4987 17.6566C23.2227 18.6892 22.4095 19.5025 21.3769 19.7785C19.5052 20.28 12.0002 20.28 12.0002 20.28C12.0002 20.28 4.4952 20.28 2.62356 19.7785C1.59096 19.5025 0.777727 18.6892 0.501713 17.6566C0.000209808 15.785 0.000209808 11.88 0.000209808 11.88C0.000209808 11.88 0.000209808 7.97497 0.501713 6.10333C0.777729 5.07073 1.59096 4.2575 2.62356 3.98149C4.4952 3.47998 12.0002 3.47998 12.0002 3.47998C12.0002 3.47998 19.5052 3.47998 21.3769 3.98149ZM15.8353 11.8801L9.60018 15.48V8.27997L15.8353 11.8801Z" fill="#8F8E8C"/>
</g>
<defs>
<clipPath id="clip0_584_5097">
<rect width="24" height="24" fill="white"/>
</clipPath>
</defs>
</svg>
