<svg width="24" height="24" viewBox="0 0 24 24" fill="none" xmlns="http://www.w3.org/2000/svg">
<path d="M12.2711 1C9.58858 0.999204 6.99378 1.95544 4.95329 3.69677C2.91279 5.4381 1.56046 7.85027 1.13948 10.4995C0.71849 13.1488 1.25647 15.8614 2.65666 18.1494C4.05686 20.4375 6.22742 22.151 8.77804 22.9818H9.05035C9.1832 22.99 9.31629 22.9699 9.44078 22.9228C9.56528 22.8757 9.67834 22.8027 9.77246 22.7086C9.86658 22.6144 9.93962 22.5014 9.98672 22.3769C10.0338 22.2524 10.0539 22.1193 10.0457 21.9864V21.7893C10.0457 21.6296 10.0457 21.4137 10.0457 20.7658C10.0365 20.7042 10.0151 20.6452 9.98288 20.592C9.95064 20.5388 9.90815 20.4925 9.85788 20.4559C9.80334 20.4118 9.7396 20.3804 9.67135 20.3642C9.6031 20.3479 9.53208 20.3472 9.46351 20.362C6.94701 20.9066 6.41179 19.3291 6.37423 19.2258C6.05911 18.3912 5.49536 17.6734 4.75916 17.1694C4.71505 17.1313 4.66795 17.0967 4.61831 17.0661C4.72743 17.0074 4.85224 16.9844 4.97513 17.0004C5.21113 17.0332 5.43462 17.1266 5.62385 17.2714C5.81308 17.4162 5.96161 17.6075 6.05497 17.8267C6.41822 18.4592 7.01263 18.9261 7.71314 19.1293C8.41366 19.3324 9.16566 19.256 9.81093 18.9159C9.88018 18.8857 9.94109 18.8391 9.9885 18.7803C10.0359 18.7214 10.0684 18.652 10.0832 18.5779C10.1192 18.1436 10.3051 17.7353 10.6091 17.423C10.6766 17.363 10.7253 17.2849 10.7496 17.198C10.7738 17.111 10.7725 17.0189 10.7457 16.9327C10.719 16.8465 10.6679 16.7699 10.5987 16.7119C10.5295 16.654 10.4451 16.6172 10.3555 16.606C8.13014 16.3525 5.85778 15.5731 5.85778 11.7327C5.83902 10.7682 6.19206 9.83351 6.84372 9.12227C6.90374 9.05598 6.94358 8.97393 6.95855 8.88576C6.97352 8.7976 6.963 8.70699 6.92823 8.62461C6.66727 7.89551 6.67059 7.09793 6.93762 6.37103C7.80509 6.5248 8.61929 6.89636 9.30388 7.45087C9.36044 7.49079 9.42527 7.51743 9.49355 7.52881C9.56184 7.54019 9.63181 7.53602 9.69825 7.5166C10.537 7.28906 11.402 7.17226 12.2711 7.16917C13.1434 7.1699 14.0118 7.28674 14.8533 7.5166C14.9184 7.53455 14.9866 7.53797 15.0531 7.52661C15.1197 7.51525 15.1829 7.48939 15.2383 7.45087C15.924 6.8981 16.7377 6.52676 17.6046 6.37103C17.8602 7.09403 17.8602 7.88282 17.6046 8.60583C17.5698 8.68821 17.5593 8.77882 17.5742 8.86698C17.5892 8.95515 17.629 9.0372 17.6891 9.10349C18.334 9.80762 18.6865 10.7309 18.675 11.6857C18.675 15.5262 16.3933 16.2962 14.1585 16.5497C14.0668 16.5592 13.98 16.5955 13.9088 16.6541C13.8376 16.7126 13.7853 16.7908 13.7582 16.8789C13.7312 16.967 13.7307 17.0612 13.7568 17.1495C13.7829 17.2379 13.8344 17.3167 13.9049 17.376C14.1129 17.5907 14.2719 17.8479 14.3707 18.13C14.4696 18.4121 14.5061 18.7123 14.4777 19.0098V21.9958C14.4731 22.1426 14.501 22.2886 14.5594 22.4234C14.6179 22.5581 14.7054 22.6783 14.8158 22.7752C14.9563 22.8804 15.1195 22.9513 15.2923 22.9823C15.4651 23.0133 15.6428 23.0035 15.8111 22.9536C18.3446 22.106 20.4945 20.3859 21.8773 18.1001C23.2601 15.8143 23.7857 13.1115 23.3604 10.4741C22.9351 7.83663 21.5866 5.43608 19.5554 3.70077C17.5242 1.96546 14.9426 1.00827 12.2711 1Z" fill="#8F8E8C"/>
</svg>
