<svg xmlns="http://www.w3.org/2000/svg" width="24" height="20" fill="none"><path fill="#FFBF3D" d="M21.695 7.218a1.283 1.283 0 0 0-.471-.604 1.3 1.3 0 0 0-.735-.23h-5.226a.432.432 0 0 1-.405-.284L12.983.83a1.277 1.277 0 0 0-.472-.602 1.295 1.295 0 0 0-1.94.601L8.695 6.1a.426.426 0 0 1-.404.285H3.064a1.3 1.3 0 0 0-.74.23 1.266 1.266 0 0 0-.087 2.025l4.45 3.66a.425.425 0 0 1 .133.462L4.95 18.32a1.266 1.266 0 0 0 .464 1.436 1.296 1.296 0 0 0 1.52-.003l4.589-3.335a.431.431 0 0 1 .507 0l4.587 3.334a1.295 1.295 0 0 0 1.99-.639 1.266 1.266 0 0 0-.005-.793l-1.87-5.561a.422.422 0 0 1 .133-.462l4.459-3.665a1.275 1.275 0 0 0 .371-1.413Z"/></svg>