<svg width="24" height="24" viewBox="0 0 24 24" fill="none" xmlns="http://www.w3.org/2000/svg">
<path d="M12 6.375C12.6213 6.375 13.125 6.87868 13.125 7.5V12.375C13.125 12.9963 12.6213 13.5 12 13.5C11.3787 13.5 10.875 12.9963 10.875 12.375V7.5C10.875 6.87868 11.3787 6.375 12 6.375Z" fill="white"/>
<path d="M13.5 16.125C13.5 16.9534 12.8284 17.625 12 17.625C11.1716 17.625 10.5 16.9534 10.5 16.125C10.5 15.2966 11.1716 14.625 12 14.625C12.8284 14.625 13.5 15.2966 13.5 16.125Z" fill="white"/>
<path fill-rule="evenodd" clip-rule="evenodd" d="M1.875 12C1.875 6.40812 6.40812 1.875 12 1.875C17.5919 1.875 22.125 6.40812 22.125 12C22.125 17.5919 17.5919 22.125 12 22.125C6.40812 22.125 1.875 17.5919 1.875 12ZM12 4.125C7.65076 4.125 4.125 7.65076 4.125 12C4.125 16.3492 7.65076 19.875 12 19.875C16.3492 19.875 19.875 16.3492 19.875 12C19.875 7.65076 16.3492 4.125 12 4.125Z" fill="white"/>
</svg>
