<svg width="24" height="24" viewBox="0 0 24 24" fill="none" xmlns="http://www.w3.org/2000/svg">
<g clip-path="url(#clip0_334_3303)">
<path d="M21 3.5H3C2.20435 3.5 1.44129 3.81607 0.87868 4.37868C0.31607 4.94129 0 5.70435 0 6.5L0 17.5C0 18.2956 0.31607 19.0587 0.87868 19.6213C1.44129 20.1839 2.20435 20.5 3 20.5H21C21.7956 20.5 22.5587 20.1839 23.1213 19.6213C23.6839 19.0587 24 18.2956 24 17.5V6.5C24 5.70435 23.6839 4.94129 23.1213 4.37868C22.5587 3.81607 21.7956 3.5 21 3.5ZM3 5.5H21C21.2652 5.5 21.5196 5.60536 21.7071 5.79289C21.8946 5.98043 22 6.23478 22 6.5V7.5C22 7.63261 21.9473 7.75979 21.8536 7.85355C21.7598 7.94732 21.6326 8 21.5 8H2.5C2.36739 8 2.24021 7.94732 2.14645 7.85355C2.05268 7.75979 2 7.63261 2 7.5V6.5C2 6.23478 2.10536 5.98043 2.29289 5.79289C2.48043 5.60536 2.73478 5.5 3 5.5V5.5ZM21 18.5H3C2.73478 18.5 2.48043 18.3946 2.29289 18.2071C2.10536 18.0196 2 17.7652 2 17.5V11.5C2 11.3674 2.05268 11.2402 2.14645 11.1464C2.24021 11.0527 2.36739 11 2.5 11H21.5C21.6326 11 21.7598 11.0527 21.8536 11.1464C21.9473 11.2402 22 11.3674 22 11.5V17.5C22 17.7652 21.8946 18.0196 21.7071 18.2071C21.5196 18.3946 21.2652 18.5 21 18.5Z" fill="#333332"/>
<path d="M8 14.5H5C4.73478 14.5 4.48043 14.6054 4.29289 14.7929C4.10536 14.9804 4 15.2348 4 15.5C4 15.7652 4.10536 16.0196 4.29289 16.2071C4.48043 16.3946 4.73478 16.5 5 16.5H8C8.26522 16.5 8.51957 16.3946 8.70711 16.2071C8.89464 16.0196 9 15.7652 9 15.5C9 15.2348 8.89464 14.9804 8.70711 14.7929C8.51957 14.6054 8.26522 14.5 8 14.5V14.5Z" fill="#333332"/>
</g>
<defs>
<clipPath id="clip0_334_3303">
<rect width="24" height="24" fill="white"/>
</clipPath>
</defs>
</svg>
