<svg width="24" height="24" viewBox="0 0 24 24" fill="none" xmlns="http://www.w3.org/2000/svg">
<g clip-path="url(#clip0_334_3348)">
<path d="M18.0001 14.5C17.0921 14.5002 16.1962 14.7082 15.3811 15.108C15.3185 15.1387 15.263 15.1821 15.2181 15.2354C15.1733 15.2888 15.1401 15.351 15.1207 15.4179C15.1013 15.4849 15.0961 15.5551 15.1055 15.6242C15.1148 15.6933 15.1385 15.7596 15.1751 15.819C16.0412 17.2267 16.4999 18.8471 16.5001 20.5C16.5001 20.6326 16.5527 20.7598 16.6465 20.8536C16.7403 20.9473 16.8675 21 17.0001 21H23.5001C23.6327 21 23.7598 20.9473 23.8536 20.8536C23.9474 20.7598 24.0001 20.6326 24.0001 20.5C24.0001 18.9087 23.3679 17.3826 22.2427 16.2574C21.1175 15.1321 19.5914 14.5 18.0001 14.5Z" fill="#333332"/>
<path d="M17.944 14C20.015 14 21.694 12.3211 21.694 10.25C21.694 8.17893 20.015 6.5 17.944 6.5C15.8729 6.5 14.194 8.17893 14.194 10.25C14.194 12.3211 15.8729 14 17.944 14Z" fill="#333332"/>
<path d="M7.5 12.5C10.1234 12.5 12.25 10.3734 12.25 7.75C12.25 5.12665 10.1234 3 7.5 3C4.87665 3 2.75 5.12665 2.75 7.75C2.75 10.3734 4.87665 12.5 7.5 12.5Z" fill="#333332"/>
<path d="M15 20.5C15 18.5109 14.2098 16.6032 12.8033 15.1967C11.3968 13.7902 9.48912 13 7.5 13C5.51088 13 3.60322 13.7902 2.1967 15.1967C0.790176 16.6032 0 18.5109 0 20.5C0 20.6326 0.0526784 20.7598 0.146447 20.8536C0.240215 20.9473 0.367392 21 0.5 21H14.5C14.6326 21 14.7598 20.9473 14.8536 20.8536C14.9473 20.7598 15 20.6326 15 20.5Z" fill="#333332"/>
</g>
<defs>
<clipPath id="clip0_334_3348">
<rect width="24" height="24" fill="white"/>
</clipPath>
</defs>
</svg>
