<svg width="24" height="24" viewBox="0 0 24 24" fill="none" xmlns="http://www.w3.org/2000/svg">
<g clip-path="url(#clip0_1093_3433)">
<path d="M18.0002 14.5C17.0922 14.5002 16.1964 14.7082 15.3812 15.108C15.3186 15.1387 15.2631 15.1821 15.2182 15.2354C15.1734 15.2888 15.1402 15.351 15.1208 15.4179C15.1014 15.4849 15.0962 15.5551 15.1056 15.6242C15.115 15.6933 15.1387 15.7596 15.1752 15.819C16.0414 17.2267 16.5 18.8471 16.5002 20.5C16.5002 20.6326 16.5529 20.7598 16.6466 20.8536C16.7404 20.9473 16.8676 21 17.0002 21H23.5002C23.6328 21 23.76 20.9473 23.8537 20.8536C23.9475 20.7598 24.0002 20.6326 24.0002 20.5C24.0002 18.9087 23.368 17.3826 22.2428 16.2574C21.1176 15.1321 19.5915 14.5 18.0002 14.5Z" fill="white"/>
<path d="M17.9438 14C20.0149 14 21.6938 12.3211 21.6938 10.25C21.6938 8.17893 20.0149 6.5 17.9438 6.5C15.8728 6.5 14.1938 8.17893 14.1938 10.25C14.1938 12.3211 15.8728 14 17.9438 14Z" fill="white"/>
<path d="M7.5 12.5C10.1234 12.5 12.25 10.3734 12.25 7.75C12.25 5.12665 10.1234 3 7.5 3C4.87665 3 2.75 5.12665 2.75 7.75C2.75 10.3734 4.87665 12.5 7.5 12.5Z" fill="white"/>
<path d="M15 20.5C15 18.5109 14.2098 16.6032 12.8033 15.1967C11.3968 13.7902 9.48912 13 7.5 13C5.51088 13 3.60322 13.7902 2.1967 15.1967C0.790176 16.6032 0 18.5109 0 20.5C0 20.6326 0.0526784 20.7598 0.146447 20.8536C0.240215 20.9473 0.367392 21 0.5 21H14.5C14.6326 21 14.7598 20.9473 14.8536 20.8536C14.9473 20.7598 15 20.6326 15 20.5Z" fill="white"/>
</g>
<defs>
<clipPath id="clip0_1093_3433">
<rect width="24" height="24" fill="white"/>
</clipPath>
</defs>
</svg>
