<svg width="16" height="16" viewBox="0 0 16 16" fill="none" xmlns="http://www.w3.org/2000/svg">
    <rect width="16" height="16" rx="8" fill="#333333"/>
    <g clip-path="url(#clip0_1654_707)">
        <path fill-rule="evenodd" clip-rule="evenodd" d="M11.123 4.87691C11.3508 5.10471 11.3508 5.47406 11.123 5.70187L8.82489 8L11.123 10.2981C11.3508 10.5259 11.3508 10.8953 11.123 11.1231C10.8952 11.3509 10.5259 11.3509 10.2981 11.1231L7.99993 8.82496L5.70187 11.123C5.47406 11.3508 5.10471 11.3508 4.87691 11.123C4.6491 10.8952 4.6491 10.5259 4.87691 10.2981L7.17497 8L4.87691 5.70194C4.6491 5.47413 4.6491 5.10479 4.87691 4.87698C5.10471 4.64918 5.47406 4.64918 5.70187 4.87698L7.99993 7.17504L10.2981 4.87691C10.5259 4.6491 10.8952 4.6491 11.123 4.87691Z" fill="white"/>
    </g>
    <defs>
        <clipPath id="clip0_1654_707">
            <rect width="8" height="8" fill="white" transform="translate(4 4)"/>
        </clipPath>
    </defs>
</svg>
