<svg width="24" height="24" viewBox="0 0 24 24" fill="none" xmlns="http://www.w3.org/2000/svg">
<g clip-path="url(#clip0_1093_3416)">
<path d="M21.1404 19.2005C21.2676 19.2005 21.3898 19.2512 21.4797 19.3412C21.5697 19.4311 21.6203 19.5533 21.6203 19.6807V21.1207H2.41985V19.6807C2.41985 19.4154 2.63473 19.2005 2.89977 19.2005L21.1404 19.2005Z" fill="white"/>
<path fill-rule="evenodd" clip-rule="evenodd" d="M4.48352 3.16767C6.46863 1.14279 9.18449 0.00126702 12.02 0C14.8557 0.00129738 17.5712 1.14279 19.556 3.16767C21.5411 5.19261 22.6284 7.93053 22.5732 10.7657C22.5183 13.6007 21.3253 16.2943 19.2631 18.2406H4.77666C2.71455 16.2943 1.52158 13.6007 1.46634 10.7657C1.4114 7.93046 2.49866 5.19255 4.48352 3.16767ZM6.24996 4.79017C7.78021 3.25992 9.85575 2.40014 12.02 2.40014C12.2853 2.40014 12.5002 2.18525 12.5002 1.9202C12.5002 1.6549 12.2853 1.44002 12.02 1.44002C9.60136 1.44002 7.28152 2.40092 5.57113 4.11132C3.86067 5.82171 2.89983 8.14155 2.89983 10.5602C2.89983 10.8255 3.11471 11.0404 3.38001 11.0404C3.64506 11.0404 3.85993 10.8255 3.85993 10.5602C3.85993 8.39597 4.7197 6.32042 6.24996 4.79017ZM17.8103 6.18973L17 4L16.1897 6.18973L14 7L16.1897 7.81027L17 10L17.8103 7.81027L20 7L17.8103 6.18973Z" fill="white"/>
<path d="M0.979924 22.08H23.0606C23.3256 22.08 23.5405 22.3451 23.5405 22.5599V23.5201C23.5405 23.7851 23.3256 24 23.0606 24H0.979924C0.714877 24 0.5 23.7349 0.5 23.5201V22.5599C0.5 22.2949 0.714877 22.08 0.979924 22.08Z" fill="white"/>
</g>
<defs>
<clipPath id="clip0_1093_3416">
<rect width="24" height="24" fill="white"/>
</clipPath>
</defs>
</svg>
