<svg width="24" height="24" viewBox="0 0 24 24" fill="none" xmlns="http://www.w3.org/2000/svg">
<g clip-path="url(#clip0_1093_3266)">
<path d="M21.1404 19.2006C21.2676 19.2006 21.3897 19.2512 21.4797 19.3412C21.5696 19.4312 21.6203 19.5533 21.6203 19.6807V21.1208H2.4198V19.6807C2.4198 19.4154 2.63468 19.2006 2.89973 19.2006L21.1404 19.2006Z" fill="#333332"/>
<path d="M12.02 0C9.18449 0.00126702 6.46863 1.14279 4.48352 3.16767C2.49866 5.19255 1.4114 7.93046 1.46634 10.7657C1.52158 13.6007 2.71455 16.2943 4.77666 18.2406H19.2631C21.3253 16.2943 22.5183 13.6007 22.5732 10.7657C22.6284 7.93053 21.5411 5.19261 19.556 3.16767C17.5712 1.14279 14.8557 0.00129738 12.02 0ZM12.02 2.40014C9.85575 2.40014 7.78021 3.25992 6.24996 4.79017C4.7197 6.32042 3.85993 8.39597 3.85993 10.5602C3.85993 10.8255 3.64506 11.0404 3.38001 11.0404C3.11471 11.0404 2.89983 10.8255 2.89983 10.5602C2.89983 8.14155 3.86067 5.82171 5.57113 4.11132C7.28152 2.40092 9.60136 1.44002 12.02 1.44002C12.2853 1.44002 12.5002 1.6549 12.5002 1.9202C12.5002 2.18525 12.2853 2.40014 12.02 2.40014Z" fill="#333332"/>
<path d="M0.979924 22.0801H23.0606C23.3256 22.0801 23.5405 22.3451 23.5405 22.56V23.5201C23.5405 23.7852 23.3256 24 23.0606 24H0.979924C0.714877 24 0.5 23.735 0.5 23.5201V22.56C0.5 22.295 0.714877 22.0801 0.979924 22.0801Z" fill="#333332"/>
<path d="M17 4L17.8103 6.18973L20 7L17.8103 7.81027L17 10L16.1897 7.81027L14 7L16.1897 6.18973L17 4Z" fill="white"/>
</g>
<defs>
<clipPath id="clip0_1093_3266">
<rect width="24" height="24" fill="white"/>
</clipPath>
</defs>
</svg>
