<svg width="24" height="24" viewBox="0 0 24 24" fill="none" xmlns="http://www.w3.org/2000/svg">
<g clip-path="url(#clip0_1344_5203)">
<path d="M3.00081 14.5666C3.00081 16.386 7.0377 17.8667 12 17.8667C16.9581 17.8667 20.9919 16.3883 20.9988 14.5712V14.5632C20.9981 14.44 20.9988 11.9356 20.9988 11.9356C19.1495 13.482 15.5663 14.1999 12 14.1999C8.43315 14.1999 4.8487 13.482 3 11.934C3 11.934 3.00081 14.4427 3.00081 14.5666Z" fill="#333332"/>
<path d="M20.9992 17.0687C19.1499 18.6153 15.5667 19.3333 12.0004 19.3333C8.43355 19.3333 4.84911 18.6153 3.00041 17.0672V20.0666C3.49858 21.7167 7.36847 23 12.0004 23C16.6323 23 20.5016 21.7167 20.9996 20.0666L20.9992 17.0687Z" fill="#333332"/>
<path d="M3.00081 9.43335C3.00081 11.2527 7.0377 12.7335 12 12.7335C16.9581 12.7335 20.9919 11.2551 20.9988 9.4379V9.42992C20.9981 9.30671 20.9988 6.80234 20.9988 6.80234C19.1495 8.34878 15.5663 9.06664 12 9.06664C8.43315 9.06664 4.8487 8.34878 3 6.80072C3 6.80072 3.00081 9.30941 3.00081 9.43335Z" fill="#333332"/>
<path d="M21 4.3001C21 6.12252 16.9708 7.60001 12.0004 7.60001C7.0305 7.60001 3.00122 6.12252 3.00122 4.3001C3.00122 2.47749 7.03045 1 12.0004 1C16.9707 1 21 2.47749 21 4.3001Z" fill="#333332"/>
</g>
<defs>
<clipPath id="clip0_1344_5203">
<rect width="20" height="22" fill="white" transform="translate(2 1)"/>
</clipPath>
</defs>
</svg>
