<svg width="24" height="24" viewBox="0 0 24 24" fill="none" xmlns="http://www.w3.org/2000/svg">
<g clip-path="url(#clip0_334_3367)">
<path d="M22.4067 19.0393C18.6598 17.8915 16.2571 18.3549 13.8241 20.6935C16.8842 21.974 19.2878 21.5109 22.4067 19.0393ZM23.98 12.5027C20.1908 13.4837 18.3293 15.152 17.3321 18.4591C20.5893 17.9547 22.4505 16.2866 23.98 12.5027ZM22.2418 6.01286C19.4257 8.85953 18.6046 11.285 19.3096 14.6755C21.8915 12.5219 22.7127 10.0964 22.2418 6.01286ZM17.6585 1.30849C16.5697 5.25834 17.0093 7.79125 19.2277 10.3562C20.4424 7.13025 20.003 4.59637 17.6585 1.30849Z" fill="black"/>
<path d="M1.59151 19.0397C5.33833 17.8919 7.74104 18.3553 10.1741 20.6939C7.11402 21.9744 4.71039 21.5112 1.59151 19.0397Z" fill="black"/>
<path d="M0.0182163 12.5031C3.80734 13.4841 5.66883 15.1523 6.66611 18.4595C3.40869 17.9552 1.54748 16.2871 0.0182163 12.5031Z" fill="black"/>
<path d="M1.75614 6.01307C4.57242 8.85969 5.39349 11.2852 4.6883 14.6757C2.1066 12.5221 1.28547 10.0965 1.75614 6.01307Z" fill="black"/>
<path d="M6.33937 1.30871C7.42819 5.25856 6.98858 7.79147 4.77041 10.3563C3.55551 7.13046 3.99508 4.59653 6.33937 1.30871Z" fill="black"/>
</g>
<defs>
<clipPath id="clip0_334_3367">
<rect width="24" height="24" fill="white"/>
</clipPath>
</defs>
</svg>
