<svg width="28" height="28" viewBox="0 0 28 28" fill="none" xmlns="http://www.w3.org/2000/svg">
    <path d="M13.0475 1.97965C13.3439 1.05231 14.6561 1.05231 14.9525 1.97965L17.3187 9.38151C17.4511 9.79583 17.8362 10.077 18.2712 10.077H25.9625C26.9273 10.077 27.3326 11.3083 26.5565 11.8814L20.3063 16.497C19.9615 16.7517 19.8173 17.1977 19.9478 17.606L22.3286 25.0534C22.624 25.9776 21.5625 26.7387 20.782 26.1623L14.594 21.5927C14.2409 21.332 13.7591 21.332 13.406 21.5927L7.218 26.1623C6.43749 26.7387 5.37601 25.9776 5.67144 25.0534L8.05218 17.606C8.18269 17.1977 8.03851 16.7517 7.69371 16.497L1.44348 11.8814C0.667381 11.3083 1.07275 10.077 2.03753 10.077H9.7288C10.1638 10.077 10.5489 9.79583 10.6813 9.38151L13.0475 1.97965Z" stroke="#FFBF3D" stroke-width="2"/>
</svg>
