<svg width="28" height="27" viewBox="0 0 28 27" fill="none" xmlns="http://www.w3.org/2000/svg">
<path d="M7.49794 15.8205L7.49811 15.8206C7.74774 16.0187 7.93554 16.2897 8.02888 16.6023C8.12237 16.9154 8.11459 17.2491 8.00708 17.5572C8.00707 17.5573 8.00706 17.5573 8.00704 17.5574L5.3897 25.0603C5.34162 25.1982 5.34072 25.3455 5.38696 25.4837C5.43343 25.6226 5.52777 25.7522 5.66544 25.8481C5.8037 25.9445 5.9758 25.9995 6.15675 25.9993C6.33771 25.999 6.5096 25.9435 6.64752 25.8469L13.0721 21.3434L13.0724 21.3431C13.3463 21.1513 13.6716 21.0512 14.0012 21.0512C14.3308 21.0512 14.6561 21.1513 14.93 21.3431L14.9304 21.3434L21.3526 25.8458L21.354 25.8468C21.4918 25.9437 21.6638 25.9995 21.8449 26C22.026 26.0005 22.1983 25.9455 22.3368 25.8491C22.4747 25.7532 22.5692 25.6235 22.6157 25.4845C22.662 25.3462 22.6611 25.1987 22.6129 25.0607L22.6127 25.0602L19.9954 17.5528C19.9954 17.5527 19.9953 17.5526 19.9953 17.5525C19.8879 17.2444 19.8801 16.9108 19.9736 16.5977L19.9736 16.5977C20.0669 16.2851 20.2547 16.0141 20.5043 15.816L20.5047 15.8157L26.7399 10.8741C26.8607 10.7741 26.9405 10.647 26.9769 10.5134C27.0135 10.3792 27.0066 10.2379 26.9559 10.1061C26.904 9.97339 26.808 9.85117 26.6728 9.76108C26.5371 9.67064 26.371 9.61905 26.1967 9.61834H18.8841H18.8834L7.49794 15.8205ZM7.49794 15.8205L1.27087 10.8827C1.2705 10.8824 1.27014 10.8821 1.26978 10.8818L7.49794 15.8205ZM17.9755 9.34109L17.9755 9.3411L10.6259 8.58027C10.6259 8.58022 10.6259 8.58016 10.6259 8.58012L13.2474 1.47704C13.2997 1.34762 13.3945 1.22865 13.527 1.14074C13.6625 1.05092 13.8282 1 14.0018 1C14.1755 1 14.3412 1.05092 14.4766 1.14074L15.0293 0.307345L14.4766 1.14074C14.6092 1.22865 14.7039 1.34762 14.7562 1.47704L17.3777 8.58012C17.4934 8.89423 17.7052 9.15821 17.9755 9.34109Z" stroke="#FFBF3D" stroke-width="2"/>
</svg>
