<svg width="12" height="12" viewBox="0 0 12 12" fill="none" xmlns="http://www.w3.org/2000/svg">
<g clip-path="url(#clip0_584_5048)">
<path d="M5.35714 2.71429C5.35714 2.52485 5.28189 2.34316 5.14793 2.20921C5.01398 2.07525 4.8323 2 4.64286 2H2.14286C1.57454 2 1.02949 2.22576 0.627628 2.62763C0.225765 3.02949 0 3.57454 0 4.14286V9.85714C0 10.4255 0.225765 10.9705 0.627628 11.3724C1.02949 11.7742 1.57454 12 2.14286 12H7.85714C8.42546 12 8.97051 11.7742 9.37237 11.3724C9.77424 10.9705 10 10.4255 10 9.85714V8.07143C10 7.88199 9.92475 7.70031 9.79079 7.56635C9.65684 7.4324 9.47515 7.35714 9.28571 7.35714C9.09627 7.35714 8.91459 7.4324 8.78064 7.56635C8.64668 7.70031 8.57143 7.88199 8.57143 8.07143V9.85714C8.57143 10.0466 8.49617 10.2283 8.36222 10.3622C8.22826 10.4962 8.04658 10.5714 7.85714 10.5714H2.14286C1.95342 10.5714 1.77174 10.4962 1.63778 10.3622C1.50383 10.2283 1.42857 10.0466 1.42857 9.85714V4.14286C1.42857 3.95342 1.50383 3.77174 1.63778 3.63778C1.77174 3.50383 1.95342 3.42857 2.14286 3.42857H4.64286C4.73666 3.42857 4.82954 3.4101 4.9162 3.3742C5.00286 3.3383 5.08161 3.28569 5.14793 3.21936C5.21426 3.15303 5.26688 3.07429 5.30277 2.98763C5.33867 2.90097 5.35714 2.80809 5.35714 2.71429Z" fill="#FF5B81"/>
<path d="M4.12442 9C4.42238 9.00013 4.70822 8.88183 4.91917 8.67106L9.76868 3.82109C9.78603 3.80363 9.80665 3.78978 9.82936 3.78032C9.85207 3.77087 9.87643 3.766 9.90102 3.766C9.92561 3.766 9.94996 3.77087 9.97267 3.78032C9.99538 3.78978 10.016 3.80363 10.0334 3.82109L11.3597 5.14661C11.3945 5.1816 11.4359 5.20935 11.4814 5.2283C11.527 5.24724 11.5758 5.257 11.6251 5.25701C11.6742 5.25676 11.7228 5.24707 11.7683 5.22847C11.8369 5.20009 11.8955 5.15197 11.9367 5.09021C11.978 5.02844 12 4.95581 12 4.88151V0.375501C12 0.275912 11.9605 0.180402 11.8902 0.109982C11.8199 0.0395616 11.7245 0 11.6251 0H7.12649C7.05241 1.57185e-05 6.97998 0.0220203 6.91837 0.063235C6.85676 0.10445 6.80872 0.163026 6.78032 0.231568C6.75192 0.300111 6.74444 0.375544 6.75881 0.448345C6.77318 0.521145 6.80877 0.588048 6.86108 0.640604L8.18142 1.96237C8.21621 1.99787 8.23584 2.04555 8.23615 2.09529C8.2361 2.12002 8.23117 2.14449 8.22165 2.1673C8.21213 2.19011 8.1982 2.21081 8.18067 2.22822L3.32966 7.07669C3.17232 7.23419 3.06514 7.43489 3.02167 7.6534C2.97821 7.87192 3.00042 8.09844 3.08549 8.30431C3.17057 8.51019 3.31468 8.68617 3.49961 8.81C3.68453 8.93383 3.90197 8.99995 4.12442 9Z" fill="#FF5B81"/>
</g>
<defs>
<clipPath id="clip0_584_5048">
<rect width="12" height="12" fill="white"/>
</clipPath>
</defs>
</svg>
