<svg width="12" height="12" viewBox="0 0 12 12" fill="none" xmlns="http://www.w3.org/2000/svg">
<path d="M11.4275 0.276C11.3878 0.193053 11.3267 0.123307 11.2512 0.0745635C11.1757 0.0258203 11.0887 3.11334e-06 11 0L0.47826 0C0.389442 0 0.302378 0.0258573 0.226824 0.0746746C0.15127 0.123492 0.0902124 0.19334 0.0504915 0.276393C0.0107706 0.359446 -0.00604368 0.452422 0.00193273 0.544903C0.00990913 0.637384 0.0423611 0.725715 0.0956523 0.8L4.30434 6.7115V11C4.30622 11.2646 4.4076 11.5178 4.58657 11.7049C4.76555 11.8921 5.00776 11.998 5.26086 12C5.46786 12.0003 5.66932 11.93 5.83477 11.8L6.79129 11.05C6.9099 10.9567 7.00618 10.8358 7.07257 10.697C7.13896 10.5582 7.17364 10.4052 7.1739 10.25V6.7115L11.3826 0.8C11.4359 0.725654 11.4684 0.63724 11.4763 0.544681C11.4843 0.452123 11.4674 0.359082 11.4275 0.276ZM2.59074 1.1L4.4746 3.725C4.50565 3.76827 4.52243 3.82091 4.52243 3.875V4.5C4.52243 4.55247 4.50664 4.60361 4.47729 4.64618C4.44794 4.68874 4.40653 4.72058 4.35892 4.73717C4.3113 4.75376 4.2599 4.75427 4.212 4.73863C4.16409 4.72298 4.12211 4.69198 4.09199 4.65L1.7313 1.4C1.70466 1.36286 1.68843 1.31869 1.68444 1.27245C1.68045 1.22621 1.68886 1.17972 1.70872 1.1382C1.72858 1.09667 1.75911 1.06175 1.79689 1.03734C1.83466 1.01293 1.8782 1 1.92261 1H2.40087C2.43775 1.00023 2.47408 1.00938 2.50702 1.02673C2.53995 1.04407 2.56861 1.06915 2.59074 1.1Z" fill="#ffffff"/>
</svg>
