<svg width="14" height="14" viewBox="0 0 14 14" fill="none" xmlns="http://www.w3.org/2000/svg">
<g clip-path="url(#clip0_890_677)">
<path d="M13.3233 1.54108C13.1925 1.45204 13.04 1.39989 12.8821 1.39011C12.7241 1.38033 12.5664 1.41329 12.4256 1.48552C11.6961 1.78201 10.9203 1.94842 10.1333 1.97719C9.23565 1.91114 8.3504 1.7283 7.5 1.4333C5.635 0.888857 4.98889 0.759968 3.55889 0.944413C3.358 0.970615 3.17353 1.0691 3.03999 1.22146C2.90645 1.37381 2.83298 1.5696 2.83333 1.77219V10.1166C2.83334 10.2341 2.8582 10.3503 2.90626 10.4575C2.95433 10.5647 3.02453 10.6606 3.11225 10.7387C3.19996 10.8169 3.30322 10.8756 3.41524 10.9111C3.52726 10.9465 3.6455 10.9579 3.76222 10.9444C5.015 10.8005 5.59833 10.9227 7.34111 11.4327C8.2425 11.7451 9.18152 11.9359 10.1333 12C11.1057 11.9639 12.0628 11.7469 12.9556 11.36C13.3289 11.2177 13.6667 11.0266 13.6667 10.5111V2.22219C13.6678 2.08953 13.6372 1.95852 13.5775 1.84005C13.5178 1.72158 13.4306 1.61908 13.3233 1.54108Z" fill="#8F8E8C"/>
<path d="M1.16667 0.333313C0.945652 0.333313 0.73369 0.42111 0.57741 0.577391C0.421129 0.733671 0.333332 0.945633 0.333332 1.16665L0.333332 12.8333C0.333332 13.0543 0.421129 13.2663 0.57741 13.4226C0.73369 13.5788 0.945652 13.6666 1.16667 13.6666C1.38768 13.6666 1.59964 13.5788 1.75592 13.4226C1.9122 13.2663 2 13.0543 2 12.8333V1.16665C2 0.945633 1.9122 0.733671 1.75592 0.577391C1.59964 0.42111 1.38768 0.333313 1.16667 0.333313V0.333313Z" fill="#8F8E8C"/>
</g>
<defs>
<clipPath id="clip0_890_677">
<rect width="13.3333" height="13.3333" fill="white" transform="translate(0.333332 0.333313)"/>
</clipPath>
</defs>
</svg>
