<svg width="24" height="24" viewBox="0 0 24 24" fill="none" xmlns="http://www.w3.org/2000/svg">
<path d="M18 2.04114V1.54331C18 1.41127 17.9473 1.28465 17.8536 1.19128C17.7598 1.09792 17.6326 1.04547 17.5 1.04547H6.5C6.36739 1.04547 6.24021 1.09792 6.14645 1.19128C6.05268 1.28465 6 1.41127 6 1.54331V2.04114H18Z" fill="#333332"/>
<path d="M20 4.03241V3.53458C20 3.40254 19.9473 3.27592 19.8536 3.18256C19.7598 3.08919 19.6326 3.03674 19.5 3.03674H4.5C4.36739 3.03674 4.24021 3.08919 4.14645 3.18256C4.05268 3.27592 4 3.40254 4 3.53458V4.03241H20Z" fill="#333332"/>
<path d="M8.21145 12.0891C8.28982 12.034 8.38243 12.0026 8.47826 11.9984C8.57408 11.9943 8.66909 12.0177 8.75195 12.0658L12.007 13.9562L16.1607 10.1386C16.2441 10.0621 16.3511 10.0161 16.4642 10.008C16.5773 9.99994 16.6898 10.0303 16.7833 10.0941L22 13.6652V5.52609C22 5.39406 21.9473 5.26743 21.8536 5.17407C21.7598 5.08071 21.6326 5.02826 21.5 5.02826H2.5C2.36739 5.02826 2.24021 5.08071 2.14645 5.17407C2.05268 5.26743 2 5.39406 2 5.52609V16.4546L8.21145 12.0891ZM13.5 7.0196C13.7967 7.0196 14.0867 7.10719 14.3334 7.2713C14.58 7.43541 14.7723 7.66866 14.8858 7.94157C14.9993 8.21447 15.0291 8.51476 14.9712 8.80448C14.9133 9.09419 14.7704 9.36031 14.5607 9.56918C14.3509 9.77805 14.0836 9.92029 13.7926 9.97792C13.5017 10.0355 13.2001 10.006 12.926 9.89293C12.6519 9.77989 12.4176 9.58846 12.2528 9.34285C12.088 9.09725 12 8.8085 12 8.51311C12.0004 8.11714 12.1586 7.73751 12.4398 7.45752C12.721 7.17753 13.1023 7.02004 13.5 7.0196V7.0196Z" fill="#333332"/>
<path d="M16.5459 11.1398L12.9105 14.481L14.7519 15.5505C14.8087 15.5834 14.8583 15.6272 14.8981 15.6792C14.9378 15.7313 14.9668 15.7906 14.9836 15.8538C15.0003 15.9171 15.0043 15.9829 14.9954 16.0477C14.9866 16.1125 14.965 16.1749 14.9319 16.2314C14.8988 16.2879 14.8549 16.3373 14.8026 16.3769C14.7503 16.4164 14.6907 16.4453 14.6272 16.462C14.499 16.4956 14.3626 16.4771 14.2481 16.4106L8.5259 13.0869L2 17.6735V21.4567C2 21.5887 2.05268 21.7154 2.14645 21.8087C2.24021 21.9021 2.36739 21.9546 2.5 21.9546H21.5C21.6326 21.9546 21.7598 21.9021 21.8536 21.8087C21.9473 21.7154 22 21.5887 22 21.4567V14.8733L16.5459 11.1398Z" fill="#333332"/>
</svg>
