<svg width="24" height="24" viewBox="0 0 24 24" fill="none" xmlns="http://www.w3.org/2000/svg">
<path fill-rule="evenodd" clip-rule="evenodd" d="M16.658 4.63487C19.0817 3.95322 21.8083 5.92245 22.7172 9.02778C23.7018 12.1331 25.0651 20.0858 22.6414 20.7674C21.2024 21.1461 18.6272 18.7982 16.658 16.1473H12.0379H7.34201C5.37277 18.7982 2.87336 21.1461 1.35857 20.7674C-1.0651 20.0858 0.298211 12.1331 1.28283 9.02778C2.1917 5.92245 4.91834 3.95322 7.34201 4.63487C8.0994 4.78635 8.78106 5.31653 9.31124 5.92245H12.0379H14.7645C15.2189 5.31653 15.9006 4.78635 16.658 4.63487ZM17.3397 8.27038H18.8544V10.1639H20.7479V11.7544H18.8544V13.6479H17.3397V11.7544H15.3704V10.1639H17.3397V8.27038ZM4.53964 9.70944C5.22129 9.70944 5.82721 10.2396 5.82721 10.9213C5.82721 11.6787 5.22129 12.2088 4.53964 12.2088C3.85798 12.2088 3.25206 11.6787 3.25206 10.9213C3.25206 10.2396 3.85798 9.70944 4.53964 9.70944ZM7.64497 11.6787C8.40236 11.6787 8.93254 12.2846 8.93254 12.9662C8.93254 13.6479 8.40236 14.2538 7.64497 14.2538C6.96331 14.2538 6.43313 13.6479 6.43313 12.9662C6.43313 12.2846 6.96331 11.6787 7.64497 11.6787ZM7.64497 7.66446C8.40236 7.66446 8.93254 8.27038 8.93254 8.95204C8.93254 9.6337 8.40236 10.2396 7.64497 10.2396C6.96331 10.2396 6.43313 9.6337 6.43313 8.95204C6.43313 8.27038 6.96331 7.66446 7.64497 7.66446Z" fill="#333332"/>
</svg>
