<svg width="24" height="24" viewBox="0 0 24 24" fill="none" xmlns="http://www.w3.org/2000/svg">
<path d="M23.3001 5.57589C22.8298 4.66014 22.1513 3.86745 21.3191 3.26152C20.4869 2.65559 19.5241 2.25331 18.5082 2.087C17.4923 1.9207 16.4515 1.99501 15.4696 2.30395C14.4876 2.6129 13.5917 3.14788 12.8541 3.86589L12.0001 4.64689L11.1731 3.89389C10.4371 3.16196 9.53704 2.61627 8.54774 2.30215C7.55844 1.98804 6.50845 1.91458 5.48505 2.08789C4.46759 2.24653 3.50266 2.64567 2.67043 3.25214C1.8382 3.85861 1.16271 4.65491 0.700054 5.57489C0.0816291 6.78681 -0.134477 8.16428 0.0831055 9.50735C0.300688 10.8504 0.940634 12.0892 1.91005 13.0439L11.2831 22.6999C11.3762 22.7958 11.4877 22.872 11.6109 22.924C11.734 22.976 11.8664 23.0028 12.0001 23.0028C12.1337 23.0028 12.2661 22.976 12.3892 22.924C12.5124 22.872 12.6239 22.7958 12.7171 22.6999L22.0771 13.0619C23.0504 12.1063 23.6938 10.8653 23.9137 9.51906C24.1337 8.17285 23.9187 6.79159 23.3001 5.57589Z" fill="#333332"/>
</svg>
