<svg width="24" height="24" viewBox="0 0 24 24" fill="none" xmlns="http://www.w3.org/2000/svg">
<path d="M23.2998 5.57589C22.8296 4.66014 22.1511 3.86745 21.3189 3.26152C20.4866 2.65559 19.5239 2.25331 18.508 2.087C17.4921 1.9207 16.4513 1.99501 15.4693 2.30395C14.4873 2.6129 13.5915 3.14788 12.8538 3.86589L11.9998 4.64689L11.1728 3.89389C10.4368 3.16196 9.53679 2.61627 8.54749 2.30215C7.55819 1.98804 6.50821 1.91458 5.48481 2.08789C4.46734 2.24653 3.50241 2.64567 2.67019 3.25214C1.83796 3.85861 1.16246 4.65491 0.69981 5.57489C0.081385 6.78681 -0.134721 8.16428 0.0828613 9.50735C0.300443 10.8504 0.94039 12.0892 1.90981 13.0439L11.2828 22.6999C11.376 22.7958 11.4875 22.872 11.6106 22.924C11.7338 22.976 11.8661 23.0028 11.9998 23.0028C12.1335 23.0028 12.2658 22.976 12.389 22.924C12.5121 22.872 12.6236 22.7958 12.7168 22.6999L22.0768 13.0619C23.0502 12.1063 23.6936 10.8653 23.9135 9.51906C24.1334 8.17285 23.9185 6.79159 23.2998 5.57589Z" fill="white"/>
</svg>
