<svg xmlns="http://www.w3.org/2000/svg" width="25" height="20" fill="none"><path fill="#FFBF3D" d="M17.271 19.752a1.295 1.295 0 0 0 1.99-.64 1.266 1.266 0 0 0-.005-.793l-1.87-5.561a.422.422 0 0 1 .134-.462l4.458-3.665a1.275 1.275 0 0 0 .372-1.413 1.283 1.283 0 0 0-.472-.604 1.3 1.3 0 0 0-.735-.23h-5.225a.432.432 0 0 1-.405-.284L13.637.83a1.278 1.278 0 0 0-.472-.602 1.295 1.295 0 0 0-1.94.601L9.349 6.1a.426.426 0 0 1-.404.285H3.718a1.282 1.282 0 0 0-1.21.84 1.266 1.266 0 0 0 .384 1.416l4.45 3.66a.426.426 0 0 1 .133.461l-1.87 5.558a1.266 1.266 0 0 0 .463 1.436 1.296 1.296 0 0 0 1.52-.003l4.589-3.335a.431.431 0 0 1 .507 0l4.588 3.334ZM4.335 7.883h4.613a1.932 1.932 0 0 0 1.816-1.281l1.668-4.689L14.1 6.602a1.927 1.927 0 0 0 1.82 1.281h4.606l-3.958 3.253a1.926 1.926 0 0 0-.602 2.1l1.65 4.91-4.05-2.944a1.931 1.931 0 0 0-2.27 0l-4.05 2.944 1.651-4.907a1.922 1.922 0 0 0-.601-2.1L4.334 7.885Z"/></svg>