<svg width="17" height="16" viewBox="0 0 17 16" fill="none" xmlns="http://www.w3.org/2000/svg">
<g clip-path="url(#clip0_1480_4401)">
<path d="M8.97224 3.50186C8.80779 3.39198 8.61445 3.33333 8.41667 3.33333C8.15145 3.33333 7.8971 3.43869 7.70956 3.62623C7.52202 3.81376 7.41667 4.06812 7.41667 4.33333C7.41667 4.53111 7.47532 4.72445 7.5852 4.8889C7.69508 5.05335 7.85126 5.18152 8.03398 5.25721C8.21671 5.3329 8.41778 5.3527 8.61176 5.31412C8.80574 5.27553 8.98392 5.18029 9.12377 5.04044C9.26363 4.90059 9.35887 4.7224 9.39745 4.52842C9.43604 4.33444 9.41623 4.13338 9.34055 3.95065C9.26486 3.76792 9.13669 3.61174 8.97224 3.50186Z" fill="#8C8C8C"/>
<path d="M7.25 12.3333H9.91667C10.0935 12.3333 10.263 12.2631 10.3881 12.1381C10.5131 12.013 10.5833 11.8435 10.5833 11.6667C10.5833 11.4899 10.5131 11.3203 10.3881 11.1953C10.263 11.0702 10.0935 11 9.91667 11H9.41667C9.37246 11 9.33007 10.9824 9.29882 10.9512C9.26756 10.9199 9.25 10.8775 9.25 10.8333V7.66667C9.25 7.31304 9.10952 6.97391 8.85948 6.72386C8.60943 6.47381 8.27029 6.33333 7.91667 6.33333H7.25C7.07319 6.33333 6.90362 6.40357 6.7786 6.5286C6.65357 6.65362 6.58333 6.82319 6.58333 7C6.58333 7.17681 6.65357 7.34638 6.7786 7.4714C6.90362 7.59643 7.07319 7.66667 7.25 7.66667H7.75C7.7942 7.66667 7.8366 7.68423 7.86785 7.71548C7.89911 7.74674 7.91667 7.78913 7.91667 7.83333V10.8333C7.91667 10.8775 7.89911 10.9199 7.86785 10.9512C7.8366 10.9824 7.7942 11 7.75 11H7.25C7.07319 11 6.90362 11.0702 6.7786 11.1953C6.65357 11.3203 6.58333 11.4899 6.58333 11.6667C6.58333 11.8435 6.65357 12.013 6.7786 12.1381C6.90362 12.2631 7.07319 12.3333 7.25 12.3333Z" fill="#8C8C8C"/>
<path fill-rule="evenodd" clip-rule="evenodd" d="M3.80544 1.34824C5.12103 0.469192 6.66775 0 8.25 0C10.371 0.00229405 12.4045 0.845885 13.9043 2.34568C15.4041 3.84547 16.2477 5.87897 16.25 8C16.25 9.58225 15.7808 11.129 14.9018 12.4446C14.0227 13.7602 12.7733 14.7855 11.3115 15.391C9.84966 15.9965 8.24113 16.155 6.68928 15.8463C5.13743 15.5376 3.71197 14.7757 2.59315 13.6569C1.47433 12.538 0.712403 11.1126 0.403721 9.56072C0.0950396 8.00887 0.253466 6.40034 0.858967 4.93853C1.46447 3.47672 2.48985 2.22729 3.80544 1.34824ZM4.5462 2.45687C5.64233 1.72446 6.931 1.33347 8.24929 1.33333C10.0169 1.33544 11.7116 2.03856 12.9615 3.28849C14.2114 4.53833 14.9145 6.23283 14.9167 8.00034C14.9166 9.31876 14.5256 10.6076 13.7931 11.7038C13.0606 12.8001 12.0194 13.6546 10.8012 14.1592C9.58305 14.6638 8.24261 14.7958 6.9494 14.5386C5.65619 14.2813 4.46831 13.6464 3.53596 12.714C2.60361 11.7817 1.96867 10.5938 1.71144 9.3006C1.4542 8.00739 1.58622 6.66695 2.09081 5.44878C2.59539 4.2306 3.44987 3.18941 4.5462 2.45687Z" fill="#8C8C8C"/>
</g>
<defs>
<clipPath id="clip0_1480_4401">
<rect width="16" height="16" fill="white" transform="translate(0.25)"/>
</clipPath>
</defs>
</svg>
