<svg width="24" height="24" viewBox="0 0 24 24" fill="none" xmlns="http://www.w3.org/2000/svg">
<g clip-path="url(#clip0_612_2805)">
<path fill-rule="evenodd" clip-rule="evenodd" d="M11.9989 2C10.0215 2.00021 8.0885 2.58669 6.4443 3.6853C4.79981 4.78412 3.51809 6.3459 2.76121 8.17317C2.00433 10.0004 1.8063 12.0111 2.19215 13.9509C2.578 15.8907 3.53041 17.6725 4.92894 19.0711C6.32746 20.4696 8.10929 21.422 10.0491 21.8079C11.9889 22.1937 13.9996 21.9957 15.8268 21.2388C17.6541 20.4819 19.2159 19.2002 20.3147 17.5557C21.4134 15.9114 21.9999 13.9781 22 12.0005C21.9967 9.34925 20.942 6.8075 19.0673 4.93273C17.1924 3.05784 14.6504 2.00316 11.9989 2ZM13.0834 5.2528C12.8367 5.08797 12.5467 5 12.25 5C11.8522 5 11.4706 5.15804 11.1893 5.43934C10.908 5.72064 10.75 6.10218 10.75 6.5C10.75 6.79667 10.838 7.08668 11.0028 7.33336C11.1676 7.58003 11.4019 7.77229 11.676 7.88582C11.9501 7.99935 12.2517 8.02906 12.5426 7.97118C12.8336 7.9133 13.1009 7.77044 13.3107 7.56066C13.5204 7.35088 13.6633 7.08361 13.7212 6.79264C13.7791 6.50166 13.7494 6.20006 13.6358 5.92597C13.5223 5.65189 13.33 5.41762 13.0834 5.2528ZM10.5 18.5H14.5C14.7652 18.5 15.0196 18.3946 15.2071 18.2071C15.3946 18.0196 15.5 17.7652 15.5 17.5C15.5 17.2348 15.3946 16.9804 15.2071 16.7929C15.0196 16.6054 14.7652 16.5 14.5 16.5H13.75C13.6837 16.5 13.6201 16.4737 13.5732 16.4268C13.5263 16.3799 13.5 16.3163 13.5 16.25V11.5C13.5 10.9696 13.2893 10.4609 12.9142 10.0858C12.5391 9.71071 12.0304 9.5 11.5 9.5H10.5C10.2348 9.5 9.98043 9.60536 9.79289 9.79289C9.60536 9.98043 9.5 10.2348 9.5 10.5C9.5 10.7652 9.60536 11.0196 9.79289 11.2071C9.98043 11.3946 10.2348 11.5 10.5 11.5H11.25C11.3163 11.5 11.3799 11.5263 11.4268 11.5732C11.4737 11.6201 11.5 11.6837 11.5 11.75V16.25C11.5 16.3163 11.4737 16.3799 11.4268 16.4268C11.3799 16.4737 11.3163 16.5 11.25 16.5H10.5C10.2348 16.5 9.98043 16.6054 9.79289 16.7929C9.60536 16.9804 9.5 17.2348 9.5 17.5C9.5 17.7652 9.60536 18.0196 9.79289 18.2071C9.98043 18.3946 10.2348 18.5 10.5 18.5Z" fill="#fff"/>
<path fill-rule="evenodd" clip-rule="evenodd" d="M12 0C9.62663 0 7.30655 0.703788 5.33316 2.02236C3.35977 3.34094 1.8217 5.21509 0.913451 7.4078C0.00519943 9.60051 -0.232441 12.0133 0.230582 14.3411C0.693605 16.6689 1.83649 18.8071 3.51472 20.4853C5.19295 22.1635 7.33115 23.3064 9.65892 23.7694C11.9867 24.2324 14.3995 23.9948 16.5922 23.0866C18.7849 22.1783 20.6591 20.6402 21.9776 18.6668C23.2962 16.6935 24 14.3734 24 12C23.9966 8.81846 22.7312 5.76821 20.4815 3.51852C18.2318 1.26883 15.1815 0.00344108 12 0ZM6.4443 3.6853C8.0885 2.58669 10.0215 2.00021 11.9989 2C14.6504 2.00316 17.1924 3.05784 19.0673 4.93273C20.942 6.8075 21.9967 9.34925 22 12.0005C21.9999 13.9781 21.4134 15.9114 20.3147 17.5557C19.2159 19.2002 17.6541 20.4819 15.8268 21.2388C13.9996 21.9957 11.9889 22.1937 10.0491 21.8079C8.10929 21.422 6.32746 20.4696 4.92894 19.0711C3.53041 17.6725 2.578 15.8907 2.19215 13.9509C1.8063 12.0111 2.00433 10.0004 2.76121 8.17317C3.51809 6.3459 4.79981 4.78412 6.4443 3.6853Z" fill="#fff"/>
</g>
<defs>
<clipPath id="clip0_612_2805">
<rect width="24" height="24" fill="white"/>
</clipPath>
</defs>
</svg>
