<svg width="24" height="24" viewBox="0 0 24 24" fill="none" xmlns="http://www.w3.org/2000/svg">
<path d="M15.318 2.146L19.854 6.682C19.9475 6.77571 20 6.90265 20 7.035V21.5C20 21.6326 19.9473 21.7598 19.8536 21.8536C19.7598 21.9473 19.6326 22 19.5 22H4.5C4.36739 22 4.24021 21.9473 4.14645 21.8536C4.05268 21.7598 4 21.6326 4 21.5V2.5C4 2.36739 4.05268 2.24021 4.14645 2.14645C4.24021 2.05268 4.36739 2 4.5 2H14.965C15.0974 2.00003 15.2243 2.05253 15.318 2.146V2.146ZM15.586 0H4C3.46957 0 2.96086 0.210714 2.58579 0.585786C2.21071 0.960859 2 1.46957 2 2V22C2 22.5304 2.21071 23.0391 2.58579 23.4142C2.96086 23.7893 3.46957 24 4 24H20C20.5304 24 21.0391 23.7893 21.4142 23.4142C21.7893 23.0391 22 22.5304 22 22V6.414C21.9999 6.14881 21.8946 5.89449 21.707 5.707L16.293 0.293C16.1055 0.105451 15.8512 5.66374e-05 15.586 0Z" fill="white"/>
<path d="M16 11H7C6.73478 11 6.48043 10.8946 6.29289 10.7071C6.10536 10.5196 6 10.2652 6 10C6 9.73478 6.10536 9.48043 6.29289 9.29289C6.48043 9.10536 6.73478 9 7 9H16C16.2652 9 16.5196 9.10536 16.7071 9.29289C16.8946 9.48043 17 9.73478 17 10C17 10.2652 16.8946 10.5196 16.7071 10.7071C16.5196 10.8946 16.2652 11 16 11Z" fill="white"/>
<path d="M16 15H7C6.73478 15 6.48043 14.8946 6.29289 14.7071C6.10536 14.5196 6 14.2652 6 14C6 13.7348 6.10536 13.4804 6.29289 13.2929C6.48043 13.1054 6.73478 13 7 13H16C16.2652 13 16.5196 13.1054 16.7071 13.2929C16.8946 13.4804 17 13.7348 17 14C17 14.2652 16.8946 14.5196 16.7071 14.7071C16.5196 14.8946 16.2652 15 16 15Z" fill="white"/>
<path d="M11.5 19H7C6.73478 19 6.48043 18.8946 6.29289 18.7071C6.10536 18.5196 6 18.2652 6 18C6 17.7348 6.10536 17.4804 6.29289 17.2929C6.48043 17.1054 6.73478 17 7 17H11.5C11.7652 17 12.0196 17.1054 12.2071 17.2929C12.3946 17.4804 12.5 17.7348 12.5 18C12.5 18.2652 12.3946 18.5196 12.2071 18.7071C12.0196 18.8946 11.7652 19 11.5 19Z" fill="white"/>
</svg>
