<svg width="22" height="22" viewBox="0 0 22 22" fill="none" xmlns="http://www.w3.org/2000/svg">
<rect width="22" height="22" rx="4" fill="#333333"/>
<path d="M6.00159 8.496L6.00959 11.496C6.00959 11.536 5.97759 11.544 5.96159 11.512L4.12959 8.464C4.10559 8.416 4.06559 8.4 4.01759 8.4H2.92159C2.86559 8.4 2.82559 8.44 2.82559 8.496V13.904C2.82559 13.96 2.86559 14 2.92159 14H4.05759C4.11359 14 4.15359 13.96 4.15359 13.904L4.14559 10.896C4.14559 10.856 4.17759 10.848 4.19359 10.88L6.03359 13.936C6.05759 13.984 6.09759 14 6.14559 14H7.23359C7.28959 14 7.32959 13.96 7.32959 13.904V8.496C7.32959 8.44 7.28959 8.4 7.23359 8.4H6.09759C6.04159 8.4 6.00159 8.44 6.00159 8.496ZM12.075 9.44V8.496C12.075 8.44 12.035 8.4 11.979 8.4H8.19503C8.13903 8.4 8.09903 8.44 8.09903 8.496V13.904C8.09903 13.96 8.13903 14 8.19503 14H11.979C12.035 14 12.075 13.96 12.075 13.904V12.96C12.075 12.904 12.035 12.864 11.979 12.864H9.46703C9.44303 12.864 9.42703 12.848 9.42703 12.824V11.768C9.42703 11.744 9.44303 11.728 9.46703 11.728H11.075C11.131 11.728 11.171 11.688 11.171 11.632V10.696C11.171 10.64 11.131 10.6 11.075 10.6H9.46703C9.44303 10.6 9.42703 10.584 9.42703 10.56V9.576C9.42703 9.552 9.44303 9.536 9.46703 9.536H11.979C12.035 9.536 12.075 9.496 12.075 9.44ZM14.1317 14H15.2037C15.2597 14 15.2997 13.968 15.3077 13.912L15.9317 10.824C15.9397 10.784 15.9717 10.784 15.9797 10.824L16.6757 13.912C16.6837 13.968 16.7237 14 16.7797 14H17.9237C17.9797 14 18.0197 13.976 18.0357 13.92L19.3877 8.504C19.4037 8.432 19.3637 8.4 19.2997 8.4H18.1157C18.0597 8.4 18.0197 8.432 18.0117 8.488L17.3637 11.392C17.3557 11.432 17.3237 11.432 17.3157 11.392L16.6197 8.48C16.6037 8.424 16.5717 8.4 16.5157 8.4H15.4037C15.3477 8.4 15.3077 8.432 15.2997 8.488L14.6757 11.392C14.6677 11.432 14.6357 11.432 14.6277 11.392L13.9317 8.48C13.9157 8.424 13.8837 8.4 13.8277 8.4H12.6117C12.5477 8.4 12.5157 8.432 12.5317 8.504L14.0197 13.92C14.0357 13.968 14.0757 14 14.1317 14Z" fill="white"/>
</svg>
