<svg width="16" height="16" class="fill-current" viewBox="0 0 16 16" fill="none" xmlns="http://www.w3.org/2000/svg">
    <g clip-path="url(#clip0_1830_4969)">
        <path d="M6.99992 7.27667C6.99992 7.54188 7.10528 7.79624 7.29282 7.98377C7.48035 8.17131 7.73471 8.27667 7.99992 8.27667C8.26514 8.27667 8.5195 8.17131 8.70703 7.98377C8.89457 7.79624 8.99992 7.54188 8.99992 7.27667V1C8.99992 0.734784 8.89457 0.48043 8.70703 0.292893C8.5195 0.105357 8.26514 0 7.99992 0C7.73471 0 7.48035 0.105357 7.29282 0.292893C7.10528 0.48043 6.99992 0.734784 6.99992 1V7.27667Z" fill="#FE5B80"/>
        <path d="M0.799925 7.68867C0.583652 9.20041 0.848389 10.7419 1.55665 12.0948C2.26492 13.4478 3.38082 14.5437 4.74638 15.2273C6.11193 15.911 7.65794 16.1478 9.16551 15.9042C10.6731 15.6606 12.0658 14.9489 13.1466 13.87C13.95 13.0723 14.5545 12.0968 14.9113 11.0223C15.268 9.94782 15.3668 8.80446 15.1999 7.68467C15.0321 6.54521 14.5987 5.46117 13.9348 4.52002C13.2709 3.57888 12.3951 2.807 11.3779 2.26667C11.2624 2.19663 11.1339 2.15073 11.0001 2.13174C10.8664 2.11275 10.7301 2.12106 10.5997 2.15617C10.4692 2.19128 10.3472 2.25245 10.2411 2.33601C10.1349 2.41957 10.0468 2.52377 9.98199 2.64233C9.91721 2.76089 9.87712 2.89134 9.86415 3.02582C9.85119 3.1603 9.8656 3.29601 9.90653 3.42476C9.94746 3.55351 10.014 3.67263 10.1023 3.77494C10.1905 3.87724 10.2986 3.96061 10.4199 4.02C11.1636 4.41287 11.8044 4.97506 12.2908 5.6612C12.7772 6.34734 13.0955 7.13822 13.2199 7.97C13.3788 9.06692 13.1883 10.186 12.6752 11.1685C12.1622 12.151 11.3528 12.947 10.3619 13.4435C9.37092 13.94 8.24879 14.1118 7.15468 13.9345C6.06058 13.7573 5.05008 13.24 4.26659 12.456C3.68393 11.8778 3.24537 11.1707 2.98631 10.3918C2.72725 9.6129 2.65496 8.784 2.77526 7.972C2.8995 7.14066 3.21747 6.35018 3.70351 5.66438C4.18955 4.97857 4.83003 4.41666 5.57326 4.024C5.69011 3.96185 5.79347 3.87712 5.87734 3.77473C5.9612 3.67233 6.0239 3.55431 6.06181 3.4275C6.09972 3.30068 6.11207 3.16761 6.09816 3.03599C6.08425 2.90437 6.04434 2.77681 5.98076 2.66073C5.91718 2.54465 5.83119 2.44234 5.72778 2.35974C5.62436 2.27714 5.50557 2.21589 5.3783 2.17954C5.25104 2.1432 5.11782 2.13248 4.98638 2.14801C4.85494 2.16353 4.72789 2.205 4.61259 2.27C3.59691 2.81125 2.72268 3.58365 2.0604 4.5249C1.39812 5.46614 0.966355 6.54987 0.799925 7.68867Z" fill="#FE5B80"/>
    </g>
    <defs>
        <clipPath id="clip0_1830_4969">
            <rect width="16" height="16" fill="white"/>
        </clipPath>
    </defs>
</svg>
