<svg width="24" height="24" viewBox="0 0 24 24" fill="none" xmlns="http://www.w3.org/2000/svg">
<path d="M12 1C9.82441 1 7.69767 1.64514 5.88873 2.85383C4.07979 4.06253 2.66989 5.78049 1.83733 7.79048C1.00477 9.80047 0.786929 12.0122 1.21137 14.146C1.6358 16.2798 2.68345 18.2398 4.22183 19.7782C5.76021 21.3165 7.72022 22.3642 9.85401 22.7886C11.9878 23.2131 14.1995 22.9952 16.2095 22.1627C18.2195 21.3301 19.9375 19.9202 21.1462 18.1113C22.3549 16.3023 23 14.1756 23 12C22.9964 9.08372 21.8363 6.28791 19.7742 4.22578C17.7121 2.16366 14.9163 1.00358 12 1V1ZM18.2886 17.6692C18.3558 17.7543 18.3899 17.8608 18.3846 17.9691C18.3793 18.0774 18.335 18.18 18.2598 18.2582C17.4432 19.0904 16.4688 19.7514 15.3937 20.2027C14.3186 20.6539 13.1643 20.8864 11.9983 20.8864C10.8323 20.8864 9.67804 20.6539 8.60293 20.2027C7.52782 19.7514 6.55345 19.0904 5.73677 18.2582C5.66198 18.1801 5.61803 18.0776 5.61305 17.9696C5.60807 17.8616 5.64241 17.7555 5.7097 17.6709C6.79752 16.3057 8.28043 15.3098 9.9557 14.8194C10.0363 14.799 10.1088 14.7544 10.1634 14.6916C10.2179 14.6289 10.252 14.5509 10.261 14.4683C10.2701 14.3856 10.2536 14.3021 10.2138 14.2291C10.1741 14.156 10.1129 14.0969 10.0386 14.0595C9.1499 13.5937 8.45453 12.8285 8.07547 11.8995C7.69641 10.9704 7.65807 9.93722 7.96723 8.98261C8.16817 8.30869 8.54192 7.69906 9.05135 7.21426C9.56079 6.72947 10.1882 6.38638 10.8712 6.21908C11.8836 5.92936 12.9675 6.02755 13.9113 6.49445C14.8551 6.96136 15.5909 7.76343 15.9748 8.7439C16.3587 9.72437 16.3633 10.8128 15.9875 11.7964C15.6117 12.78 14.8826 13.5882 13.9428 14.0629C13.872 14.1042 13.8151 14.1658 13.7795 14.2396C13.7439 14.3135 13.7312 14.3963 13.7431 14.4774C13.7549 14.5586 13.7907 14.6343 13.8459 14.6949C13.9011 14.7556 13.9731 14.7983 14.0528 14.8177C15.7242 15.3102 17.2033 16.3059 18.2886 17.6692V17.6692Z" fill="white"/>
</svg>
