<svg width="21" height="23" viewBox="0 0 21 23" fill="none" xmlns="http://www.w3.org/2000/svg">
<path d="M16.0688 14.8575C14.9648 14.8638 13.9126 15.3265 13.162 16.1361L7.85783 13.1393C8.15089 12.3327 8.15089 11.4488 7.85783 10.6421L13.162 7.64531V7.64551C14.0174 8.55255 15.2476 9.00835 16.4876 8.87744C17.7276 8.74674 18.8356 8.04436 19.4832 6.97872C20.1306 5.91308 20.2435 4.60623 19.7885 3.44547C19.3333 2.28451 18.3622 1.40263 17.1629 1.06108C15.9636 0.719582 14.6737 0.957464 13.6751 1.70433C12.6767 2.45141 12.0841 3.62163 12.0731 4.8686C12.0731 5.20575 12.1168 5.54152 12.203 5.86737L6.76924 8.92407C6.00399 8.21815 4.99332 7.83868 3.95259 7.86673C2.91186 7.89461 1.92316 8.32766 1.19684 9.07375C0.470721 9.81962 0.0643806 10.8196 0.0643806 11.8607C0.0643806 12.9019 0.470736 13.902 1.19684 14.6479C1.92316 15.394 2.91186 15.8271 3.95259 15.855C4.99332 15.883 6.00394 15.5036 6.76924 14.7976L12.203 17.8543C12.1168 18.1802 12.0731 18.5159 12.0731 18.8531C12.0731 19.9128 12.4941 20.9292 13.2435 21.6784C13.9927 22.4276 15.0091 22.8486 16.0688 22.8486C17.1285 22.8486 18.1447 22.4276 18.894 21.6784C19.6434 20.9291 20.0644 19.9127 20.0644 18.8531C20.0644 17.7934 19.6434 16.7772 18.894 16.0278C18.1447 15.2785 17.1285 14.8575 16.0688 14.8575L16.0688 14.8575Z" fill="white"/>
</svg>
