<svg width="24" height="25" viewBox="0 0 24 25" fill="none" xmlns="http://www.w3.org/2000/svg">
<g clip-path="url(#clip0_1404_4659)">
<path fill-rule="evenodd" clip-rule="evenodd" d="M23.9999 12.4285C23.9999 19.0558 18.6275 24.4282 12.0001 24.4282C5.37277 24.4282 0 19.0558 0 12.4285C0 5.80111 5.37277 0.428711 12.0001 0.428711C18.6275 0.428711 23.9999 5.80111 23.9999 12.4285Z" fill="#333332"/>
<path fill-rule="evenodd" clip-rule="evenodd" d="M17.5842 9.21964L17.279 8.27693C17.217 8.08519 17.0657 7.936 16.8733 7.87717L15.9259 7.58584C15.7948 7.54579 15.7937 7.36081 15.9238 7.31863L16.8669 7.01349C17.0582 6.95145 17.2075 6.80012 17.2666 6.60768L17.5576 5.66036C17.5977 5.52958 17.7826 5.52817 17.8248 5.65858L18.13 6.60131C18.192 6.79269 18.3433 6.94188 18.5357 7.00107L19.4831 7.29204C19.6142 7.33245 19.6156 7.5171 19.4852 7.55925L18.5421 7.86439C18.3508 7.92643 18.2015 8.07812 18.1424 8.27054L17.8514 9.21752C17.8114 9.34866 17.6264 9.35007 17.5842 9.21964Z" fill="#FAFAFA"/>
<path fill-rule="evenodd" clip-rule="evenodd" d="M1.09106 12.2381C1.37636 11.6792 1.94057 11.2581 2.52676 10.992C3.11896 10.7286 3.77001 10.567 4.40935 10.5146C5.70008 10.398 6.95753 10.6138 8.10295 10.987C8.69304 11.1628 9.22109 11.407 9.76652 11.6536C10.0316 11.7812 10.2808 11.9258 10.5374 12.0655L11.2462 12.4762C12.0244 12.9532 12.779 13.3757 13.4878 13.7039C14.1984 14.0292 14.8405 14.2493 15.4459 14.3616C16.0512 14.4754 16.6664 14.474 17.4231 14.3003C18.1737 14.1306 19.0182 13.7645 19.9011 13.2949C20.7892 12.8249 21.7 12.2487 22.7391 11.6855C22.6349 12.8625 22.3018 13.9661 21.7815 15.0318C21.2485 16.0848 20.5071 17.1118 19.4262 17.9436C18.3658 18.7821 16.9095 19.3665 15.4271 19.4544C13.9439 19.5547 12.533 19.228 11.3326 18.7364C10.1277 18.2378 9.08643 17.5825 8.16355 16.8591C7.90873 16.6593 7.77193 16.5458 7.58374 16.3867L7.05817 15.9263C6.70412 15.6492 6.36105 15.3178 6.01054 15.0432C5.31131 14.4588 4.61951 13.8733 3.86108 13.3658C3.47867 13.1078 3.08424 12.8685 2.63698 12.6566C2.41476 12.5542 2.17873 12.4589 1.92533 12.3837C1.66591 12.299 1.40223 12.2487 1.09106 12.2381Z" fill="white"/>
<path fill-rule="evenodd" clip-rule="evenodd" d="M1.09106 12.2381C1.23673 11.0271 1.80129 9.89128 2.70608 8.92445C3.60626 7.96687 5.01253 7.22864 6.57298 7.13081C7.34312 7.07942 8.12492 7.16519 8.84366 7.36437C9.5592 7.56284 10.2297 7.85204 10.834 8.1926C11.136 8.36379 11.4184 8.55091 11.6998 8.7398L12.4497 9.30756L13.6203 10.2311C14.3802 10.8361 15.1053 11.3957 15.7754 11.8579C16.452 12.3207 17.0283 12.6588 17.5786 12.8569C18.1241 13.0731 18.813 13.1284 19.7239 12.8994C20.1761 12.7953 20.6478 12.605 21.151 12.3987C21.6515 12.1875 22.171 11.9355 22.7391 11.6856C22.6707 12.2945 22.547 12.9009 22.3121 13.4676C22.0863 14.0421 21.789 14.6042 21.3733 15.1283C21.1606 15.3835 20.9327 15.6401 20.6669 15.8768C20.4011 16.1079 20.1066 16.3272 19.7813 16.5197C19.1324 16.8957 18.3626 17.1704 17.573 17.2682C16.7834 17.3674 15.9906 17.3178 15.2686 17.1647C14.5428 17.0159 13.8815 16.7759 13.2744 16.4988C12.0645 15.936 11.0523 15.2286 10.1574 14.4797C9.70806 14.1058 9.28665 13.7153 8.88759 13.3187L8.41626 12.8456C8.27413 12.7084 8.1306 12.5706 7.98848 12.4444C7.41577 11.938 6.88414 11.551 6.29867 11.3096C5.71746 11.0569 4.97356 10.9531 4.06096 11.1239C3.15193 11.2929 2.15463 11.686 1.09106 12.2381Z" fill="#FAFAFA"/>
<path fill-rule="evenodd" clip-rule="evenodd" d="M5.8877 18.4834C5.8877 18.8417 5.59709 19.1323 5.23878 19.1323C4.88048 19.1323 4.59021 18.8417 4.59021 18.4834C4.59021 18.1251 4.88048 17.8345 5.23878 17.8345C5.59709 17.8345 5.8877 18.1251 5.8877 18.4834Z" fill="#FAFAFA"/>
<path fill-rule="evenodd" clip-rule="evenodd" d="M5.8877 18.4834C5.8877 18.8417 5.59709 19.1323 5.23878 19.1323C4.88048 19.1323 4.59021 18.8417 4.59021 18.4834C4.59021 18.1251 4.88048 17.8345 5.23878 17.8345C5.59709 17.8345 5.8877 18.1251 5.8877 18.4834Z" fill="#FAFAFA"/>
</g>
<defs>
<clipPath id="clip0_1404_4659">
<rect width="24" height="24" fill="white" transform="translate(0 0.428711)"/>
</clipPath>
</defs>
</svg>
