<svg width="24" height="24" viewBox="0 0 24 24" fill="none" xmlns="http://www.w3.org/2000/svg">
<g clip-path="url(#clip0_1404_5259)">
<path fill-rule="evenodd" clip-rule="evenodd" d="M12.0001 23.9995C18.6275 23.9995 23.9999 18.6271 23.9999 11.9998C23.9999 5.3724 18.6275 0 12.0001 0C5.37277 0 0 5.3724 0 11.9998C0 18.6271 5.37277 23.9995 12.0001 23.9995ZM17.2791 7.84834L17.5842 8.79105C17.6264 8.92148 17.8114 8.92007 17.8514 8.78893L18.1424 7.84195C18.2016 7.64953 18.3508 7.49784 18.5422 7.4358L19.4852 7.13066C19.6156 7.08851 19.6142 6.90386 19.4831 6.86346L18.5358 6.57248C18.3433 6.51329 18.192 6.3641 18.13 6.17273L17.8249 5.22999C17.7827 5.09959 17.5977 5.10099 17.5576 5.23177L17.2667 6.17909C17.2075 6.37153 17.0583 6.52286 16.8669 6.5849L15.9238 6.89004C15.7937 6.93222 15.7948 7.1172 15.926 7.15725L16.8733 7.44859C17.0657 7.50741 17.2171 7.6566 17.2791 7.84834ZM5.23891 18.7033C5.59721 18.7033 5.88782 18.4127 5.88782 18.0544C5.88782 17.6961 5.59721 17.4055 5.23891 17.4055C4.8806 17.4055 4.59033 17.6961 4.59033 18.0544C4.59033 18.4127 4.8806 18.7033 5.23891 18.7033ZM22.7381 11.2574C22.4927 11.3653 22.2563 11.4737 22.0266 11.579C21.7249 11.7172 21.4348 11.8502 21.1508 11.9701C20.6476 12.1764 20.1758 12.3667 19.7236 12.4709C18.8128 12.6998 18.1238 12.6445 17.5784 12.4283C17.028 12.2302 16.4518 11.8921 15.7752 11.4293C15.105 10.9671 14.3799 10.4075 13.6201 9.80255L12.4495 8.87897L11.6996 8.31121C11.4182 8.12232 11.1357 7.9352 10.8338 7.76401C10.2295 7.42345 9.55896 7.13425 8.84342 6.93578C8.12467 6.73661 7.34287 6.65083 6.57273 6.70222C5.01229 6.80005 3.60602 7.53828 2.70584 8.49586C1.80107 9.46267 1.23651 10.5985 1.09083 11.8094C1.09083 11.8095 1.09082 11.8095 1.09082 11.8095C1.09082 11.8095 1.09083 11.8095 1.09083 11.8095C1.09083 11.8095 1.09082 11.8095 1.09082 11.8096C1.09087 11.8095 1.09092 11.8095 1.09097 11.8095C1.40207 11.8201 1.6657 11.8705 1.92509 11.9551C2.17849 12.0303 2.41452 12.1256 2.63673 12.228C3.08399 12.4399 3.47843 12.6792 3.86084 12.9372C4.57993 13.4184 5.23913 13.9697 5.90156 14.5237L5.90158 14.5237L6.0103 14.6146C6.18469 14.7512 6.35724 14.9019 6.53021 15.053L6.53024 15.053L6.53025 15.053C6.70493 15.2056 6.88004 15.3585 7.05792 15.4978L7.5835 15.9581C7.77169 16.1172 7.90849 16.2307 8.16331 16.4305C9.08619 17.1539 10.1274 17.8092 11.3324 18.3078C12.5328 18.7994 13.9436 19.1261 15.4268 19.0259C16.9093 18.9379 18.3656 18.3535 19.4259 17.515C20.5068 16.6832 21.2483 15.6562 21.7813 14.6032C22.3015 13.5377 22.6346 12.4342 22.7389 11.2573M22.7389 11.257C22.7389 11.257 22.7389 11.257 22.7389 11.257C22.7386 11.2571 22.7384 11.2572 22.7381 11.2574" fill="white"/>
</g>
<defs>
<clipPath id="clip0_1404_5259">
<rect width="24" height="24" fill="white"/>
</clipPath>
</defs>
</svg>
