<svg width="20" height="20" viewBox="0 0 20 20" fill="none" xmlns="http://www.w3.org/2000/svg">
<path d="M14.8418 19.7515C15.0621 19.9123 15.3282 19.9993 15.6017 20C15.8752 20.0007 16.1418 19.9151 16.3629 19.7555C16.584 19.596 16.7481 19.3708 16.8314 19.1125C16.9148 18.8543 16.913 18.5765 16.8264 18.3193L14.9568 12.758C14.9295 12.6766 14.9275 12.589 14.9513 12.5065C14.975 12.4241 15.0233 12.3506 15.0899 12.2959L19.5484 8.63146C19.7488 8.46186 19.8919 8.23539 19.9583 7.98262C20.0248 7.72985 20.0115 7.46295 19.9201 7.21794C19.8284 6.97371 19.6637 6.76302 19.4481 6.614C19.2324 6.46498 18.976 6.38473 18.7132 6.38396H13.4881C13.3992 6.38402 13.3125 6.35671 13.2399 6.30579C13.1673 6.25487 13.1125 6.18287 13.0829 6.09972L11.2073 0.829446C11.1155 0.585856 10.9507 0.375895 10.7352 0.227663C10.5197 0.0794312 10.2636 0 10.0013 0C9.73901 0 9.48291 0.0794312 9.26741 0.227663C9.05181 0.375895 8.88711 0.585856 8.79521 0.829446L6.91965 6.09972C6.89018 6.18273 6.83548 6.25464 6.76307 6.30554C6.69066 6.35645 6.60412 6.38384 6.51535 6.38396H1.28856C1.02402 6.38376 0.765841 6.46435 0.549121 6.61476C0.332411 6.76518 0.167701 6.97812 0.0773715 7.22463C-0.0129485 7.47113 -0.0244886 7.73923 0.0443114 7.99247C0.113121 8.24571 0.258931 8.47179 0.461931 8.63997L4.91186 12.2993C4.97842 12.3541 5.02674 12.4275 5.05049 12.5099C5.07423 12.5924 5.07229 12.68 5.04491 12.7614L3.17532 18.3193C3.08892 18.5763 3.08721 18.8538 3.17045 19.1118C3.25369 19.3698 3.41755 19.5949 3.63834 19.7545C3.85913 19.914 4.12539 19.9998 4.39862 19.9995C4.67185 19.9991 4.93788 19.9126 5.15822 19.7524L9.74721 16.4165C9.82081 16.363 9.90961 16.3342 10.0009 16.3342C10.0921 16.3342 10.1809 16.363 10.2545 16.4165L14.8418 19.7515ZM1.9042 7.88396L6.51725 7.88395C6.91321 7.88345 7.30048 7.76132 7.62571 7.53265C7.95091 7.30407 8.19871 6.97971 8.33281 6.60264L10.0013 1.91438L11.6697 6.60254C11.8041 6.98024 12.0525 7.30513 12.3784 7.53375C12.7042 7.76227 13.0929 7.88402 13.4892 7.88396H18.0955L14.1369 11.1375C13.8372 11.3841 13.6179 11.7162 13.5098 12.0915C13.4018 12.4668 13.4107 12.8664 13.5352 13.2364L15.1861 18.1473L11.136 15.2028C10.8054 14.9626 10.4078 14.8342 10.0009 14.8342C9.59401 14.8342 9.19641 14.9626 8.86571 15.2028L4.81596 18.1467L6.46663 13.2396C6.59114 12.8695 6.60001 12.4703 6.49193 12.0949C6.38386 11.7196 6.16451 11.3875 5.86486 11.1409L1.9042 7.88396Z" fill="#FFBF3D"/>
</svg>
