<svg width="20" height="20" viewBox="0 0 20 20" fill="none" xmlns="http://www.w3.org/2000/svg">
<path d="M19.9201 6.96016C19.8284 6.72464 19.6637 6.52148 19.4481 6.37778C19.2324 6.23409 18.9761 6.1567 18.7132 6.15596H13.4881C13.3992 6.15602 13.3125 6.12968 13.2399 6.08058C13.1673 6.03148 13.1125 5.96205 13.083 5.88187L11.2074 0.799823C11.1155 0.564933 10.9508 0.36247 10.7352 0.219532C10.5197 0.0765944 10.2636 0 10.0013 0C9.73899 0 9.48292 0.0765944 9.26739 0.219532C9.05185 0.36247 8.88713 0.564933 8.79526 0.799823L6.91966 5.88187C6.89019 5.96192 6.83548 6.03126 6.76307 6.08034C6.69066 6.12943 6.60412 6.15585 6.51535 6.15596H1.28857C1.02402 6.15577 0.765838 6.23348 0.549127 6.37852C0.332417 6.52356 0.167698 6.7289 0.0773754 6.9666C-0.0129476 7.2043 -0.0244913 7.46283 0.0443143 7.70703C0.11312 7.95122 0.258935 8.16923 0.461928 8.3314L4.91186 11.86C4.97843 11.9128 5.02675 11.9836 5.05049 12.0631C5.07423 12.1427 5.07229 12.2272 5.04492 12.3056L3.17532 17.665C3.08892 17.9128 3.08722 18.1805 3.17045 18.4293C3.25369 18.6781 3.41755 18.8951 3.63834 19.049C3.85913 19.2028 4.1254 19.2856 4.39863 19.2852C4.67185 19.2848 4.93788 19.2014 5.15822 19.0469L9.74722 15.8301C9.82081 15.7786 9.90966 15.7508 10.0009 15.7508C10.0921 15.7508 10.1809 15.7786 10.2545 15.8301L14.8418 19.0461C15.0621 19.2011 15.3282 19.285 15.6017 19.2857C15.8752 19.2864 16.1418 19.2038 16.3629 19.05C16.584 18.8961 16.7481 18.6789 16.8314 18.4299C16.9148 18.1809 16.913 17.913 16.8264 17.665L14.9568 12.3023C14.9295 12.2239 14.9275 12.1394 14.9513 12.0599C14.975 11.9804 15.0233 11.9096 15.0899 11.8567L19.5484 8.32319C19.7488 8.15965 19.8919 7.94126 19.9584 7.69752C20.0248 7.45378 20.0115 7.19641 19.9201 6.96016Z" fill="#FFBF3D"/>
</svg>
