<svg width="23" height="24" viewBox="0 0 23 24" fill="none" xmlns="http://www.w3.org/2000/svg">
<g clip-path="url(#clip0_337_5800)">
<path d="M4.54631 17.596L1.91201 20.3521L3.45429 21.9572L6.08859 19.2124L4.54631 17.596ZM10.3844 20.585L10.3844 24L12.5721 24L12.5721 20.585L10.3844 20.585ZM-5.74295e-07 10.8617L-4.74778e-07 13.1383L3.22676 13.1383L3.22676 10.8617L-5.74295e-07 10.8617ZM3.45429 2.04284L1.91201 3.6479L4.5463 6.39264L6.08859 4.78758L3.45429 2.04284ZM18.4102 6.40402L21.0554 3.65929L19.5131 2.05423L16.8788 4.81035L18.4102 6.40402ZM10.3844 3.41502L12.5721 3.41502L12.5721 -5.49542e-07L10.3844 -4.53918e-07L10.3844 3.41502ZM4.91534 12C4.91534 15.7679 7.85771 18.83 11.4782 18.83C15.0988 18.83 18.0411 15.7679 18.0411 12C18.0411 8.23209 15.0988 5.16996 11.4782 5.16996C7.85771 5.16996 4.91534 8.23209 4.91534 12ZM22.9565 13.1383L22.9565 10.8617L19.7297 10.8617L19.7297 13.1383L22.9565 13.1383ZM19.5022 21.9572L21.0445 20.3521L18.3992 17.6074L16.857 19.2124L19.5022 21.9572Z" fill="white"/>
</g>
<defs>
<clipPath id="clip0_337_5800">
<rect width="22.9565" height="24" fill="white"/>
</clipPath>
</defs>
</svg>
