<svg width="24" height="24" viewBox="0 0 24 24" fill="none" xmlns="http://www.w3.org/2000/svg">
<g clip-path="url(#clip0_334_3316)">
<path d="M5.811 13.6271L12.958 6.48006C12.981 6.45657 13.0085 6.4379 13.0388 6.42516C13.0691 6.41242 13.1016 6.40585 13.1345 6.40585C13.1674 6.40585 13.1999 6.41242 13.2302 6.42516C13.2605 6.4379 13.288 6.45657 13.311 6.48006L14.195 7.36406C14.3825 7.55161 14.6368 7.65701 14.902 7.65706C14.9922 7.65697 15.082 7.64486 15.169 7.62106C15.3391 7.57326 15.4934 7.48128 15.6164 7.35445C15.7393 7.22763 15.8265 7.07051 15.869 6.89906L17.283 1.24206C17.3245 1.07495 17.3221 0.899963 17.2761 0.734043C17.2301 0.568123 17.142 0.416891 17.0204 0.294991C16.8988 0.173091 16.7478 0.0846521 16.582 0.0382385C16.4162 -0.00817508 16.2412 -0.0109913 16.074 0.0300624L10.417 1.44406C10.2454 1.48708 10.0883 1.57485 9.96172 1.6984C9.83513 1.82196 9.74358 1.97689 9.69641 2.14738C9.64924 2.31786 9.64813 2.49782 9.69321 2.66887C9.73829 2.83993 9.82794 2.99596 9.953 3.12106L10.837 4.00506C10.8603 4.0282 10.8787 4.0557 10.8913 4.08599C10.9039 4.11628 10.9104 4.14876 10.9104 4.18156C10.9104 4.21436 10.9039 4.24684 10.8913 4.27713C10.8787 4.30742 10.8603 4.33492 10.837 4.35806L3.689 11.5061C3.40774 11.7875 3.24978 12.1691 3.24988 12.5669C3.24997 12.9648 3.40811 13.3463 3.6895 13.6276C3.9709 13.9088 4.3525 14.0668 4.75036 14.0667C5.14822 14.0666 5.52974 13.9085 5.811 13.6271Z" fill="#333332"/>
<path d="M18.1891 10.3731L11.0421 17.5201C10.9952 17.5668 10.9317 17.5931 10.8656 17.5931C10.7994 17.5931 10.7359 17.5668 10.6891 17.5201L9.80507 16.6351C9.67993 16.5098 9.52375 16.4199 9.3525 16.3748C9.18125 16.3296 9.00108 16.3307 8.8304 16.378C8.65972 16.4253 8.50467 16.5171 8.3811 16.644C8.25752 16.7708 8.16986 16.9282 8.12707 17.1001L6.71307 22.7581C6.67631 22.9055 6.67361 23.0593 6.70518 23.2079C6.73674 23.3565 6.80173 23.4959 6.89523 23.6156C6.98873 23.7353 7.10826 23.8322 7.24477 23.8988C7.38128 23.9654 7.53118 24.0001 7.68307 24.0001C7.76506 24.0001 7.84672 23.9897 7.92607 23.9691L13.5831 22.5551C13.7545 22.512 13.9114 22.4242 14.0378 22.3007C14.1642 22.1772 14.2557 22.0225 14.3028 21.8521C14.35 21.6818 14.3512 21.502 14.3062 21.3311C14.2613 21.1602 14.1719 21.0042 14.0471 20.8791L13.1631 20.0001C13.1398 19.9769 13.1213 19.9493 13.1087 19.9189C13.0961 19.8885 13.0896 19.856 13.0896 19.8231C13.0896 19.7902 13.0961 19.7577 13.1087 19.7273C13.1213 19.6969 13.1398 19.6693 13.1631 19.6461L20.3111 12.4991C20.4503 12.3598 20.5608 12.1944 20.6361 12.0124C20.7115 11.8303 20.7502 11.6353 20.7502 11.4383C20.7502 11.2413 20.7113 11.0462 20.6359 10.8642C20.5604 10.6822 20.4499 10.5169 20.3106 10.3776C20.1712 10.2383 20.0058 10.1279 19.8238 10.0525C19.6418 9.97719 19.4467 9.93843 19.2497 9.93848C19.0527 9.93852 18.8577 9.97737 18.6757 10.0528C18.4937 10.1282 18.3283 10.2388 18.1891 10.3781V10.3731Z" fill="#333332"/>
</g>
<defs>
<clipPath id="clip0_334_3316">
<rect width="24" height="24" fill="white"/>
</clipPath>
</defs>
</svg>
