<svg width="24" height="24" viewBox="0 0 24 24" fill="none" xmlns="http://www.w3.org/2000/svg">
<g clip-path="url(#clip0_1203_4395)">
<path d="M5.81113 13.6271L12.9581 6.48006C12.9811 6.45657 13.0086 6.4379 13.0389 6.42516C13.0692 6.41242 13.1017 6.40585 13.1346 6.40585C13.1675 6.40585 13.2001 6.41242 13.2304 6.42516C13.2607 6.4379 13.2881 6.45657 13.3111 6.48006L14.1951 7.36406C14.3826 7.55161 14.6369 7.65701 14.9021 7.65706C14.9923 7.65697 15.0821 7.64486 15.1691 7.62106C15.3392 7.57326 15.4935 7.48128 15.6165 7.35445C15.7394 7.22763 15.8266 7.07051 15.8691 6.89906L17.2831 1.24206C17.3246 1.07495 17.3222 0.899963 17.2762 0.734043C17.2302 0.568123 17.1421 0.416891 17.0205 0.294991C16.8989 0.173091 16.7479 0.0846521 16.5821 0.0382385C16.4163 -0.00817508 16.2413 -0.0109913 16.0741 0.0300624L10.4171 1.44406C10.2455 1.48708 10.0884 1.57485 9.96185 1.6984C9.83525 1.82196 9.7437 1.97689 9.69653 2.14738C9.64936 2.31786 9.64825 2.49782 9.69333 2.66887C9.73841 2.83993 9.82806 2.99596 9.95313 3.12106L10.8371 4.00506C10.8604 4.0282 10.8788 4.0557 10.8914 4.08599C10.904 4.11628 10.9105 4.14876 10.9105 4.18156C10.9105 4.21436 10.904 4.24684 10.8914 4.27713C10.8788 4.30742 10.8604 4.33492 10.8371 4.35806L3.68913 11.5061C3.40786 11.7875 3.24991 12.1691 3.25 12.5669C3.25009 12.9648 3.40823 13.3463 3.68963 13.6276C3.97102 13.9088 4.35262 14.0668 4.75048 14.0667C5.14834 14.0666 5.52986 13.9085 5.81113 13.6271Z" fill="white"/>
<path d="M18.1888 10.3731L11.0418 17.5201C10.995 17.5668 10.9315 17.5931 10.8653 17.5931C10.7992 17.5931 10.7357 17.5668 10.6888 17.5201L9.80483 16.6351C9.67969 16.5098 9.52351 16.4199 9.35226 16.3748C9.18101 16.3296 9.00083 16.3307 8.83016 16.378C8.65948 16.4253 8.50443 16.5171 8.38085 16.644C8.25728 16.7708 8.16962 16.9282 8.12683 17.1001L6.71283 22.7581C6.67607 22.9055 6.67337 23.0593 6.70493 23.2079C6.73649 23.3565 6.80149 23.4959 6.89499 23.6156C6.98848 23.7353 7.10802 23.8322 7.24453 23.8988C7.38104 23.9654 7.53093 24.0001 7.68283 24.0001C7.76482 24.0001 7.84648 23.9897 7.92583 23.9691L13.5828 22.5551C13.7542 22.512 13.9111 22.4242 14.0376 22.3007C14.164 22.1772 14.2554 22.0225 14.3026 21.8521C14.3497 21.6818 14.3509 21.502 14.306 21.3311C14.2611 21.1602 14.1716 21.0042 14.0468 20.8791L13.1628 20.0001C13.1395 19.9769 13.1211 19.9493 13.1085 19.9189C13.0959 19.8885 13.0894 19.856 13.0894 19.8231C13.0894 19.7902 13.0959 19.7577 13.1085 19.7273C13.1211 19.6969 13.1395 19.6693 13.1628 19.6461L20.3108 12.4991C20.4501 12.3598 20.5606 12.1944 20.6359 12.0124C20.7112 11.8303 20.75 11.6353 20.75 11.4383C20.7499 11.2413 20.7111 11.0462 20.6356 10.8642C20.5602 10.6822 20.4497 10.5169 20.3103 10.3776C20.171 10.2383 20.0056 10.1279 19.8236 10.0525C19.6416 9.97719 19.4465 9.93843 19.2495 9.93848C19.0525 9.93852 18.8574 9.97737 18.6754 10.0528C18.4934 10.1282 18.3281 10.2388 18.1888 10.3781V10.3731Z" fill="white"/>
</g>
<defs>
<clipPath id="clip0_1203_4395">
<rect width="24" height="24" fill="white"/>
</clipPath>
</defs>
</svg>
