<svg width="24" height="24" viewBox="0 0 24 24" fill="none" xmlns="http://www.w3.org/2000/svg">
<path fill-rule="evenodd" clip-rule="evenodd" d="M2.07478 10.6329C8.24753 7.95214 12.3568 6.17086 14.4203 5.30668C20.2932 2.85522 21.5278 2.43194 22.3214 2.41431C22.4978 2.41431 22.8858 2.44958 23.1503 2.66122C23.3619 2.83758 23.4148 3.06685 23.4501 3.24322C23.4854 3.41958 23.5207 3.78995 23.4854 4.07213C23.1679 7.42305 21.7923 15.5534 21.0868 19.2924C20.787 20.8796 20.205 21.4087 19.6407 21.4616C18.4061 21.5675 17.4714 20.6504 16.2897 19.8744C14.4203 18.6574 13.3797 17.8991 11.5632 16.6998C9.46444 15.3242 10.8224 14.5658 12.0217 13.3313C12.3392 13.0138 17.7536 8.0756 17.8594 7.63469C17.877 7.58178 17.877 7.37014 17.7536 7.26432C17.6301 7.1585 17.4537 7.19378 17.3126 7.22905C17.1186 7.26432 14.1557 9.2396 8.38862 13.1372C7.54207 13.7193 6.7837 14.0014 6.09588 13.9838C5.33752 13.9662 3.89133 13.5605 2.79787 13.2078C1.47514 12.7845 0.416957 12.5552 0.505139 11.8145C0.558048 11.4265 1.08714 11.0385 2.07478 10.6329Z" fill="#404040"/>
</svg>
