<svg width="24" height="24" viewBox="0 0 24 24" fill="none" xmlns="http://www.w3.org/2000/svg">
<path d="M23.3196 6.44006C23.3907 6.38091 23.4441 6.30318 23.4737 6.21552C23.5033 6.12786 23.508 6.0337 23.4872 5.94352C23.4665 5.85335 23.4212 5.77069 23.3562 5.70476C23.2913 5.63882 23.2094 5.59219 23.1196 5.57006L22.3296 5.37006C22.2577 5.35208 22.1908 5.31836 22.1336 5.27135C22.0764 5.22435 22.0303 5.16522 21.9987 5.09824C21.9671 5.03126 21.9508 4.9581 21.951 4.88405C21.9511 4.81001 21.9677 4.73691 21.9996 4.67006L22.4396 3.78006C22.4811 3.69382 22.4971 3.59745 22.4855 3.50242C22.4739 3.40739 22.4352 3.31768 22.3741 3.24397C22.3131 3.17025 22.2321 3.11561 22.1409 3.08656C22.0497 3.0575 21.952 3.05525 21.8596 3.08006L19.8596 3.64006C19.785 3.66179 19.7065 3.66588 19.6301 3.65199C19.5537 3.63811 19.4816 3.60663 19.4196 3.56006C18.5541 2.91095 17.5014 2.56006 16.4196 2.56006C15.0935 2.56006 13.8217 3.08684 12.884 4.02452C11.9463 4.96221 11.4196 6.23398 11.4196 7.56006V7.92006C11.42 7.98148 11.3978 8.04091 11.3572 8.08702C11.3167 8.13313 11.2605 8.16269 11.1996 8.17006C8.38955 8.50006 5.69955 7.07006 2.79955 3.73006C2.73655 3.66058 2.65562 3.60982 2.56564 3.58335C2.47567 3.55689 2.38013 3.55575 2.28955 3.58006C2.20795 3.61757 2.13796 3.67636 2.08693 3.75027C2.0359 3.82417 2.00571 3.91046 1.99955 4.00006C1.59901 5.6454 1.76095 7.37748 2.45955 8.92006C2.48022 8.96097 2.48925 9.00678 2.48564 9.05248C2.48203 9.09818 2.46592 9.142 2.43908 9.17916C2.41224 9.21632 2.3757 9.24539 2.33346 9.26319C2.29122 9.28098 2.24489 9.28682 2.19955 9.28006L1.07955 9.06006C1.00001 9.04727 0.918564 9.05389 0.842135 9.07936C0.765706 9.10482 0.696561 9.14838 0.640588 9.20631C0.584614 9.26425 0.543468 9.33486 0.520654 9.41212C0.497839 9.48938 0.49403 9.57101 0.509552 9.65006C0.595891 10.4175 0.853726 11.1557 1.26397 11.81C1.67422 12.4643 2.22637 13.018 2.87955 13.4301C2.92182 13.4505 2.95747 13.4825 2.98241 13.5223C3.00735 13.5621 3.02058 13.6081 3.02058 13.6551C3.02058 13.702 3.00735 13.748 2.98241 13.7878C2.95747 13.8276 2.92182 13.8596 2.87955 13.8801L2.34955 14.0901C2.28519 14.1159 2.22689 14.1548 2.17838 14.2043C2.12986 14.2539 2.09218 14.313 2.06772 14.3778C2.04327 14.4427 2.03259 14.512 2.03634 14.5812C2.0401 14.6505 2.05822 14.7182 2.08955 14.7801C2.38264 15.4214 2.82691 15.9821 3.38425 16.414C3.94159 16.8459 4.59538 17.1363 5.28955 17.2601C5.33781 17.2776 5.37951 17.3095 5.40898 17.3516C5.43845 17.3936 5.45426 17.4437 5.45426 17.4951C5.45426 17.5464 5.43845 17.5965 5.40898 17.6385C5.37951 17.6806 5.33781 17.7125 5.28955 17.7301C3.92992 18.2924 2.47082 18.5747 0.999552 18.5601C0.866944 18.5335 0.729232 18.5608 0.61671 18.6358C0.504188 18.7108 0.426074 18.8274 0.399552 18.9601C0.373031 19.0927 0.400274 19.2304 0.475288 19.3429C0.550303 19.4554 0.666944 19.5335 0.799552 19.5601C3.3471 20.7683 6.12074 21.4259 8.93955 21.4901C11.419 21.5279 13.8543 20.8321 15.9396 19.4901C17.6548 18.3451 19.0601 16.7936 20.0302 14.9737C21.0003 13.1539 21.5051 11.1223 21.4996 9.06006V8.19006C21.5002 8.11745 21.5166 8.04584 21.5477 7.98022C21.5787 7.91459 21.6238 7.85653 21.6796 7.81006L23.3196 6.44006Z" fill="#29C5FF"/>
</svg>
