<svg width="24" height="25" viewBox="0 0 24 25" fill="none" xmlns="http://www.w3.org/2000/svg">
<path fill-rule="evenodd" clip-rule="evenodd" d="M15.0269 3.19968L19.2179 2.29958L19.6593 6.5749L23.5752 8.31571L21.4275 12.0323L23.5752 15.7488L19.6593 17.4896L19.2179 21.7649L15.0269 20.8648L12.1626 24.0645L9.29836 20.8648L5.10733 21.7649L4.66592 17.4896L0.75 15.7488L2.89774 12.0323L0.75 8.31571L4.66592 6.5749L5.10733 2.29958L9.29836 3.19968L12.1626 0L15.0269 3.19968ZM16.1855 8.53968C16.6087 8.85492 16.6969 9.45445 16.3825 9.87876L11.6174 16.3097C11.4629 16.5182 11.2305 16.6548 10.9735 16.6881C10.7166 16.7214 10.4572 16.6485 10.2549 16.4862L7.85226 14.559C7.4406 14.2288 7.37386 13.6265 7.70318 13.2137C8.03251 12.801 8.6332 12.734 9.04486 13.0642L10.6749 14.3718L14.85 8.73716C15.1644 8.31285 15.7623 8.22444 16.1855 8.53968Z" fill="#333333"/>
</svg>
