<svg xmlns="http://www.w3.org/2000/svg" preserveAspectRatio="xMinYMin meet" viewBox="0 0 500 500" shape-rendering="crispEdges" transform-origin="center"><rect width="100%" height="100%" fill="#340D07" /><g transform="scale (5 5)"><rect x="15" y="-1" width="69" height="9" stroke-width="0.3" stroke="black" fill="#FFA800" /><text x="50" y="5.5" width="60" font-family="monospace" font-size="5" text-anchor="middle">Landing of the Golem</text></g><rect x="70" y="70" width="360" height="20" fill="#5D0503" /><rect x="70" y="90" width="20" height="20" fill="#5D0503" /><rect x="190" y="90" width="240" height="20" fill="#5D0503" /><rect x="70" y="110" width="20" height="20" fill="#5D0503" /><rect x="190" y="110" width="240" height="20" fill="#5D0503" /><rect x="70" y="130" width="60" height="20" fill="#5D0503" /><rect x="150" y="130" width="20" height="20" fill="#5D0503" /><rect x="190" y="130" width="240" height="20" fill="#5D0503" /><rect x="70" y="150" width="20" height="20" fill="#5D0503" /><rect x="190" y="150" width="240" height="20" fill="#5D0503" /><rect x="70" y="170" width="20" height="20" fill="#5D0503" /><rect x="190" y="170" width="240" height="20" fill="#5D0503" /><rect x="70" y="190" width="20" height="20" fill="#5D0503" /><rect x="290" y="190" width="140" height="20" fill="#5D0503" /><rect x="70" y="210" width="20" height="20" fill="#5D0503" /><rect x="190" y="210" width="80" height="20" fill="#5D0503" /><rect x="290" y="210" width="140" height="20" fill="#5D0503" /><rect x="70" y="230" width="60" height="20" fill="#5D0503" /><rect x="210" y="230" width="60" height="20" fill="#5D0503" /><rect x="290" y="230" width="140" height="20" fill="#5D0503" /><rect x="70" y="250" width="40" height="20" fill="#5D0503" /><rect x="210" y="250" width="60" height="20" fill="#5D0503" /><rect x="290" y="250" width="140" height="20" fill="#5D0503" /><rect x="70" y="270" width="40" height="20" fill="#5D0503" /><rect x="210" y="270" width="20" height="20" fill="#5D0503" /><rect x="330" y="270" width="100" height="20" fill="#5D0503" /><rect x="70" y="290" width="40" height="20" fill="#5D0503" /><rect x="190" y="290" width="40" height="20" fill="#5D0503" /><rect x="330" y="290" width="100" height="20" fill="#5D0503" /><rect x="70" y="310" width="40" height="20" fill="#5D0503" /><rect x="310" y="310" width="120" height="20" fill="#5D0503" /><rect x="70" y="330" width="60" height="20" fill="#5D0503" /><rect x="190" y="330" width="100" height="20" fill="#5D0503" /><rect x="310" y="330" width="120" height="20" fill="#5D0503" /><rect x="70" y="350" width="60" height="20" fill="#5D0503" /><rect x="150" y="350" width="100" height="20" fill="#5D0503" /><rect x="330" y="350" width="100" height="20" fill="#5D0503" /><rect x="70" y="370" width="60" height="20" fill="#5D0503" /><rect x="330" y="370" width="100" height="20" fill="#5D0503" /><rect x="70" y="390" width="360" height="20" fill="#5D0503" /><rect x="70" y="410" width="360" height="20" fill="#5D0503" /><rect x="150" y="370" width="20" height="20" fill="#B75700" /><rect x="230" y="310" width="20" height="20" fill="#B75700" /><rect x="210" y="310" width="20" height="20" fill="#B75700" /><rect x="170" y="270" width="20" height="20" fill="#FF1800" /><rect x="150" y="210" width="20" height="20" fill="#FF1800" /><rect x="130" y="190" width="20" height="20" fill="#FF1800" /><rect x="90" y="190" width="20" height="20" fill="#FF1800" /></svg>