<svg width="160" height="160" viewBox="0 0 160 160" fill="none" xmlns="http://www.w3.org/2000/svg">
<g clip-path="url(#clip0_1621_4802)">
<g clip-path="url(#clip1_1621_4802)">
<path d="M0 0H160V160H0V0Z" fill="#FCF9EF"/>
<path d="M120 80C120 102.091 102.091 120 80 120C57.9086 120 40 102.091 40 80C40 57.9086 57.9086 40 80 40C102.091 40 120 57.9086 120 80Z" fill="#BE9D7B"/>
<g opacity="0.1">
<path d="M119.21 79.9998C119.209 95.8998 109.665 110.246 95.0005 116.391C80.336 122.536 63.4159 119.279 52.0801 108.13C62.4401 110.46 88.0801 111.13 101.9 93.8498C112.29 81.3798 110.21 60.6198 106.06 50.5898C114.439 58.0675 119.224 68.7692 119.21 79.9998Z" fill="#010101"/>
</g>
<path opacity="0.1" d="M78.0999 20.6006C59.8999 21.7005 45.5999 26.4005 45.9999 31.1006C46.3999 35.8006 61.4999 38.8006 79.6999 37.7005C97.8999 36.6005 112.2 31.9005 111.8 27.2005C111.4 22.5005 96.1999 19.5005 78.0999 20.6006ZM79.3999 35.1005C63.0999 36.0005 49.5999 34.0005 49.2999 30.5005C48.9999 27.0005 61.8999 23.4005 78.2999 22.4005C94.6999 21.4005 108.1 23.5005 108.4 27.0005C108.7 30.5005 95.7999 34.1005 79.3999 35.1005Z" fill="#1A925E"/>
<path d="M78.0999 19.6006C59.8999 20.7005 45.5999 25.4005 45.9999 30.1006C46.3999 34.8006 61.4999 37.8006 79.6999 36.7005C97.8999 35.6005 112.2 30.9005 111.8 26.2005C111.4 21.5005 96.1999 18.5005 78.0999 19.6006ZM79.3999 34.1005C63.0999 35.0005 49.5999 33.0005 49.2999 29.5005C48.9999 26.0005 61.8999 22.4005 78.2999 21.4005C94.6999 20.4005 108.1 22.5005 108.4 26.0005C108.7 29.5005 95.7999 33.1005 79.3999 34.1005Z" fill="#1EAC6F"/>
<path d="M46.7 67.2C46.7 67.2 38.3 67.8 36.8 74.9C36.8 74.9 28.3 75 24.7 81.3L16 84.9L16.2 87.9L33.6 106.7L35 111.6C35 111.6 39.2 116.5 44.3 117.2L51 110.5C51 110.5 50.6 105.5 48.6 104.7C46.6 103.9 41.3 101.2 40.3 101.3C39.3 101.4 34.3 88.7 34.3 88.7C34.3 88.7 46.3 95.4 50.9 82.5C50.9 82.4 59.7 67.7 46.7 67.2ZM117.1 67L117.6 67.2C120.9 68.1 123.4 70.7 124.3 74C124.3 74 132.8 73.9 136.5 80L145.4 83.4L145.3 86.4L128.4 105.7L127.2 110.7C127.2 110.7 126.1 113.7 121 114.4L111.2 110C111.2 110 111.4 105 113.5 104.1C115.6 103.2 120.7 100.4 121.7 100.5C122.7 100.6 127.3 87.7 127.3 87.7C127.3 87.7 122.9 90.3 118.3 89.4C120 78 118 74 117.1 67Z" fill="#1EAC6F"/>
<path opacity="0.1" d="M46.7001 67.1992C53.0001 70.1992 51.8001 81.6992 44.6001 80.1992C44.2001 83.0992 43.1001 87.2992 34.8001 86.1992C31.7001 86.9992 29.1001 87.3992 29.1001 87.3992L38.2001 102.199C44.1001 103.799 48.7001 106.499 51.0001 110.499C51.0001 110.499 50.6001 105.499 48.6001 104.699C46.6001 103.899 41.1001 101.199 40.1001 101.199C39.1001 100.799 34.2001 88.5992 34.2001 88.5992C34.2001 88.5992 46.2001 95.3992 50.9001 82.4992C50.8001 82.2992 59.7001 67.7992 46.7001 67.1992Z" fill="#010101"/>
<path opacity="0.15" d="M117.4 69.3984C117.4 69.3984 122.2 72.1984 123.2 76.1984C123.2 76.1984 130.2 77.1984 132.2 82.1984L135.2 83.1984L124.2 102.198L116.2 107.198C114.93 108.227 113.906 109.525 113.2 110.998L111.2 109.998C111.2 109.998 111.3 104.198 114.4 103.798C117 102.498 120.9 100.398 122 100.398C124.2 96.3984 125.7 91.9984 127.3 87.6984C124.584 89.2808 121.406 89.8811 118.3 89.3984C119.5 82.2984 119.1 76.2984 117.4 69.3984Z" fill="#010101"/>
<path opacity="0.6" d="M77 81C77 81 77 69 83 69C89 69 89 80.6 89 80.6C89 80.6 84 69 77 81ZM101 80.5C101 80.5 101 69.5 106.5 69.5C112 69.5 112 80.1 112 80.1C112 80.1 107.4 69.5 101 80.5Z" fill="#010101"/>
<path d="M75 85.4004H113.3C113.3 85.4004 112.2 108.5 93.9 108.5C88.9 108.7 84.2 106.6 81 102.7C75.2 95.9004 75 85.4004 75 85.4004Z" fill="#603813"/>
<path d="M108.1 100.8C104.937 105.514 99.5739 108.272 93.9 108.1C88.9 108.3 84.2 106.2 81 102.3C75.2 95.5002 112.9 94.0002 108.1 100.8Z" fill="#F15A24"/>
<path d="M75 85H113.3C113.2 87.5 112.8 90 112 92.3C112 92.3 89.5 96.5 76.1 92C75.4832 89.7129 75.1144 87.3661 75 85Z" fill="white"/>
<path d="M97.0001 122.5C97.0001 122.5 94.2001 128 91.5001 130C90.3001 130.8 89.2001 131.8 88.1001 132.7V137.1C88.1001 137.5 98.3001 134.1 97.0001 122.5Z" fill="#6D4716"/>
<path d="M97.5999 122.5C97.5999 122.5 92.1999 121.1 88.6999 124.5C85.1999 127.9 85.2999 132.7 87.2999 132.7C89.2999 132.7 89.4999 133.4 97.5999 122.5Z" fill="#C39E76"/>
<path d="M123.5 106.801C123.5 106.801 118.7 98.6005 104.4 106.101C90.1002 113.601 101.7 129.301 88.7002 136.801C88.7002 136.801 92.1002 141.101 97.1002 130.901C101.8 121.601 101.7 106.201 123.5 106.801Z" fill="#99671D"/>
<path d="M88.8002 136.799C88.8002 136.799 94.9002 139.499 99.0002 125.899C103.1 112.299 107.9 104.099 119.4 104.799C121 104.799 122.6 105.399 123.8 106.499C129.4 111.499 125.1 126.099 119.4 130.699C112.6 136.099 97.6002 141.599 91.5002 139.599C85.4002 137.599 88.8002 136.799 88.8002 136.799Z" fill="#444444"/>
<path d="M87.7998 117.2L88.7998 124.6C90.6998 123.2 92.3998 122.3 93.7998 122.3L93.1998 116.1C91.3998 116.6 89.5998 116.9 87.7998 117.2Z" fill="#1EAC6F"/>
<path d="M122.2 110.6H110.6C110.3 110.6 110.1 110.4 110.1 110.1V110C110.1 109.7 110.3 109.5 110.6 109.5H122.2C122.5 109.5 122.7 109.7 122.7 110V110.1C122.7 110.4 122.5 110.6 122.2 110.6ZM123.3 113.8H108.6C108.3 113.8 108.1 113.6 108.1 113.3V113.2C108.1 112.9 108.3 112.7 108.6 112.7H123.3C123.6 112.7 123.8 112.9 123.8 113.2V113.3C123.8 113.6 123.5 113.8 123.3 113.8ZM123.3 116.9H105.4C105.1 116.9 104.9 116.7 104.9 116.4V116.3C104.9 116 105.1 115.8 105.4 115.8H123.3C123.6 115.8 123.8 116 123.8 116.3V116.4C123.8 116.7 123.5 116.9 123.3 116.9ZM122.2 120.1H104.3C104 120.1 103.8 119.9 103.8 119.6V119.5C103.8 119.2 104 119 104.3 119H122.2C122.5 119 122.7 119.2 122.7 119.5V119.6C122.7 119.8 122.5 120.1 122.2 120.1ZM121.1 123.2H103.2C102.9 123.2 102.7 123 102.7 122.7V122.6C102.7 122.3 102.9 122.1 103.2 122.1H121.1C121.4 122.1 121.6 122.3 121.6 122.6V122.7C121.6 123 121.4 123.2 121.1 123.2ZM119.1 126.4H101.2C100.9 126.4 100.7 126.2 100.7 125.9V125.8C100.7 125.5 100.9 125.3 101.2 125.3H119.1C119.4 125.3 119.6 125.5 119.6 125.8V125.9C119.6 126.1 119.3 126.4 119.1 126.4ZM117 129.5H101.2C100.9 129.5 100.7 129.3 100.7 129C100.7 128.7 100.9 128.5 101.2 128.5H117C117.3 128.5 117.5 128.7 117.5 129V129.1C117.5 129.3 117.2 129.5 117 129.5ZM112.8 132.7H99.1C98.8 132.7 98.6 132.5 98.6 132.2V132.1C98.6 131.8 98.8 131.6 99.1 131.6H112.8C113.1 131.6 113.3 131.8 113.3 132.1V132.2C113.3 132.4 113 132.7 112.8 132.7ZM107.5 135.8H98C97.7 135.8 97.5 135.6 97.5 135.3V135.2C97.5 134.9 97.7 134.7 98 134.7H107.5C107.8 134.7 108 134.9 108 135.2V135.3C108 135.6 107.8 135.8 107.5 135.8Z" fill="#1EAC6F"/>
<path d="M63.0001 123.5C63.0001 123.5 60.2001 129 57.5001 131C56.3001 131.8 55.2001 132.8 54.1001 133.7V138.1C54.1001 138.5 64.3001 135.1 63.0001 123.5Z" fill="#6D4716"/>
<path d="M60.3002 113L58.2002 124.3C60.1002 122.9 60.9002 124 62.3002 124L64.5002 114.8C62.5002 114.4 61.6002 113.4 60.3002 113Z" fill="#1EAC6F"/>
<path d="M63.5998 123.5C63.5998 123.5 58.0998 122.1 54.6999 125.5C51.2998 128.9 51.2998 133.7 53.2998 133.7C55.2998 133.7 55.4998 134.4 63.5998 123.5Z" fill="#C39E76"/>
<path d="M89.5002 107.801C89.5002 107.801 84.7002 99.6005 70.4002 107.101C56.1002 114.601 67.7002 130.301 54.7002 137.801C54.7002 137.801 58.3002 141.801 63.1002 131.801C67.7002 122.501 67.7002 107.201 89.5002 107.801Z" fill="#99671D"/>
<path d="M54.8001 137.799C54.8001 137.799 60.9001 140.499 65.0001 126.899C69.1001 113.299 73.9001 105.099 85.4001 105.799C87.0001 105.799 88.6001 106.399 89.8001 107.499C95.4001 112.499 91.1001 127.099 85.4001 131.699C78.6001 137.099 63.6001 142.599 57.4001 140.599C51.2001 138.599 54.8001 137.799 54.8001 137.799Z" fill="#444444"/>
<path d="M88.2 111.6H76.6C76.3 111.6 76.1 111.4 76.1 111.1V111C76.1 110.7 76.3 110.5 76.6 110.5H88.2C88.5 110.5 88.7 110.7 88.7 111V111.1C88.7 111.4 88.5 111.6 88.2 111.6ZM89.3 114.8H74.5C74.2 114.8 74 114.6 74 114.3V114.2C74 113.9 74.2 113.7 74.5 113.7H89.2C89.5 113.7 89.7 113.9 89.7 114.2V114.3C89.8 114.6 89.5 114.8 89.3 114.8ZM89.3 117.9H71.4C71.1 117.9 70.9 117.7 70.9 117.4V117.3C70.9 117 71.1 116.8 71.4 116.8H89.3C89.6 116.8 89.8 117 89.8 117.3V117.4C89.8 117.7 89.5 117.9 89.3 117.9ZM88.2 121.1H70.3C70 121.1 69.8 120.9 69.8 120.6V120.5C69.8 120.2 70 120 70.3 120H88.2C88.5 120 88.7 120.2 88.7 120.5V120.6C88.7 120.8 88.5 121.1 88.2 121.1ZM87.1 124.2H69.3C69 124.2 68.8 124 68.8 123.7V123.6C68.8 123.3 69 123.1 69.3 123.1H87.2C87.5 123.1 87.7 123.3 87.7 123.6V123.7C87.6 124 87.4 124.2 87.1 124.2ZM85.1 127.4H67.2C66.9 127.4 66.7 127.2 66.7 126.9V126.8C66.7 126.5 66.9 126.3 67.2 126.3H85.1C85.4 126.3 85.6 126.5 85.6 126.8V126.9C85.6 127.1 85.3 127.4 85.1 127.4ZM83 130.5H67.2C66.9 130.5 66.7 130.3 66.7 130C66.7 129.7 66.9 129.5 67.2 129.5H83C83.3 129.5 83.5 129.7 83.5 130V130.1C83.5 130.3 83.2 130.5 83 130.5ZM78.8 133.7H65.1C64.8 133.7 64.6 133.5 64.6 133.2V133.1C64.6 132.8 64.8 132.6 65.1 132.6H78.8C79.1 132.6 79.3 132.8 79.3 133.1V133.2C79.3 133.4 79 133.7 78.8 133.7ZM73.5 136.8H64C63.7 136.8 63.5 136.6 63.5 136.3V136.2C63.5 135.9 63.7 135.7 64 135.7H73.5C73.8 135.7 74 135.9 74 136.2V136.3C74 136.6 73.8 136.8 73.5 136.8Z" fill="#1EAC6F"/>
</g>
</g>
<defs>
<clipPath id="clip0_1621_4802">
<rect width="160" height="160" fill="white"/>
</clipPath>
<clipPath id="clip1_1621_4802">
<rect width="160" height="160" fill="white"/>
</clipPath>
</defs>
</svg>
