<?xml version="1.0" encoding="utf-8"?>
<svg xmlns="http://www.w3.org/2000/svg" height="160" viewBox="0 0 160 160" width="160">
<defs>
    <clipPath id="hexagon-clip-138">
<path d="M251.6 17.34l63.53 110.03c5.72 9.9 5.72 22.1 0 32L251.6 269.4c-5.7 9.9-16.27 16-27.7 16H96.83c-11.43 0-22-6.1-27.7-16L5.6 159.37c-5.7-9.9-5.7-22.1 0-32L69.14 17.34c5.72-9.9 16.28-16 27.7-16H223.9c11.43 0 22 6.1 27.7 16z" transform="scale(0.5) translate(0, 16)"/>
</clipPath>
  </defs>
<g clip-path="url(#hexagon-clip-138)">
<g color="#D94432" fill="#5961A8">
<rect fill="#FC8702" height="160" width="160" x="0" y="0"/>
<circle cx="80" cy="80" fill="#D94432" r="40"/>
<g fill="#010101" opacity=".1">
        <path d="M119.21,80a39.46,39.46,0,0,1-67.13,28.13c10.36,2.33,36,3,49.82-14.28,10.39-12.47,8.31-33.23,4.16-43.26A39.35,39.35,0,0,1,119.21,80Z"/>
      </g>
<path d="M40.1 78.3S52 55.6 84.4 54.8c28.2-1.9 33.6 16.1 33.6 16.1 33.1-25 2.8-38.9 2.8-38.9a22.3 22.3 0 01-14.3 17.4C76.4 56.7 59 42.8 59 42.8s-10.5-12.1-21.2-9.2c-.1.3-10.2 1.5-12.4 15.5a26.4 26.4 0 0014.7 29.2z" fill="#743a4b"/>
      <path d="M40.9 33c-2.7.4-5.8.8-5.8 6.2 0 2.7 3.2 5.9 7.6 8.6 4.4 2.7 9.3 4.7 14.3 5.9l6.4 1.2c13.7-2.8 25.9-4.8 37.9-.9 0 0 31.8-12.8 21.3-20.8-4.2-3.8-11.4 1.8-16.7 5-3.4 2-5.9.9-5.9.9s-1.2-7.7-2-10.2c-2-6.6-5.8-13.8-23.8-13.8S58.9 26.3 58.9 26.3l.1 13.2c-1.7 0-4.4-1.1-7.7-3.1 0 0-5.5-3.7-10.4-3.4z" fill="#93505c"/>
      <path d="M39.6 77.7s15-22.9 44.3-23.5c29.3-.6 34.2 16.1 34.2 16.1L123 67s-19-17.3-40-15c-34.8 2.3-48.5 21.9-48.5 21.9z" opacity=".6"/>
      <path d="M82 15.8S59.7 11 58.8 24.2l.4 15c3.4.2 6.8 0 10.1-.6V25.4c.1 0-1.4-9.7 12.7-9.6z" fill="#743a4b"/>
<g fill="currentColor">
        <path d="M40.5 74a6.8 6.8 0 01-5.5-3c-3-5-16-11-21-11s3 8.5 3 8.5 0 1.2 2 2.4c2 1.3 4 1.3 2 1.3s-3 0-2 2.4 4 2.4 4 8.5-10 13.4-8 14.6c2 1.2 7-1.2 11-4.9 4-3.6 8-13.3 14-12.1 5-.7 3.3-6.5.5-6.8zM53.4 81.6s19.2 4.6 15.5 6.2-20.6 6.5-29 1.5-1.3 2.7 13.5-7.7zM119.4 80.4a35 35 0 01-2.3 10.4s16.6-3.8 20.8-8.4c7.1-7.9 2.6 2-18.5-2z"/>
      </g>
      <g fill="#010101" opacity=".1">
        <path d="M28 84.1C25 91 13 96.5 15 97.7c2 1.2 7-1.2 11-4.9 4-3.6 8-13.3 14-12.1 3.3-.5 3.7-3.2 2.7-5a2 2 0 00-1.9-1.1C43 79 30 78 28 84.1zM65.6 85.1s4.7 2 3.3 2.7c-3.6 1.5-20.6 6.5-29 1.5l-3.2-1.6c7.4 4.1 33.1-1.5 28.9-2.6z"/>
      </g>
      <path d="M22 66s5 0 10 5 2 6 2 6-7 2-8 7 3-14-4-18zM53.6 81.5l12 3.4c-7.5 2.2-16 3-25.4 2.9 0 0 7.9-2.4 13.4-6.3zM119 80.4l-.7 6s12.1-3.1 18.5-5.4c0 0-9.8 1-17.7-.6z"/>
<g fill="#010101" opacity=".6">
        <path d="M77 76s0-12 6-12 6 11.59 6 11.59S84 64 77 76zM101 75.5s0-11 5.5-11 5.5 10.62 5.5 10.62-4.58-10.62-11 .38zM95.33 95.09q-.77 0-1.5-.06c-.88-.06-1.28 5.36-2.55 5.67s-1.72-6.38-2.54-6.63c-2.37-.72-6.48-1.76-8.26-2.91-4-2.59-4.42-5.74-4.42-7 0-2.38 7.46 5.42 19 5.42h.46c7.89 0 12.78-2.53 13.65-3s2.39-.65 2.39 1.6c0 1.09-1.85 2.77-4.69 4.21-.73.37-.86 8.43-2.38 8.05s-1.73-6.39-2.65-6.14a24.2 24.2 0 01-6.51.79z"/>
      </g>
      <g fill="#fff">
        <path d="M87.93 88.54l2.57 11.38s.46 1.92 1.48 0 2.5-10.4 2.5-10.4a26.66 26.66 0 01-6.55-.98zM100.84 89.13l2.81 10.21s1.22 2.34 1.78 0 1.77-11.89 1.77-11.89-1.51.82-6.36 1.68z"/>
      </g>
      <g opacity=".05">
        <path d="M91 91.51s1.19-.51 0 8.41c0 0 0 1.08 1 0 .8-1.92 2.48-10.4 2.48-10.4a19.21 19.21 0 01-4.36-.45zM103.45 90.8s1.07-.72 1.5 8.27a.87.87 0 00.23.43c.16.14 1.69-11.63 1.69-11.63a48.16 48.16 0 01-4.72 1.68z"/>
      </g>
<path d="M101.62 127.8c.63-6.9-.75-8.88-.75-8.88s-1.62-10.24-6.44-12.83c-3.13-1.78-5.67-1.83-7.93-1.11-2.13.02-4.18.67-6.02 1.87-.11.08-.33.14-.45.22a34.1 34.1 0 01-13.18-2.97 15.6 15.6 0 00-9.95-1.16c-4.7.17-10.04 2.77-11.13 12.84-1.84 16.53 6.55 24.13 6.55 24.13 3.75 4.02 10.66 6.88 16.22 5.33 2.43.03 4.73-.88 6.62-2.37 0 0 4.13-6.07 10.02-7.76l.31-.04c2.71.18 5.48.06 8.11-.48 4.51-.21 7.52-1.7 8.02-6.8z" fill="#fd9727"/>
      <path d="M69.43 143.67a9.66 9.66 0 01-3.8 1.97c.92-.04 1.85-.18 2.71-.43 2.44.02 4.73-.89 6.62-2.38 0 0 4.04-6.08 10.02-7.75-.92.03-1.86.17-2.81.4-7.34.12-12.74 8.2-12.74 8.2zm32.19-15.88c.63-6.9-.75-8.87-.75-8.87s-1.62-10.25-6.44-12.84c-3.14-1.77-5.67-1.82-7.93-1.1-.92.03-1.86.17-2.72.42 1.81.12 3.55.64 5.12 1.52 4.82 2.6 6.44 12.84 6.44 12.84s1.37 1.97.75 8.87c-.4 3.99-2.33 5.68-5.32 6.46.92-.03 1.86-.17 2.82-.4 4.52-.32 7.53-1.81 8.03-6.9zm-34.87-23.7a15.6 15.6 0 00-9.95-1.17c-.92.04-1.86.17-2.82.4 2.45-.06 5 .5 7.14 1.59 3.05 1.66 12.3 3.92 16 2.55 1.1.1 2.25-.1 3.26-.63-.12.08-.33.14-.45.22a34.1 34.1 0 01-13.18-2.96z" opacity=".8"/>
      <circle cx="100.63" cy="105.12" fill="#33221f" r="5.7" transform="rotate(10.13)"/>
      <path d="M113.02 114.08l-28.18 3.66a5.7 5.7 0 011.08 4.45 5.7 5.7 0 01-.46 1.4l28.34-3.68c.41-.03.7-.48.67-.9l-.56-4.26c-.03-.4-.48-.7-.9-.67z" fill="#543933"/>
      <path d="M68.41 115.25l2.59 15.1-3.56.58-.3-1.78c-.93.13-1.92-.55-2.06-1.49l.02-.1c-.3-1.78-1.54-7.9-1.54-7.9.12-.68.74-1.28 1.38-1.47l-.18-2.37z"/>
      <path d="M118.97 110.88l6.87-.9a4.98 4.98 0 015.54 4.24l.12 1.03a4.98 4.98 0 01-4.24 5.54l-6.87.91a4.98 4.98 0 01-5.54-4.24l-.12-1.04a4.98 4.98 0 014.24-5.54z" fill="#fd9727"/>
      <path d="M118.97 110.88l6.87-.9a4.98 4.98 0 015.54 4.24l.12 1.03a4.98 4.98 0 01-4.24 5.54l-6.87.91a4.98 4.98 0 01-5.54-4.24l-.12-1.04a4.98 4.98 0 014.24-5.54z" opacity=".2"/>
      <path d="M116.62 110.97s-.59-1.83.96-1.96c1.55-.13 1.33 1.66 1.33 1.66zm3.59 10.6s.49 1.81-.96 1.96c-1.45.15-1.33-1.66-1.33-1.66zm4.13-.38s.49 1.81-.96 1.96c-1.45.15-1.33-1.66-1.33-1.66zm3.54-.49s.5 1.82-.96 1.96c-1.45.15-1.33-1.66-1.33-1.66zm-7.11-10.2s-.59-1.84.96-1.97c1.55-.13 1.33 1.66 1.33 1.66zm4.13-.39s-.59-1.83.96-1.96c1.55-.13 1.33 1.66 1.33 1.66z" fill="#543933"/>
      <path d="M118.09 110.72l6.86-.9a4.98 4.98 0 015.54 4.24l.12 1.04a4.98 4.98 0 01-4.24 5.54l-6.87.9a4.98 4.98 0 01-5.54-4.24l-.12-1.04a5.07 5.07 0 014.25-5.54z" fill="#fd9727"/>
      <path d="M117.51 113.36l8.53-1.11c.31-.05.57.2.62.51.05.32-.2.58-.52.62l-8.53 1.12c-.3.04-.57-.2-.61-.52-.05-.31.2-.57.51-.62zm1.07 4.26l8.53-1.12c.31-.04.57.2.62.52.04.31-.2.57-.52.62l-8.53 1.11c-.31.05-.57-.2-.62-.51-.06-.22.2-.58.52-.62z"/>
</g>
</g>
</svg>