<?xml version="1.0" encoding="utf-8"?>
<svg xmlns="http://www.w3.org/2000/svg" height="160" viewBox="0 0 160 160" width="160">
<defs>
    <clipPath id="hexagon-clip-85">
<path d="M251.6 17.34l63.53 110.03c5.72 9.9 5.72 22.1 0 32L251.6 269.4c-5.7 9.9-16.27 16-27.7 16H96.83c-11.43 0-22-6.1-27.7-16L5.6 159.37c-5.7-9.9-5.7-22.1 0-32L69.14 17.34c5.72-9.9 16.28-16 27.7-16H223.9c11.43 0 22 6.1 27.7 16z" transform="scale(0.5) translate(0, 16)"/>
</clipPath>
  </defs>
<g clip-path="url(#hexagon-clip-85)">
<g color="#5961A8" fill="#21BCA5">
<rect fill="#0582CA" height="160" width="160" x="0" y="0"/>
<circle cx="80" cy="80" fill="#5961A8" r="40"/>
<g fill="#010101" opacity=".1">
        <path d="M119.21,80a39.46,39.46,0,0,1-67.13,28.13c10.36,2.33,36,3,49.82-14.28,10.39-12.47,8.31-33.23,4.16-43.26A39.35,39.35,0,0,1,119.21,80Z"/>
      </g>
<path d="M43.5 62.2s-7.5-.2-9.4-3.8c-.2-1.1-.2-2.3-.1-3.5a45.7 45.7 0 0147-37c32 1 44 33 42 43-1 3-6 5-7.6 3.5C111 57 99.9 53.4 83 54c-32 0-39.5 8.2-39.5 8.2z" fill="#fff"/>
      <path d="M83 20s16 8 18 25l-6 10c15 0 21 10 21 10s5 0 7-4.3c.7-5 .1-14.2-11.1-28.2 0 0-10.9-13.5-28.9-14.5 0 0-4 1 0 2z" opacity=".05"/>
      <path d="M43.6 61.9s-7.5-.1-9.2-3.6c-1.4-2 14.7-11.9 47-11.3s43.4 11.7 41.4 14.1c-2 4.1-7.5 3.9-7.5 3.9 0-.7-2.6-11.9-31.9-10.6-34.4.6-39.8 7.5-39.8 7.5z" opacity=".2"/>
      <g opacity=".1">
        <path d="M34.8 57.7s4.9 4.1 7 4.3l1.2-.6-7.3-4.7-.9 1zM41 53.2l7.7 5.8 2.3-.8-7.4-6zM54.6 49.2l5.1 7.4 3.2-.6-4.7-7.5zM70.4 47.2l2.3 7.6 2.9-.2-1-7.6zM89.1 47.3l-1.3 7.1 2.8.1 2.3-6.8zM105.2 49.9l-3.8 6.1 2.4.7 4.3-6zM118.9 55.6l-7.6 4.1 2.5 1.6 8-3.2z"/>
      </g>
      <ellipse cx="96.2" cy="32.5" rx="8.2" ry="9.5"/>
      <path d="M122.2 51.8a9.5 9.5 0 01-7.5-6c-1.1-2.9-.9-6.1.7-8.8 3.1 4.4 5.5 9.4 6.8 14.8zM52.9 32.2c-1.8 5-6.6 7.7-10.9 6.2l-1-.5s5-8 11.8-12c.8 2.1.8 4.3.1 6.3zM81.1 23.6c-1.3 5.1-5.9 8.3-10.3 7.1s-6.7-5.9-5.7-10.8C71 18 74 18 80.7 18a9 9 0 01.4 5.6zM50 50.2V50a9.3 9.3 0 019.5-9c4-.1 7.6 2.4 9 6.1A80.4 80.4 0 0050 50.2z"/>
<path d="M124.6 80.7s20 .3 18.6-12.5c0 0 9.6 11.1 1 20.9s-27.3 6.1-27.3 6.1l7.7-14.5z" fill="#fff"/>
      <path d="M143.2 68.2c.3 13.7-20.2 12.1-20.2 12.1l-1.2 5.7-4.9 9.2s18.7 3.6 27.3-6.1-1-20.9-1-20.9z" fill="#fff"/>
      <path d="M143.2 68.2c8.4 22.4-21.7 19.4-21.7 19.4l.3-1.7-4.9 9.2s18.7 3.6 27.3-6.1-1-20.8-1-20.8z" opacity=".1"/>
      <path d="M118.5 75s7.1 1 7.3 11.2-11 11.8-11 11.8a39.6 39.6 0 003.7-23zM38.2 78.1l9.6-4s8.6.9 9.5 11.4-5.5 12.9-5.5 12.9l-10.3.2s-4.5-3.1-5.2-11.3 1.9-9.2 1.9-9.2z"/>
      <g fill="#fff">
        <path d="M38.2 78.1l9.6-4c5 1.5 9 4.3 9.5 11.4-.8-1.6-2.3-2.3-4.5-2.2L48 84.4l-5.7 1.4-5.9 1.4c.4-5-.1-7.3 1.8-9.1z" opacity=".1"/>
        <ellipse cx="42" cy="88.2" opacity=".16" rx="4.9" ry="9.1" transform="rotate(-4.6 42 88.2)"/>
        <path d="M41.7 80.6s-15.6 2.1-20-2.9-.2-13.9-.2-13.9-11.1 6.4-10 19 25 13.8 30.3 12.4c0 0 3.6-1.8 3.3-7.5 0-5.8-3.4-7.1-3.4-7.1z"/>
        <path d="M41.7 80.6s-15.6 2.1-20-2.9-.2-13.9-.2-13.9-11.1 6.4-10 19 25 13.8 30.3 12.4c0 0 3.6-1.8 3.3-7.5 0-5.8-3.4-7.1-3.4-7.1z" opacity=".3"/>
      </g>
      <path d="M45 87.7c-15.9 3.8-39.8-2.6-23.5-23.8 0 0-11.1 6.4-10 19s25 13.8 30.3 12.4c0 0 3.6-1.8 3.2-7.6z" opacity=".3"/>
<path d="M85.2 94h21.2s-.6 11-10.8 11c-2.6.1-5.2-.9-7.1-2.7-3.2-3.3-3.3-8.3-3.3-8.3z" fill="#603813"/>
      <path d="M103.5 101.3a10 10 0 01-7.9 3.5c-2.6.1-5.2-.9-7.1-2.7-3.2-3.3 17.7-4 15-.8z" fill="#f15a24"/>
      <path d="M82.2 82.4s-10-4.9-8.5-11.4 10.1-.7 9.5-.9 6.2-5.4 8.5.8c1.7 6.1-7.9 12.5-9.5 11.5zM107 82.4s-8.5-4.9-7.2-11.4c1.2-6.5 8.6-.7 8-.9-.4-.2 5.4-5.4 7.3.8 1.5 6.1-6.7 12.5-8 11.5z"/>
      <g fill="#010101" opacity=".1">
        <path d="M82.2 82.4s-10-4.9-8.5-11.4 10-.6 9.5-.9c-7.2-4-7.5 8.6-1 12.3zM107 82.4s-8.6-4.9-7.3-11.4c1.3-6.5 8.5-.6 8-.9-6-4-6.3 8.6-.8 12.3z"/>
      </g>
<g fill="currentColor">
        <path d="M64.7 115.9s-2.8 10.7-11.2 12.9c-5 1.3-10.3.5-14.6-2.2 0 0-3.9-1.1-1.7 2.8s8.4 11.8 25.8 5.6 18-16.9 18-16.9-11.2 1.2-16.3-2.2z"/>
        <path d="M58 112s-6.2 13.5-15.2 3.9c0 0-5.6-5.6-3.4 1.1s11.1 18.7 30.3.9c0 .1-7.8-2-11.7-5.9zM94.8 115.9s2.8 10.7 11.2 12.9c5 1.3 10.3.5 14.6-2.2 0 0 3.9-1.1 1.7 2.8s-8.4 11.8-25.9 5.6-18-16.9-18-16.9 11.3 1.2 16.4-2.2z"/>
        <path d="M101.5 112s6.2 13.5 15.2 3.9c0 0 5.6-5.6 3.4 1.1s-11.2 18.7-30.3.9c-.1.1 7.8-2 11.7-5.9z"/>
      </g>
      <ellipse cx="45.9" cy="121.6" rx="1.4" ry="1.8" transform="rotate(-65 46 121.6)"/>
      <ellipse cx="51" cy="122.3" rx="1.8" ry="1.4" transform="rotate(-2.5 51 122.3)"/>
      <ellipse cx="55.6" cy="121.1" rx="1.4" ry="1.1" transform="rotate(-27.5 55.6 121)"/>
      <ellipse cx="58.4" cy="118.6" rx="1.4" ry="1.1" transform="rotate(-47.8 58.4 118.6)"/>
      <ellipse cx="113.5" cy="121.6" rx="1.8" ry="1.4" transform="rotate(-25 113.5 121.6)"/>
      <ellipse cx="108.5" cy="122.3" rx="1.4" ry="1.8" transform="rotate(-87.5 108.5 122.3)"/>
      <ellipse cx="103.9" cy="121.1" rx="1.1" ry="1.4" transform="rotate(-62.5 103.9 121.1)"/>
      <ellipse cx="101.1" cy="118.6" rx="1.1" ry="1.4" transform="rotate(-42.2 101 118.6)"/>
      <path d="M58 112s-6.2 13.5-15.2 3.9c0 0-5.6-5.6-3.4 1.1s11.1 18.7 30.3.9c0 .1-7.8-2-11.7-5.9z" fill="#010101" opacity=".3"/>
      <g fill="#010101" opacity=".2">
        <path d="M101.5 112s6.2 13.5 15.2 3.9c0 0 5.6-5.6 3.4 1.1s-11.2 18.7-30.3.9c-.1.1 7.8-2 11.7-5.9zM64.7 115.9s-2.8 10.7-11.2 12.9c-5 1.3-10.3.5-14.6-2.2 0 0-3.9-1.1-1.7 2.8s8.4 11.8 25.8 5.6 18-16.9 18-16.9-11.2 1.2-16.3-2.2z"/>
        <path d="M94.8 115.9s2.8 10.7 11.2 12.9c5 1.3 10.3.5 14.6-2.2 0 0 3.9-1.1 1.7 2.8s-8.4 11.8-25.9 5.6-18-16.9-18-16.9 11.3 1.2 16.4-2.2z"/>
      </g>
      <g fill="currentColor">
        <path d="M62.5 114.8s-1.7 14.6-7.3 14.6c0 0-2.2 0-3.9-2.8s-3.4-2.2-2.8.6S50.7 139.6 62 139s15.7-11.2 15.7-17.4v-3.2c-.1 0-9.6.3-15.2-3.6zM97 114.8s1.7 14.6 7.3 14.6c0 0 2.2 0 3.9-2.8s3.4-2.2 2.8.6-2.2 12.4-13.5 11.8-15.7-11.2-15.7-17.4v-3.2s9.6.3 15.2-3.6z"/>
      </g>
      <ellipse cx="64.1" cy="128.3" rx="2.2" ry="1.7" transform="rotate(-37.1 64.1 128.3)"/>
      <ellipse cx="58.5" cy="131.1" rx="2.2" ry="1.7" transform="rotate(-9.5 58.5 131.1)"/>
      <ellipse cx="68" cy="123.8" rx="1.8" ry="1.3" transform="rotate(-62.1 68 123.8)"/>
      <ellipse cx="69.1" cy="119.3" rx="1.8" ry="1.3" transform="rotate(-82.4 69 119.3)"/>
      <ellipse cx="95.3" cy="128.3" rx="1.7" ry="2.2" transform="rotate(-52.9 95.3 128.3)"/>
      <ellipse cx="100.9" cy="131.1" rx="1.7" ry="2.2" transform="rotate(-80.5 101 131.1)"/>
      <ellipse cx="91.5" cy="123.8" rx="1.3" ry="1.8" transform="rotate(-27.9 91.5 123.8)"/>
      <ellipse cx="90.4" cy="119.3" rx="1.3" ry="1.8" transform="rotate(-7.6 90.4 119.3)"/>
</g>
</g>
</svg>