<?xml version="1.0" encoding="utf-8"?>
<svg xmlns="http://www.w3.org/2000/svg" height="160" viewBox="0 0 160 160" width="160">
<defs>
    <clipPath id="hexagon-clip-195">
<path d="M251.6 17.34l63.53 110.03c5.72 9.9 5.72 22.1 0 32L251.6 269.4c-5.7 9.9-16.27 16-27.7 16H96.83c-11.43 0-22-6.1-27.7-16L5.6 159.37c-5.7-9.9-5.7-22.1 0-32L69.14 17.34c5.72-9.9 16.28-16 27.7-16H223.9c11.43 0 22 6.1 27.7 16z" transform="scale(0.5) translate(0, 16)"/>
</clipPath>
  </defs>
<g clip-path="url(#hexagon-clip-195)">
<g color="#0582CA" fill="#21BCA5">
<rect fill="#88B04B" height="160" width="160" x="0" y="0"/>
<circle cx="80" cy="80" fill="#0582CA" r="40"/>
<g fill="#010101" opacity=".1">
        <path d="M119.21,80a39.46,39.46,0,0,1-67.13,28.13c10.36,2.33,36,3,49.82-14.28,10.39-12.47,8.31-33.23,4.16-43.26A39.35,39.35,0,0,1,119.21,80Z"/>
      </g>
<path d="M45 55l-6-18.8s4 8.9 11 6.8 8-17.1 8-17.1 3 12.4 11 12.2S79.5 24 79.5 24 83 37 88 37c10.1 0 13-12.1 13-12.1s3 16 8 16c3.1-.1 6-1.4 8-3.8l-6 15c0 .1-49-5.6-66 2.9z" fill="#ffe000"/>
      <path d="M45 55c30-2.7 51.9-8.9 56-30.1 0 0 3 16 8 16 3.1-.1 6-1.4 8-3.8l-6 15c0 .1-49-5.6-66 2.9z" opacity=".05"/>
      <path d="M44.5 62.2A70.3 70.3 0 0183 51c23 0 27.2 3.9 27.2 3.9l3.2 4.4s3.1 3.2 5.1-.8-3-12-18-15-42 0-54 7-7 15-5 15H43l1.5-3.3z" fill="#c69757"/>
      <path d="M44.5 62.7A70.3 70.3 0 0183 51.5c23 0 27.2 3.9 27.2 3.9l3.2 4.4s3.1 3.2 5.1-.8C109 37 39 49 39.4 63.9c.6 1.3 1.5 2.1 2.1 2.1H43l1.5-3.3z" opacity=".1"/>
      <circle cx="101.7" cy="22.2" r="6.8"/>
      <path d="M108.5 23a6.8 6.8 0 01-7.6 6 7 7 0 01-4.6-2.5c1.7.6 6.1 1.3 8.9-1.4 2-1.9 2.1-5.6 1.6-7.4a6.8 6.8 0 011.7 5.3z" fill="#010101" opacity=".25"/>
      <circle cx="100.7" cy="39.2" r="2.5"/>
      <circle cx="60.7" cy="40.2" r="2.5"/>
<path d="M46.7 67.2s-8.4.6-9.9 7.7c0 0-8.5.1-12.1 6.4L16 84.9l.2 3 17.4 18.8 1.4 4.9s4.2 4.9 9.3 5.6l6.7-6.7s-.4-5-2.4-5.8-7.3-3.5-8.3-3.4-6-12.6-6-12.6 12 6.7 16.6-6.2c0-.1 8.8-14.8-4.2-15.3zM117.1 67l.5.2c3.3.9 5.8 3.5 6.7 6.8 0 0 8.5-.1 12.2 6l8.9 3.4-.1 3-16.9 19.3-1.2 5s-1.1 3-6.2 3.7l-9.8-4.4s.2-5 2.3-5.9 7.2-3.7 8.2-3.6 5.6-12.8 5.6-12.8-4.4 2.6-9 1.7C120 78 118 74 117.1 67z" fill="currentColor"/>
      <g stroke-linecap="round" stroke-linejoin="round" stroke-width="2">
        <path d="M37.7 96c.8 2 1.5 3.2 2.3 4.6-4.8 1-6.2 3-7 5.9l-4-4.3c1.3-4.4 4-5.8 8.7-6.2zM133.1 101c-1.6 1.5-2.5 2.6-3.6 3.8-2.5-4.2-4.8-4.7-7.9-4.4l2.7-5.4c4.5-.3 6.7 1.7 8.8 6z"/>
      </g>
      <g fill="#010101">
        <path d="M46.7 67.2c6.3 3 5.1 14.5-2.1 13-.4 2.9-1.5 7.1-9.8 6-3.1.8-5.7 1.2-5.7 1.2l9.1 14.8c5.9 1.6 10.5 4.3 12.8 8.3 0 0-.4-5-2.4-5.8-2-.8-7.5-3.5-8.5-3.5-1-.4-5.9-12.6-5.9-12.6s12 6.8 16.7-6.1c-.1-.2 8.8-14.7-4.2-15.3z" opacity=".1"/>
        <path d="M117.4 69.4s4.8 2.8 5.8 6.8c0 0 7 1 9 6l3 1-11 19-8 5a11 11 0 00-3 3.8l-2-1s.1-5.8 3.2-6.2c2.6-1.3 6.5-3.4 7.6-3.4 2.2-4 3.7-8.4 5.3-12.7a13.7 13.7 0 01-9 1.7c1.2-7.1.8-13.1-.9-20z" opacity=".15"/>
      </g>
<path d="M83.5 57.7a1 1 0 00-.9 1.3s4 11.8 4.3 22.3a1 1 0 102 0c-.3-11-4.4-23-4.4-23a1 1 0 00-1-.6zm-.3 2.5c-1.6.2-2.7.7-3.3 1.7-.7 1-.5 2 0 3 .9 2 3 3.9 5.8 5.2 2.4 1.2 4.2 3 4.7 4 .3.6.2 1 0 1.3-.2.4-.8.8-2 1.1-2.4.5-3.8 0-4.6-.9-.9-.8-1.1-2-.7-3.1a1 1 0 10-2-.7 5.1 5.1 0 001.2 5.2c1.4 1.4 3.7 2.1 6.5 1.5 1.6-.4 2.7-1 3.3-2 .6-1 .6-2.1.1-3.1-.8-2-3-3.7-5.6-5-2.4-1.3-4.4-3-5-4.3-.2-.6-.2-.9 0-1.1 0-.3.6-.6 1.8-.8 2.6-.2 3.8.6 4.5 1.2.6.7.7 1.3.7 1.3a1 1 0 102-.3s-.2-1.3-1.3-2.4c-1-1-3-2-6.1-1.8zM102.2 57.9a1 1 0 00-1 1.4s5 10.6 6.2 20.3a1 1 0 102-.2 80.7 80.7 0 00-6.3-21 1 1 0 00-.9-.5zm-.1 2.5c-1.5.4-2.5 1-3 1.9-.5 1-.3 2 .3 3 1 1.7 3.3 3.2 6 4.2 2.3.9 4.2 2.3 4.7 3.3.3.5.3.8.1 1.1-.1.3-.6.8-1.7 1.2-2.1.7-3.5.3-4.3-.4a2.9 2.9 0 01-1-2.8 1 1 0 10-2-.4c-.3 1.7.3 3.6 1.7 4.8 1.4 1.2 3.6 1.6 6.2.7 1.4-.5 2.4-1.2 3-2.2.4-1 .3-2-.2-3-1-1.8-3.2-3.2-5.9-4.2-2.3-.9-4.3-2.3-5-3.4-.2-.5-.2-.8-.1-1 0-.2.5-.6 1.6-.8 2.4-.4 3.6.1 4.2.6.7.6.8 1.1.8 1.1a1 1 0 102-.5s-.4-1.2-1.5-2.1c-1.1-1-3-1.6-6-1.1z"/>
      <path d="M106.7 99a15 15 0 01-11.1 5H95a15 15 0 01-11-5c-3-3.2-5-8.5-5-11s4.6 1.5 16 1.5h.6c7.8 0 12.7-2.5 13.6-3s2.4-.6 2.4 1.6-1.9 7.7-4.9 11z" fill="#010101" opacity=".6"/>
      <path d="M92 90.3c-.4.1-.7 10.5 0 14.5s9.2 7.6 11.7-4c1.4-4.4.7-11.9.7-11.9s-6.8 2.2-12.3 1.3z" fill="#f15a24"/>
      <path d="M98.7 92.6s.7 7.1-.2 11.4.7 4.2 2.4 2 3.8-6.2 3.5-13.7v-3.4l-5.9 1.6z" fill="#e84715"/>
<path d="M88.8 117.9l.2 6.1c3.2 1.2 6.8 1.2 10 0l3.2-11.8s-7.7 4.6-13.4 5.7z" fill="#99671d"/>
      <path d="M91 124.6S89.9 137 91 139s4.4 3 4.4 0 1.6-14.4 1.6-14.4l-3 .2c-1 0-2 0-3-.2z" fill="#f5f5f5"/>
      <path d="M91 139c1.1 2 4.4 3 4.4 0s1.6-14.4 1.6-14.4l-3 .2s0 15.2-3 14.2z" opacity=".1"/>
      <path d="M69.6 123.3s2.6 5.2 5.2 7.1L78 133v4.2c0 .4-9.8-2.8-8.4-13.9z" fill="#6d4716"/>
      <path d="M68.9 123.3s5.2-1.3 8.4 2 3.2 7.8 1.3 7.8-1.9.6-9.7-9.8z" fill="#fff"/>
      <path d="M44.2 108.4s4.5-7.8 18.2-.7S65 129.8 77.3 137c0 0-3.5 3.5-8-5.7-4.4-9-4.3-23.6-25.1-22.9z" fill="#99671d"/>
      <path d="M77.3 137s-5.8 2.6-9.8-10.4S59 105.8 48 106.4c-1.6 0-3 .6-4.2 1.6-5.3 4.8-1.2 18.7 4.2 23.1 6.5 5.2 20.8 10.4 26.7 8.4s2.6-2.5 2.6-2.5z" fill="#444"/>
      <path d="M78.2 118.2l-.9 7.1c-1.8-1.3-3.4-2.2-4.8-2.2l.6-5.9c1.7.5 3.4.8 5.1 1z" fill="currentColor"/>
      <path d="M45.5 111h11c.3 0 .5.2.5.5s-.2.5-.5.5h-11c-.3 0-.5-.2-.5-.5s.2-.5.5-.5zM44.5 114h14c.3 0 .5.2.5.5s-.2.5-.5.5h-14c-.3 0-.5-.2-.5-.5s.2-.5.5-.5zM44.5 117h17c.3 0 .5.2.5.5s-.2.5-.5.5h-17c-.3 0-.5-.2-.5-.5s.2-.5.5-.5zM45.5 120h17c.3 0 .5.2.5.5s-.2.5-.5.5h-17c-.3 0-.5-.2-.5-.5s.2-.5.5-.5zM46.5 123h17c.3 0 .5.2.5.5s-.2.5-.5.5h-17c-.3 0-.5-.2-.5-.5s.2-.5.5-.5zM48.5 126h17c.3 0 .5.2.5.5s-.2.5-.5.5h-17c-.3 0-.5-.2-.5-.5s.2-.5.5-.5zM50.5 129h15c.3 0 .5.2.5.5s-.2.5-.5.5h-15c-.3 0-.5-.2-.5-.5s.2-.5.5-.5zM54.5 132h13c.3 0 .5.2.5.5s-.2.5-.5.5h-13c-.3 0-.5-.2-.5-.5s.2-.5.5-.5zM59.5 135h9c.3 0 .5.2.5.5s-.2.5-.5.5h-9c-.3 0-.5-.2-.5-.5s.2-.5.5-.5z"/>
      <path d="M94.7 124.7c1.8-.2 2.5-.1 4.3-.7l3.2-11.8-4.3 2.4s-.7 10.2-3.2 10z" opacity=".1"/>
</g>
</g>
</svg>