<?xml version="1.0" encoding="utf-8"?>
<svg xmlns="http://www.w3.org/2000/svg" height="160" viewBox="0 0 160 160" width="160">
<defs>
    <clipPath id="hexagon-clip-213">
<path d="M251.6 17.34l63.53 110.03c5.72 9.9 5.72 22.1 0 32L251.6 269.4c-5.7 9.9-16.27 16-27.7 16H96.83c-11.43 0-22-6.1-27.7-16L5.6 159.37c-5.7-9.9-5.7-22.1 0-32L69.14 17.34c5.72-9.9 16.28-16 27.7-16H223.9c11.43 0 22 6.1 27.7 16z" transform="scale(0.5) translate(0, 16)"/>
</clipPath>
  </defs>
<g clip-path="url(#hexagon-clip-213)">
<g color="#21BCA5" fill="#5961A8">
<rect fill="#FA7268" height="160" width="160" x="0" y="0"/>
<circle cx="80" cy="80" fill="#21BCA5" r="40"/>
<g fill="#010101" opacity=".1">
        <path d="M119.21,80a39.46,39.46,0,0,1-67.13,28.13c10.36,2.33,36,3,49.82-14.28,10.39-12.47,8.31-33.23,4.16-43.26A39.35,39.35,0,0,1,119.21,80Z"/>
      </g>
<path d="M80.5 42.9S77 25.1 73.3 20.3c-.2-.2-1.7-.5-4.1.6l-.2.2s2.6 2.6 9 21.8c0 0 2.5 1.3 2.5 0z" fill="#825105"/>
      <ellipse cx="71.2" cy="20.6" fill="#f4b145" rx="2.2" ry=".5" transform="rotate(-4.6 71.2 20.6)"/>
      <path d="M77.2 41.3s.7-.1 1.2-1.4c.5-1.9-.5-3.8-2.4-4.4-2-.5-2.9-2.4-4.3-4.2s-6.4-4.7-14.9-4.5-10.2-3-10.9-3.6-.8 6 3 10.9 9.3 8.3 15.6 5.1 9.2-.2 9.2-.2 2.2 2.4 3.5 2.3z"/>
      <path d="M77.2 41.3s.7-.1 1.2-1.4c.5-1.9-.5-3.8-2.4-4.4-2-.5-2.9-2.4-4.3-4.2-1.4-1.8-6.4-4.8-14.9-4.5-9.8.3-11.2-4.7-11-3.4 3 11.5 22.9 4.2 31.4 17.9z" fill="#010101" opacity=".2"/>
<path d="M42 66.5L26 51c-.9-.2-4 9-4 19s4 15 6 17l7 7c3 3 6 4 10 6 3 1 4 2 4-2s-4-5-5-18l1-9-3-4.5zM114 61.1c3.6-4.7 19.7-11 19.7-11s2.2 12.2-4.8 28.8c-2.5 6-6 14.5-9 16.8-3 2.3-3.8.3-3.8.3-1.1 0 7.9-19-2.1-34.9z" fill="currentColor"/>
      <g fill="#010101" opacity=".1">
        <path d="M26 52.2C41 69 43.6 78.7 43.6 78.7l1.4-8.6S29 52 26 52.2zM121.6 55.8l8.6-1.7c1 6-1.6 15.2-3.1 20-2.7 8.3-4.9 12.9-7.1 17.9-2.2 5-3.9 4-3.9 4 1 1.8 4.7.8 8.5-7.4 2.4-5.4 4.8-10.4 6.4-15.8 0 0 3.9-10.8 2.7-22.7-4.1 1.7-8.2 3.5-12.1 5.7zM25.993 84.453c22.06 18.633 21.303 13.687 21.426 9.079 2.007 2.462 2 7.15.687 7.201-1.805.147-9.904-3.78-11.796-5.653-3.784-3.747-7.22-6.746-10.317-10.627z"/>
      </g>
      <path d="M44 74c-1-2-15-12-15-12s-2 16 4 22c2.3 2.3 4.8 4.5 7.4 6.5L44 92s3-1 0-5c-2.1-2.9-.9-5.8.1-7.6l.8-1.5C45 77 45 76 44 74zM118.5 70.6c.5-1.7 9.2-8 9.2-8s-.8 10.8-3.3 16.1c-1 2.1-2.3 4.4-4 6.2-.5.6-2.3 1.5-2.3 1.5l.5-3.7a38.8 38.8 0 00-.1-8.9l-.3-2.2c0-.3 0-.5.3-1z"/>
      <g fill="#010101">
        <g opacity=".2">
          <path d="M44 74c2 1-15-12-15-12-.7-.1-.8 17.9 4 22l7.4 6.5L44 92c-13-7.2-19.2-27.2 0-18zM118.51 70.653c.328-1.634 9.253-8.085 9.253-8.085-.548 4.473-1.04 11.87-3.504 16.515-2.19 4.215-3.012 4.903-3.778 5.763-.548.602-1.971 1.29-1.971 1.29 7.117-6.193 10.512-23.396 0-15.483z"/>
        </g>
        <g opacity=".4">
          <path d="M39 75c-2 0-4 3-2 6s6 3 6 3-1-.9.5-3.5S41 75 39 75zM121.248 71.513c1.094 0 2.19 2.581 1.094 5.162s-3.503 2.58-3.503 2.58l-.055-3.01c-.11-2.581 1.368-4.732 2.463-4.732z"/>
        </g>
      </g>
<g fill="#010101" opacity=".6">
        <path d="M77 75s0-12 6-12 6 11.6 6 11.6S84 63 77 75zM101 74.5s0-11 5.5-11 5.5 10.6 5.5 10.6-4.6-10.6-11 .4zM106.7 100a15 15 0 01-11.1 5H95a15 15 0 01-11.1-5c-3-3.2-5-8.5-5-11s4.6 1.5 16 1.5h.6c7.8 0 12.7-2.5 13.6-3s2.4-.6 2.4 1.6-1.9 7.7-4.9 11z"/>
      </g>
      <circle cx="99" cy="79.8" r="9"/>
      <path d="M108 80.8a9 9 0 01-16 4.6c2.3.8 8 1.6 11.6-2 2.7-2.5 2.8-7.2 2.1-9.6a9 9 0 012.2 7z" fill="#010101" opacity=".2"/>
<path d="M95.8 115.5a16 16 0 002.7 2.5c.4 0 1.3-2.4 2.1-5 2.7-1.8 2.2-1.4 4.7-3.5 3.1 6.5 8.6 19.5 8.6 19.5l-1.9 10v-9s-7.7-17-8.7-17c-1 0-2.9 11-3.9 11-.5 0-7.3-7.2-7.3-7.2zM55.9 110.6s-3.6 3.4-4 3.4c-1.1 0-4.4-12-5.5-12s-12.1 23-12.1 23l2.2 10v-9s8.8-17 9.9-17 3.3 11 4.4 11c.5 0 8.3-7.1 8.3-7.1l-3.2-2.3z"/>
      <g fill="#010101" opacity=".2">
        <path d="M55.9 110.6s-3.6 3.4-4 3.4c-1.1 0-4.4-12-5.5-12s-12.1 23-12.1 23l2.2 10v-9s8.8-17 9.9-17 3.3 11 4.4 11c.5 0 8.3-7.1 8.3-7.1l-3.2-2.3zM95.8 115.5a16 16 0 002.7 2.5c.4 0 1.3-2.3 2.1-5 2.6-1.7 2.3-1.5 4.7-3.5 3.1 6.5 8.6 19.5 8.6 19.5l-1.9 10v-9s-7.7-17-8.7-17c-1 0-2.9 11-3.9 11-.5 0-7.3-7.2-7.3-7.2z"/>
      </g>
      <path d="M70 107.1s-9 12.3-10 12.3-4-13.4-5-13.4-11 25.8-11 25.8l2 11.2v-10.1s8-19.1 9-19.1 3 12.3 4 12.3 15-16.8 15-16.8 0-3.3-4-2.2z"/>
      <path d="M60 122.4c-1 0-4-12.4-5-12.4s-10 21.8-10 21.8l1 11.2v-10.1s8-19.1 9-19.1 3 12.3 4 12.3 15-16.8 15-16.8c0-.9-.5-1.8-1.3-2.2-.6-.3-11.7 15.3-12.7 15.3z" fill="#010101" opacity=".1"/>
      <path d="M96 107.2s9 12.3 10 12.3 4-13.5 5-13.5 11 25.8 11 25.8l-2 11.2v-10.1s-8-19.1-9-19.1-3 12.3-4 12.3-15-16.8-15-16.8 0-3.2 4-2.1z"/>
</g>
</g>
</svg>