<?xml version="1.0" encoding="utf-8"?>
<svg xmlns="http://www.w3.org/2000/svg" height="200" shape-rendering="crispEdges" width="200">
  <rect fill="rgb(255,255,102)" height="10" width="10" x="00" y="00"/>
  <rect fill="rgb(255,255,204)" height="10" width="10" x="10" y="00"/>
  <rect fill="rgb(204,255,255)" height="10" width="10" x="20" y="00"/>
  <rect fill="rgb(0,0,255)" height="10" width="10" x="30" y="00"/>
  <rect fill="rgb(0,255,255)" height="10" width="10" x="40" y="00"/>
  <rect fill="rgb(153,153,255)" height="10" width="10" x="50" y="00"/>
  <rect fill="rgb(102,102,255)" height="10" width="10" x="60" y="00"/>
  <rect fill="rgb(51,51,255)" height="10" width="10" x="70" y="00"/>
  <rect fill="rgb(255,255,0)" height="10" width="10" x="80" y="00"/>
  <rect fill="rgb(51,51,255)" height="10" width="10" x="90" y="00"/>
  <rect fill="rgb(153,153,255)" height="10" width="10" x="100" y="00"/>
  <rect fill="rgb(153,255,255)" height="10" width="10" x="110" y="00"/>
  <rect fill="rgb(51,51,255)" height="10" width="10" x="120" y="00"/>
  <rect fill="rgb(255,255,153)" height="10" width="10" x="130" y="00"/>
  <rect fill="rgb(51,255,255)" height="10" width="10" x="140" y="00"/>
  <rect fill="rgb(204,204,255)" height="10" width="10" x="150" y="00"/>
  <rect fill="rgb(255,255,0)" height="10" width="10" x="160" y="00"/>
  <rect fill="rgb(204,255,255)" height="10" width="10" x="170" y="00"/>
  <rect fill="rgb(255,255,204)" height="10" width="10" x="180" y="00"/>
  <rect fill="rgb(255,255,204)" height="10" width="10" x="190" y="00"/>
  <rect fill="rgb(102,255,255)" height="10" width="10" x="00" y="10"/>
  <rect fill="rgb(204,255,255)" height="10" width="10" x="10" y="10"/>
  <rect fill="rgb(102,102,255)" height="10" width="10" x="20" y="10"/>
  <rect fill="rgb(255,255,153)" height="10" width="10" x="30" y="10"/>
  <rect fill="rgb(0,0,255)" height="10" width="10" x="40" y="10"/>
  <rect fill="rgb(255,255,153)" height="10" width="10" x="50" y="10"/>
  <rect fill="rgb(255,255,51)" height="10" width="10" x="60" y="10"/>
  <rect fill="rgb(255,255,102)" height="10" width="10" x="70" y="10"/>
  <rect fill="rgb(102,255,255)" height="10" width="10" x="80" y="10"/>
  <rect fill="rgb(255,255,102)" height="10" width="10" x="90" y="10"/>
  <rect fill="rgb(255,255,204)" height="10" width="10" x="100" y="10"/>
  <rect fill="rgb(153,255,255)" height="10" width="10" x="110" y="10"/>
  <rect fill="rgb(153,153,255)" height="10" width="10" x="120" y="10"/>
  <rect fill="rgb(102,255,255)" height="10" width="10" x="130" y="10"/>
  <rect fill="rgb(102,255,255)" height="10" width="10" x="140" y="10"/>
  <rect fill="rgb(255,255,153)" height="10" width="10" x="150" y="10"/>
  <rect fill="rgb(204,255,255)" height="10" width="10" x="160" y="10"/>
  <rect fill="rgb(51,51,255)" height="10" width="10" x="170" y="10"/>
  <rect fill="rgb(153,255,255)" height="10" width="10" x="180" y="10"/>
  <rect fill="rgb(0,0,255)" height="10" width="10" x="190" y="10"/>
  <rect fill="rgb(255,255,204)" height="10" width="10" x="00" y="20"/>
  <rect fill="rgb(153,255,255)" height="10" width="10" x="10" y="20"/>
  <rect fill="rgb(255,255,204)" height="10" width="10" x="20" y="20"/>
  <rect fill="rgb(255,255,153)" height="10" width="10" x="30" y="20"/>
  <rect fill="rgb(153,255,255)" height="10" width="10" x="40" y="20"/>
  <rect fill="rgb(102,102,255)" height="10" width="10" x="50" y="20"/>
  <rect fill="rgb(204,204,255)" height="10" width="10" x="60" y="20"/>
  <rect fill="rgb(255,255,0)" height="10" width="10" x="70" y="20"/>
  <rect fill="rgb(255,255,0)" height="10" width="10" x="80" y="20"/>
  <rect fill="rgb(0,0,255)" height="10" width="10" x="90" y="20"/>
  <rect fill="rgb(51,51,255)" height="10" width="10" x="100" y="20"/>
  <rect fill="rgb(255,255,153)" height="10" width="10" x="110" y="20"/>
  <rect fill="rgb(153,153,255)" height="10" width="10" x="120" y="20"/>
  <rect fill="rgb(0,0,255)" height="10" width="10" x="130" y="20"/>
  <rect fill="rgb(0,255,255)" height="10" width="10" x="140" y="20"/>
  <rect fill="rgb(255,255,204)" height="10" width="10" x="150" y="20"/>
  <rect fill="rgb(255,255,204)" height="10" width="10" x="160" y="20"/>
  <rect fill="rgb(0,255,255)" height="10" width="10" x="170" y="20"/>
  <rect fill="rgb(153,153,255)" height="10" width="10" x="180" y="20"/>
  <rect fill="rgb(102,102,255)" height="10" width="10" x="190" y="20"/>
  <rect fill="rgb(102,255,255)" height="10" width="10" x="00" y="30"/>
  <rect fill="rgb(204,255,255)" height="10" width="10" x="10" y="30"/>
  <rect fill="rgb(51,255,255)" height="10" width="10" x="20" y="30"/>
  <rect fill="rgb(153,255,255)" height="10" width="10" x="30" y="30"/>
  <rect fill="rgb(255,255,0)" height="10" width="10" x="40" y="30"/>
  <rect fill="rgb(51,51,255)" height="10" width="10" x="50" y="30"/>
  <rect fill="rgb(0,0,255)" height="10" width="10" x="60" y="30"/>
  <rect fill="rgb(255,255,0)" height="10" width="10" x="70" y="30"/>
  <rect fill="rgb(204,255,255)" height="10" width="10" x="80" y="30"/>
  <rect fill="rgb(51,51,255)" height="10" width="10" x="90" y="30"/>
  <rect fill="rgb(255,255,51)" height="10" width="10" x="100" y="30"/>
  <rect fill="rgb(153,153,255)" height="10" width="10" x="110" y="30"/>
  <rect fill="rgb(153,153,255)" height="10" width="10" x="120" y="30"/>
  <rect fill="rgb(204,255,255)" height="10" width="10" x="130" y="30"/>
  <rect fill="rgb(51,255,255)" height="10" width="10" x="140" y="30"/>
  <rect fill="rgb(153,153,255)" height="10" width="10" x="150" y="30"/>
  <rect fill="rgb(102,255,255)" height="10" width="10" x="160" y="30"/>
  <rect fill="rgb(51,51,255)" height="10" width="10" x="170" y="30"/>
  <rect fill="rgb(51,255,255)" height="10" width="10" x="180" y="30"/>
  <rect fill="rgb(0,0,255)" height="10" width="10" x="190" y="30"/>
  <rect fill="rgb(51,255,255)" height="10" width="10" x="00" y="40"/>
  <rect fill="rgb(255,255,102)" height="10" width="10" x="10" y="40"/>
  <rect fill="rgb(255,255,0)" height="10" width="10" x="20" y="40"/>
  <rect fill="rgb(102,102,255)" height="10" width="10" x="30" y="40"/>
  <rect fill="rgb(102,255,255)" height="10" width="10" x="40" y="40"/>
  <rect fill="rgb(255,255,153)" height="10" width="10" x="50" y="40"/>
  <rect fill="rgb(51,255,255)" height="10" width="10" x="60" y="40"/>
  <rect fill="rgb(102,255,255)" height="10" width="10" x="70" y="40"/>
  <rect fill="rgb(0,255,255)" height="10" width="10" x="80" y="40"/>
  <rect fill="rgb(0,0,255)" height="10" width="10" x="90" y="40"/>
  <rect fill="rgb(102,255,255)" height="10" width="10" x="100" y="40"/>
  <rect fill="rgb(255,255,102)" height="10" width="10" x="110" y="40"/>
  <rect fill="rgb(102,255,255)" height="10" width="10" x="120" y="40"/>
  <rect fill="rgb(255,255,51)" height="10" width="10" x="130" y="40"/>
  <rect fill="rgb(255,255,0)" height="10" width="10" x="140" y="40"/>
  <rect fill="rgb(255,255,102)" height="10" width="10" x="150" y="40"/>
  <rect fill="rgb(255,255,102)" height="10" width="10" x="160" y="40"/>
  <rect fill="rgb(102,255,255)" height="10" width="10" x="170" y="40"/>
  <rect fill="rgb(255,255,204)" height="10" width="10" x="180" y="40"/>
  <rect fill="rgb(255,255,51)" height="10" width="10" x="190" y="40"/>
  <rect fill="rgb(255,255,153)" height="10" width="10" x="00" y="50"/>
  <rect fill="rgb(153,153,255)" height="10" width="10" x="10" y="50"/>
  <rect fill="rgb(153,153,255)" height="10" width="10" x="20" y="50"/>
  <rect fill="rgb(204,204,255)" height="10" width="10" x="30" y="50"/>
  <rect fill="rgb(204,204,255)" height="10" width="10" x="40" y="50"/>
  <rect fill="rgb(153,255,255)" height="10" width="10" x="50" y="50"/>
  <rect fill="rgb(0,255,255)" height="10" width="10" x="60" y="50"/>
  <rect fill="rgb(204,204,255)" height="10" width="10" x="70" y="50"/>
  <rect fill="rgb(0,0,255)" height="10" width="10" x="80" y="50"/>
  <rect fill="rgb(0,255,255)" height="10" width="10" x="90" y="50"/>
  <rect fill="rgb(51,255,255)" height="10" width="10" x="100" y="50"/>
  <rect fill="rgb(153,153,255)" height="10" width="10" x="110" y="50"/>
  <rect fill="rgb(255,255,0)" height="10" width="10" x="120" y="50"/>
  <rect fill="rgb(255,255,102)" height="10" width="10" x="130" y="50"/>
  <rect fill="rgb(51,51,255)" height="10" width="10" x="140" y="50"/>
  <rect fill="rgb(153,153,255)" height="10" width="10" x="150" y="50"/>
  <rect fill="rgb(204,204,255)" height="10" width="10" x="160" y="50"/>
  <rect fill="rgb(51,51,255)" height="10" width="10" x="170" y="50"/>
  <rect fill="rgb(153,153,255)" height="10" width="10" x="180" y="50"/>
  <rect fill="rgb(0,255,255)" height="10" width="10" x="190" y="50"/>
  <rect fill="rgb(0,255,255)" height="10" width="10" x="00" y="60"/>
  <rect fill="rgb(0,255,255)" height="10" width="10" x="10" y="60"/>
  <rect fill="rgb(255,255,51)" height="10" width="10" x="20" y="60"/>
  <rect fill="rgb(102,255,255)" height="10" width="10" x="30" y="60"/>
  <rect fill="rgb(153,255,255)" height="10" width="10" x="40" y="60"/>
  <rect fill="rgb(0,255,255)" height="10" width="10" x="50" y="60"/>
  <rect fill="rgb(102,102,255)" height="10" width="10" x="60" y="60"/>
  <rect fill="rgb(204,204,255)" height="10" width="10" x="70" y="60"/>
  <rect fill="rgb(51,255,255)" height="10" width="10" x="80" y="60"/>
  <rect fill="rgb(204,204,255)" height="10" width="10" x="90" y="60"/>
  <rect fill="rgb(255,255,153)" height="10" width="10" x="100" y="60"/>
  <rect fill="rgb(204,255,255)" height="10" width="10" x="110" y="60"/>
  <rect fill="rgb(255,255,102)" height="10" width="10" x="120" y="60"/>
  <rect fill="rgb(102,255,255)" height="10" width="10" x="130" y="60"/>
  <rect fill="rgb(255,255,153)" height="10" width="10" x="140" y="60"/>
  <rect fill="rgb(0,0,255)" height="10" width="10" x="150" y="60"/>
  <rect fill="rgb(204,255,255)" height="10" width="10" x="160" y="60"/>
  <rect fill="rgb(204,255,255)" height="10" width="10" x="170" y="60"/>
  <rect fill="rgb(0,255,255)" height="10" width="10" x="180" y="60"/>
  <rect fill="rgb(0,255,255)" height="10" width="10" x="190" y="60"/>
  <rect fill="rgb(255,255,153)" height="10" width="10" x="00" y="70"/>
  <rect fill="rgb(204,255,255)" height="10" width="10" x="10" y="70"/>
  <rect fill="rgb(204,204,255)" height="10" width="10" x="20" y="70"/>
  <rect fill="rgb(153,153,255)" height="10" width="10" x="30" y="70"/>
  <rect fill="rgb(102,102,255)" height="10" width="10" x="40" y="70"/>
  <rect fill="rgb(51,51,255)" height="10" width="10" x="50" y="70"/>
  <rect fill="rgb(255,255,153)" height="10" width="10" x="60" y="70"/>
  <rect fill="rgb(0,0,255)" height="10" width="10" x="70" y="70"/>
  <rect fill="rgb(255,255,204)" height="10" width="10" x="80" y="70"/>
  <rect fill="rgb(153,153,255)" height="10" width="10" x="90" y="70"/>
  <rect fill="rgb(204,204,255)" height="10" width="10" x="100" y="70"/>
  <rect fill="rgb(204,204,255)" height="10" width="10" x="110" y="70"/>
  <rect fill="rgb(51,255,255)" height="10" width="10" x="120" y="70"/>
  <rect fill="rgb(51,51,255)" height="10" width="10" x="130" y="70"/>
  <rect fill="rgb(51,255,255)" height="10" width="10" x="140" y="70"/>
  <rect fill="rgb(255,255,102)" height="10" width="10" x="150" y="70"/>
  <rect fill="rgb(0,0,255)" height="10" width="10" x="160" y="70"/>
  <rect fill="rgb(153,153,255)" height="10" width="10" x="170" y="70"/>
  <rect fill="rgb(255,255,153)" height="10" width="10" x="180" y="70"/>
  <rect fill="rgb(102,102,255)" height="10" width="10" x="190" y="70"/>
  <rect fill="rgb(0,0,255)" height="10" width="10" x="00" y="80"/>
  <rect fill="rgb(153,255,255)" height="10" width="10" x="10" y="80"/>
  <rect fill="rgb(204,204,255)" height="10" width="10" x="20" y="80"/>
  <rect fill="rgb(204,204,255)" height="10" width="10" x="30" y="80"/>
  <rect fill="rgb(204,255,255)" height="10" width="10" x="40" y="80"/>
  <rect fill="rgb(153,153,255)" height="10" width="10" x="50" y="80"/>
  <rect fill="rgb(51,51,255)" height="10" width="10" x="60" y="80"/>
  <rect fill="rgb(51,255,255)" height="10" width="10" x="70" y="80"/>
  <rect fill="rgb(153,153,255)" height="10" width="10" x="80" y="80"/>
  <rect fill="rgb(255,255,0)" height="10" width="10" x="90" y="80"/>
  <rect fill="rgb(51,51,255)" height="10" width="10" x="100" y="80"/>
  <rect fill="rgb(0,255,255)" height="10" width="10" x="110" y="80"/>
  <rect fill="rgb(0,255,255)" height="10" width="10" x="120" y="80"/>
  <rect fill="rgb(255,255,153)" height="10" width="10" x="130" y="80"/>
  <rect fill="rgb(0,0,255)" height="10" width="10" x="140" y="80"/>
  <rect fill="rgb(51,51,255)" height="10" width="10" x="150" y="80"/>
  <rect fill="rgb(51,255,255)" height="10" width="10" x="160" y="80"/>
  <rect fill="rgb(0,0,255)" height="10" width="10" x="170" y="80"/>
  <rect fill="rgb(51,51,255)" height="10" width="10" x="180" y="80"/>
  <rect fill="rgb(0,0,255)" height="10" width="10" x="190" y="80"/>
  <rect fill="rgb(255,255,51)" height="10" width="10" x="00" y="90"/>
  <rect fill="rgb(204,255,255)" height="10" width="10" x="10" y="90"/>
  <rect fill="rgb(255,255,0)" height="10" width="10" x="20" y="90"/>
  <rect fill="rgb(0,0,255)" height="10" width="10" x="30" y="90"/>
  <rect fill="rgb(0,255,255)" height="10" width="10" x="40" y="90"/>
  <rect fill="rgb(255,255,102)" height="10" width="10" x="50" y="90"/>
  <rect fill="rgb(102,255,255)" height="10" width="10" x="60" y="90"/>
  <rect fill="rgb(0,255,255)" height="10" width="10" x="70" y="90"/>
  <rect fill="rgb(204,204,255)" height="10" width="10" x="80" y="90"/>
  <rect fill="rgb(255,255,204)" height="10" width="10" x="90" y="90"/>
  <rect fill="rgb(204,204,255)" height="10" width="10" x="100" y="90"/>
  <rect fill="rgb(153,153,255)" height="10" width="10" x="110" y="90"/>
  <rect fill="rgb(255,255,102)" height="10" width="10" x="120" y="90"/>
  <rect fill="rgb(102,255,255)" height="10" width="10" x="130" y="90"/>
  <rect fill="rgb(102,255,255)" height="10" width="10" x="140" y="90"/>
  <rect fill="rgb(153,153,255)" height="10" width="10" x="150" y="90"/>
  <rect fill="rgb(153,153,255)" height="10" width="10" x="160" y="90"/>
  <rect fill="rgb(0,255,255)" height="10" width="10" x="170" y="90"/>
  <rect fill="rgb(255,255,102)" height="10" width="10" x="180" y="90"/>
  <rect fill="rgb(0,0,255)" height="10" width="10" x="190" y="90"/>
  <rect fill="rgb(153,153,255)" height="10" width="10" x="00" y="100"/>
  <rect fill="rgb(153,255,255)" height="10" width="10" x="10" y="100"/>
  <rect fill="rgb(153,153,255)" height="10" width="10" x="20" y="100"/>
  <rect fill="rgb(255,255,102)" height="10" width="10" x="30" y="100"/>
  <rect fill="rgb(102,102,255)" height="10" width="10" x="40" y="100"/>
  <rect fill="rgb(102,255,255)" height="10" width="10" x="50" y="100"/>
  <rect fill="rgb(0,0,255)" height="10" width="10" x="60" y="100"/>
  <rect fill="rgb(153,153,255)" height="10" width="10" x="70" y="100"/>
  <rect fill="rgb(0,255,255)" height="10" width="10" x="80" y="100"/>
  <rect fill="rgb(153,153,255)" height="10" width="10" x="90" y="100"/>
  <rect fill="rgb(0,0,255)" height="10" width="10" x="100" y="100"/>
  <rect fill="rgb(153,153,255)" height="10" width="10" x="110" y="100"/>
  <rect fill="rgb(255,255,102)" height="10" width="10" x="120" y="100"/>
  <rect fill="rgb(102,102,255)" height="10" width="10" x="130" y="100"/>
  <rect fill="rgb(102,255,255)" height="10" width="10" x="140" y="100"/>
  <rect fill="rgb(51,255,255)" height="10" width="10" x="150" y="100"/>
  <rect fill="rgb(255,255,102)" height="10" width="10" x="160" y="100"/>
  <rect fill="rgb(255,255,0)" height="10" width="10" x="170" y="100"/>
  <rect fill="rgb(102,102,255)" height="10" width="10" x="180" y="100"/>
  <rect fill="rgb(51,255,255)" height="10" width="10" x="190" y="100"/>
  <rect fill="rgb(102,102,255)" height="10" width="10" x="00" y="110"/>
  <rect fill="rgb(255,255,51)" height="10" width="10" x="10" y="110"/>
  <rect fill="rgb(51,51,255)" height="10" width="10" x="20" y="110"/>
  <rect fill="rgb(0,0,255)" height="10" width="10" x="30" y="110"/>
  <rect fill="rgb(255,255,153)" height="10" width="10" x="40" y="110"/>
  <rect fill="rgb(102,255,255)" height="10" width="10" x="50" y="110"/>
  <rect fill="rgb(204,255,255)" height="10" width="10" x="60" y="110"/>
  <rect fill="rgb(204,204,255)" height="10" width="10" x="70" y="110"/>
  <rect fill="rgb(0,0,255)" height="10" width="10" x="80" y="110"/>
  <rect fill="rgb(102,102,255)" height="10" width="10" x="90" y="110"/>
  <rect fill="rgb(102,255,255)" height="10" width="10" x="100" y="110"/>
  <rect fill="rgb(255,255,102)" height="10" width="10" x="110" y="110"/>
  <rect fill="rgb(51,255,255)" height="10" width="10" x="120" y="110"/>
  <rect fill="rgb(255,255,153)" height="10" width="10" x="130" y="110"/>
  <rect fill="rgb(153,153,255)" height="10" width="10" x="140" y="110"/>
  <rect fill="rgb(51,51,255)" height="10" width="10" x="150" y="110"/>
  <rect fill="rgb(255,255,102)" height="10" width="10" x="160" y="110"/>
  <rect fill="rgb(153,153,255)" height="10" width="10" x="170" y="110"/>
  <rect fill="rgb(51,255,255)" height="10" width="10" x="180" y="110"/>
  <rect fill="rgb(102,102,255)" height="10" width="10" x="190" y="110"/>
  <rect fill="rgb(102,102,255)" height="10" width="10" x="00" y="120"/>
  <rect fill="rgb(102,102,255)" height="10" width="10" x="10" y="120"/>
  <rect fill="rgb(153,255,255)" height="10" width="10" x="20" y="120"/>
  <rect fill="rgb(102,255,255)" height="10" width="10" x="30" y="120"/>
  <rect fill="rgb(0,255,255)" height="10" width="10" x="40" y="120"/>
  <rect fill="rgb(153,255,255)" height="10" width="10" x="50" y="120"/>
  <rect fill="rgb(153,153,255)" height="10" width="10" x="60" y="120"/>
  <rect fill="rgb(255,255,102)" height="10" width="10" x="70" y="120"/>
  <rect fill="rgb(153,255,255)" height="10" width="10" x="80" y="120"/>
  <rect fill="rgb(102,255,255)" height="10" width="10" x="90" y="120"/>
  <rect fill="rgb(255,255,51)" height="10" width="10" x="100" y="120"/>
  <rect fill="rgb(255,255,204)" height="10" width="10" x="110" y="120"/>
  <rect fill="rgb(102,102,255)" height="10" width="10" x="120" y="120"/>
  <rect fill="rgb(0,0,255)" height="10" width="10" x="130" y="120"/>
  <rect fill="rgb(255,255,153)" height="10" width="10" x="140" y="120"/>
  <rect fill="rgb(51,51,255)" height="10" width="10" x="150" y="120"/>
  <rect fill="rgb(255,255,153)" height="10" width="10" x="160" y="120"/>
  <rect fill="rgb(102,255,255)" height="10" width="10" x="170" y="120"/>
  <rect fill="rgb(0,255,255)" height="10" width="10" x="180" y="120"/>
  <rect fill="rgb(102,102,255)" height="10" width="10" x="190" y="120"/>
  <rect fill="rgb(153,255,255)" height="10" width="10" x="00" y="130"/>
  <rect fill="rgb(0,255,255)" height="10" width="10" x="10" y="130"/>
  <rect fill="rgb(0,255,255)" height="10" width="10" x="20" y="130"/>
  <rect fill="rgb(204,255,255)" height="10" width="10" x="30" y="130"/>
  <rect fill="rgb(153,255,255)" height="10" width="10" x="40" y="130"/>
  <rect fill="rgb(102,255,255)" height="10" width="10" x="50" y="130"/>
  <rect fill="rgb(51,51,255)" height="10" width="10" x="60" y="130"/>
  <rect fill="rgb(204,255,255)" height="10" width="10" x="70" y="130"/>
  <rect fill="rgb(255,255,204)" height="10" width="10" x="80" y="130"/>
  <rect fill="rgb(204,255,255)" height="10" width="10" x="90" y="130"/>
  <rect fill="rgb(204,255,255)" height="10" width="10" x="100" y="130"/>
  <rect fill="rgb(102,102,255)" height="10" width="10" x="110" y="130"/>
  <rect fill="rgb(204,204,255)" height="10" width="10" x="120" y="130"/>
  <rect fill="rgb(153,153,255)" height="10" width="10" x="130" y="130"/>
  <rect fill="rgb(51,51,255)" height="10" width="10" x="140" y="130"/>
  <rect fill="rgb(0,0,255)" height="10" width="10" x="150" y="130"/>
  <rect fill="rgb(204,255,255)" height="10" width="10" x="160" y="130"/>
  <rect fill="rgb(0,0,255)" height="10" width="10" x="170" y="130"/>
  <rect fill="rgb(102,102,255)" height="10" width="10" x="180" y="130"/>
  <rect fill="rgb(51,51,255)" height="10" width="10" x="190" y="130"/>
  <rect fill="rgb(255,255,204)" height="10" width="10" x="00" y="140"/>
  <rect fill="rgb(0,255,255)" height="10" width="10" x="10" y="140"/>
  <rect fill="rgb(153,255,255)" height="10" width="10" x="20" y="140"/>
  <rect fill="rgb(102,255,255)" height="10" width="10" x="30" y="140"/>
  <rect fill="rgb(153,255,255)" height="10" width="10" x="40" y="140"/>
  <rect fill="rgb(0,0,255)" height="10" width="10" x="50" y="140"/>
  <rect fill="rgb(204,255,255)" height="10" width="10" x="60" y="140"/>
  <rect fill="rgb(102,102,255)" height="10" width="10" x="70" y="140"/>
  <rect fill="rgb(0,255,255)" height="10" width="10" x="80" y="140"/>
  <rect fill="rgb(255,255,51)" height="10" width="10" x="90" y="140"/>
  <rect fill="rgb(204,255,255)" height="10" width="10" x="100" y="140"/>
  <rect fill="rgb(0,255,255)" height="10" width="10" x="110" y="140"/>
  <rect fill="rgb(255,255,0)" height="10" width="10" x="120" y="140"/>
  <rect fill="rgb(0,0,255)" height="10" width="10" x="130" y="140"/>
  <rect fill="rgb(153,153,255)" height="10" width="10" x="140" y="140"/>
  <rect fill="rgb(51,255,255)" height="10" width="10" x="150" y="140"/>
  <rect fill="rgb(153,153,255)" height="10" width="10" x="160" y="140"/>
  <rect fill="rgb(0,0,255)" height="10" width="10" x="170" y="140"/>
  <rect fill="rgb(255,255,0)" height="10" width="10" x="180" y="140"/>
  <rect fill="rgb(0,255,255)" height="10" width="10" x="190" y="140"/>
  <rect fill="rgb(51,255,255)" height="10" width="10" x="00" y="150"/>
  <rect fill="rgb(255,255,102)" height="10" width="10" x="10" y="150"/>
  <rect fill="rgb(204,255,255)" height="10" width="10" x="20" y="150"/>
  <rect fill="rgb(102,102,255)" height="10" width="10" x="30" y="150"/>
  <rect fill="rgb(51,51,255)" height="10" width="10" x="40" y="150"/>
  <rect fill="rgb(255,255,153)" height="10" width="10" x="50" y="150"/>
  <rect fill="rgb(255,255,102)" height="10" width="10" x="60" y="150"/>
  <rect fill="rgb(0,255,255)" height="10" width="10" x="70" y="150"/>
  <rect fill="rgb(51,255,255)" height="10" width="10" x="80" y="150"/>
  <rect fill="rgb(153,255,255)" height="10" width="10" x="90" y="150"/>
  <rect fill="rgb(255,255,51)" height="10" width="10" x="100" y="150"/>
  <rect fill="rgb(255,255,102)" height="10" width="10" x="110" y="150"/>
  <rect fill="rgb(102,102,255)" height="10" width="10" x="120" y="150"/>
  <rect fill="rgb(51,255,255)" height="10" width="10" x="130" y="150"/>
  <rect fill="rgb(51,255,255)" height="10" width="10" x="140" y="150"/>
  <rect fill="rgb(0,0,255)" height="10" width="10" x="150" y="150"/>
  <rect fill="rgb(102,102,255)" height="10" width="10" x="160" y="150"/>
  <rect fill="rgb(0,255,255)" height="10" width="10" x="170" y="150"/>
  <rect fill="rgb(102,255,255)" height="10" width="10" x="180" y="150"/>
  <rect fill="rgb(255,255,0)" height="10" width="10" x="190" y="150"/>
  <rect fill="rgb(0,0,255)" height="10" width="10" x="00" y="160"/>
  <rect fill="rgb(153,255,255)" height="10" width="10" x="10" y="160"/>
  <rect fill="rgb(204,255,255)" height="10" width="10" x="20" y="160"/>
  <rect fill="rgb(255,255,102)" height="10" width="10" x="30" y="160"/>
  <rect fill="rgb(0,255,255)" height="10" width="10" x="40" y="160"/>
  <rect fill="rgb(255,255,102)" height="10" width="10" x="50" y="160"/>
  <rect fill="rgb(204,255,255)" height="10" width="10" x="60" y="160"/>
  <rect fill="rgb(255,255,102)" height="10" width="10" x="70" y="160"/>
  <rect fill="rgb(255,255,0)" height="10" width="10" x="80" y="160"/>
  <rect fill="rgb(102,255,255)" height="10" width="10" x="90" y="160"/>
  <rect fill="rgb(204,255,255)" height="10" width="10" x="100" y="160"/>
  <rect fill="rgb(51,255,255)" height="10" width="10" x="110" y="160"/>
  <rect fill="rgb(153,153,255)" height="10" width="10" x="120" y="160"/>
  <rect fill="rgb(0,255,255)" height="10" width="10" x="130" y="160"/>
  <rect fill="rgb(0,0,255)" height="10" width="10" x="140" y="160"/>
  <rect fill="rgb(255,255,51)" height="10" width="10" x="150" y="160"/>
  <rect fill="rgb(204,255,255)" height="10" width="10" x="160" y="160"/>
  <rect fill="rgb(0,0,255)" height="10" width="10" x="170" y="160"/>
  <rect fill="rgb(0,0,255)" height="10" width="10" x="180" y="160"/>
  <rect fill="rgb(153,255,255)" height="10" width="10" x="190" y="160"/>
  <rect fill="rgb(0,255,255)" height="10" width="10" x="00" y="170"/>
  <rect fill="rgb(102,102,255)" height="10" width="10" x="10" y="170"/>
  <rect fill="rgb(51,51,255)" height="10" width="10" x="20" y="170"/>
  <rect fill="rgb(204,255,255)" height="10" width="10" x="30" y="170"/>
  <rect fill="rgb(0,255,255)" height="10" width="10" x="40" y="170"/>
  <rect fill="rgb(255,255,204)" height="10" width="10" x="50" y="170"/>
  <rect fill="rgb(204,204,255)" height="10" width="10" x="60" y="170"/>
  <rect fill="rgb(255,255,0)" height="10" width="10" x="70" y="170"/>
  <rect fill="rgb(153,255,255)" height="10" width="10" x="80" y="170"/>
  <rect fill="rgb(204,204,255)" height="10" width="10" x="90" y="170"/>
  <rect fill="rgb(204,204,255)" height="10" width="10" x="100" y="170"/>
  <rect fill="rgb(102,102,255)" height="10" width="10" x="110" y="170"/>
  <rect fill="rgb(255,255,102)" height="10" width="10" x="120" y="170"/>
  <rect fill="rgb(204,204,255)" height="10" width="10" x="130" y="170"/>
  <rect fill="rgb(0,0,255)" height="10" width="10" x="140" y="170"/>
  <rect fill="rgb(153,153,255)" height="10" width="10" x="150" y="170"/>
  <rect fill="rgb(255,255,51)" height="10" width="10" x="160" y="170"/>
  <rect fill="rgb(153,255,255)" height="10" width="10" x="170" y="170"/>
  <rect fill="rgb(102,255,255)" height="10" width="10" x="180" y="170"/>
  <rect fill="rgb(51,51,255)" height="10" width="10" x="190" y="170"/>
  <rect fill="rgb(153,153,255)" height="10" width="10" x="00" y="180"/>
  <rect fill="rgb(51,255,255)" height="10" width="10" x="10" y="180"/>
  <rect fill="rgb(204,204,255)" height="10" width="10" x="20" y="180"/>
  <rect fill="rgb(51,51,255)" height="10" width="10" x="30" y="180"/>
  <rect fill="rgb(0,0,255)" height="10" width="10" x="40" y="180"/>
  <rect fill="rgb(51,255,255)" height="10" width="10" x="50" y="180"/>
  <rect fill="rgb(51,51,255)" height="10" width="10" x="60" y="180"/>
  <rect fill="rgb(255,255,204)" height="10" width="10" x="70" y="180"/>
  <rect fill="rgb(153,255,255)" height="10" width="10" x="80" y="180"/>
  <rect fill="rgb(255,255,102)" height="10" width="10" x="90" y="180"/>
  <rect fill="rgb(51,255,255)" height="10" width="10" x="100" y="180"/>
  <rect fill="rgb(0,0,255)" height="10" width="10" x="110" y="180"/>
  <rect fill="rgb(204,255,255)" height="10" width="10" x="120" y="180"/>
  <rect fill="rgb(255,255,102)" height="10" width="10" x="130" y="180"/>
  <rect fill="rgb(102,102,255)" height="10" width="10" x="140" y="180"/>
  <rect fill="rgb(0,255,255)" height="10" width="10" x="150" y="180"/>
  <rect fill="rgb(204,255,255)" height="10" width="10" x="160" y="180"/>
  <rect fill="rgb(255,255,0)" height="10" width="10" x="170" y="180"/>
  <rect fill="rgb(0,255,255)" height="10" width="10" x="180" y="180"/>
  <rect fill="rgb(255,255,102)" height="10" width="10" x="190" y="180"/>
  <rect fill="rgb(204,255,255)" height="10" width="10" x="00" y="190"/>
  <rect fill="rgb(0,255,255)" height="10" width="10" x="10" y="190"/>
  <rect fill="rgb(51,51,255)" height="10" width="10" x="20" y="190"/>
  <rect fill="rgb(255,255,51)" height="10" width="10" x="30" y="190"/>
  <rect fill="rgb(153,153,255)" height="10" width="10" x="40" y="190"/>
  <rect fill="rgb(153,153,255)" height="10" width="10" x="50" y="190"/>
  <rect fill="rgb(153,153,255)" height="10" width="10" x="60" y="190"/>
  <rect fill="rgb(0,0,255)" height="10" width="10" x="70" y="190"/>
  <rect fill="rgb(255,255,153)" height="10" width="10" x="80" y="190"/>
  <rect fill="rgb(51,51,255)" height="10" width="10" x="90" y="190"/>
  <rect fill="rgb(255,255,204)" height="10" width="10" x="100" y="190"/>
  <rect fill="rgb(255,255,51)" height="10" width="10" x="110" y="190"/>
  <rect fill="rgb(102,102,255)" height="10" width="10" x="120" y="190"/>
  <rect fill="rgb(51,255,255)" height="10" width="10" x="130" y="190"/>
  <rect fill="rgb(102,255,255)" height="10" width="10" x="140" y="190"/>
  <rect fill="rgb(255,255,102)" height="10" width="10" x="150" y="190"/>
  <rect fill="rgb(255,255,153)" height="10" width="10" x="160" y="190"/>
  <rect fill="rgb(255,255,51)" height="10" width="10" x="170" y="190"/>
  <rect fill="rgb(255,255,102)" height="10" width="10" x="180" y="190"/>
  <rect fill="rgb(0,255,255)" height="10" width="10" x="190" y="190"/>
</svg>