<svg width="160" height="45" viewBox="0 0 160 45" fill="none" xmlns="http://www.w3.org/2000/svg">
    <path d="M26.7011 6.86621H16.2694C15.9209 6.86621 15.6416 7.16375 15.634 7.5336C15.4232 17.9295 10.2979 27.7965 1.47608 34.7853C1.196 35.0071 1.13219 35.424 1.33695 35.7242L7.44034 44.6797C7.64798 44.9845 8.05253 45.0533 8.33732 44.8294C13.8534 40.4881 18.2901 35.2509 21.4853 29.446C24.6804 35.2509 29.1174 40.4881 34.6335 44.8294C34.918 45.0533 35.3225 44.9845 35.5304 44.6797L41.6338 35.7242C41.8383 35.424 41.7745 35.0071 41.4947 34.7853C32.6727 27.7965 27.5473 17.9295 27.3368 7.5336C27.3292 7.16375 27.0497 6.86621 26.7011 6.86621Z" fill="black"/>
    <path d="M41.3153 13.3506L40.2039 9.91686C39.9778 9.21974 39.4272 8.67672 38.7262 8.46203L35.2758 7.40122C34.7997 7.25471 34.7946 6.5816 35.2695 6.4288L38.7023 5.31745C39.3994 5.09141 39.9438 4.53953 40.1585 3.83989L41.2181 0.389694C41.3646 -0.0876746 42.0378 -0.0927361 42.1918 0.382132L43.3032 3.81587C43.5293 4.51299 44.08 5.05604 44.7809 5.27199L48.2314 6.33154C48.7075 6.47805 48.7125 7.15116 48.2377 7.30523L44.8049 8.41657C44.1078 8.64135 43.5634 9.19323 43.3487 9.89414L42.2891 13.3431C42.1426 13.8204 41.4694 13.8255 41.3153 13.3506Z" fill="black"/>
    <g clip-path="url(#clip0_1491_9684)">
        <path d="M132.512 18.646H129.568V15.1458C129.568 14.9604 129.484 14.7893 129.338 14.6762C129.196 14.5664 129.014 14.5274 128.841 14.5702L126.251 15.1992C125.986 15.2638 125.8 15.5004 125.8 15.7751V18.646H124.324C123.998 18.646 123.733 18.9127 123.733 19.2408V21.3591C123.733 21.6871 123.998 21.9542 124.325 21.9542H125.8V30.5001C125.834 34.1328 128.19 34.6333 130.73 34.6333C130.981 34.6333 131.232 34.6263 131.487 34.6187C131.745 34.6111 132.006 34.6032 132.275 34.6032L132.305 34.6013C132.651 34.5574 132.866 34.3185 132.866 33.978V31.7082C132.866 31.3802 132.601 31.1136 132.275 31.1136H131.384C130.094 31.1136 129.568 30.5494 129.568 29.1665V21.9542H132.512C132.839 21.9542 133.103 21.6871 133.103 21.3591V19.2408C133.103 18.9127 132.839 18.646 132.512 18.646Z" fill="black"/>
        <path d="M116.674 18.4038C115.132 18.4038 113.924 18.8726 113.076 19.7979V19.2408C113.076 18.9016 112.822 18.6459 112.485 18.6459H109.752C109.414 18.6459 109.16 18.9016 109.16 19.2408V33.978C109.16 34.3172 109.414 34.5731 109.752 34.5731H112.485C112.822 34.5731 113.076 34.3172 113.076 33.978V24.7483C113.076 23.0408 114.128 21.8934 115.694 21.8934C117.265 21.8934 118.281 23.0259 118.281 24.7784V33.978C118.281 34.3172 118.535 34.5731 118.872 34.5731H121.606C121.943 34.5731 122.197 34.3172 122.197 33.978V24.0523C122.197 20.621 120.029 18.4038 116.674 18.4038Z" fill="black"/>
        <path d="M102.892 25.0309H97.0741C97.1081 24.5247 97.1741 24.1712 97.2914 23.8613L97.2969 23.8453C97.6757 22.5683 98.584 21.8935 99.9235 21.8935C101.366 21.8935 102.388 22.6675 102.73 24.0329C102.803 24.2541 102.86 24.6109 102.892 25.0309ZM99.9235 18.4039C96.7487 18.4039 94.3431 20.1749 93.4895 23.136C93.2097 24.0199 93.0896 25.1231 93.1226 26.5033C93.1226 28.2005 93.3521 29.5664 93.8218 30.6731C94.8614 33.3033 97.1323 34.7852 100.218 34.8451C100.255 34.8457 100.293 34.8459 100.331 34.8459C102.899 34.8459 105.102 33.7981 106.39 31.955C106.572 31.6763 106.525 31.3973 106.255 31.1688L104.414 29.6266C104.243 29.481 104.084 29.4675 103.98 29.4794C103.87 29.4935 103.708 29.5537 103.562 29.7619C102.829 30.8195 101.815 31.3556 100.551 31.3556C98.8261 31.3282 97.7306 30.6393 97.2862 29.285C97.1554 28.9917 97.098 28.5655 97.0474 28.0972H106.252C106.605 28.0972 106.842 27.8597 106.843 27.5057C106.874 26.483 106.87 25.6799 106.753 24.843C106.253 20.5702 103.956 18.4039 99.9235 18.4039Z" fill="black"/>
        <path d="M86.8864 26.4736C86.8864 28.1423 86.8224 28.5729 86.6858 29.1018C86.3747 30.3685 85.4334 31.0951 84.1027 31.0951C82.7873 31.0951 81.765 30.3335 81.3621 29.0427C81.2346 28.7174 81.0823 28.0133 81.0823 26.5037C81.0823 25.3108 81.1895 24.4958 81.4253 23.924C81.8603 22.6267 82.8255 21.8825 84.073 21.8825C85.3941 21.8825 86.3595 22.6381 86.6588 23.9158C86.8204 24.4651 86.8864 24.8501 86.8864 26.4736ZM90.1992 18.6458H87.4764C87.1401 18.6458 86.8864 18.901 86.8864 19.2393V19.6392C85.9825 18.809 84.8068 18.4048 83.3035 18.4048C80.6437 18.4048 78.4714 20.0142 77.6365 22.599C77.205 23.8161 77.1498 25.3251 77.1498 26.5037C77.1498 28.0507 77.2746 29.2287 77.5444 30.2177C78.4857 33.3177 81.2436 34.422 83.5107 34.422C84.9233 34.422 86.0581 34.0289 86.8858 33.2556C86.8704 34.551 86.5264 35.4834 85.8354 36.104C84.9304 36.9165 83.3988 37.2088 81.1307 36.999C80.5445 36.999 80.4813 37.3926 80.4813 37.5537L80.3925 40.0339C80.3925 40.3809 80.5906 40.6133 80.9287 40.6566C81.4904 40.7138 82.0368 40.7426 82.5642 40.7426C85.1011 40.7426 87.2137 40.0846 88.6175 38.8363C90.0584 37.5545 90.7889 35.677 90.7889 33.2559V19.2393C90.7889 18.901 90.5353 18.6458 90.1992 18.6458Z" fill="black"/>
        <path d="M75.8222 18.7083C75.4069 18.5443 74.9493 18.4646 74.423 18.4646C73.0252 18.4646 71.8872 19.0252 71.033 20.1325V19.241C71.033 18.913 70.7678 18.6459 70.4416 18.6459H67.7081C67.3819 18.6459 67.1167 18.9127 67.1167 19.2408V33.978C67.1167 34.306 67.3822 34.5731 67.7084 34.5731H70.4416C70.7678 34.5731 71.033 34.306 71.033 33.978V25.4142C71.033 23.5678 72.3841 22.6647 73.7425 22.5872C74.2141 22.5219 74.481 22.5433 74.7819 22.6021C75.1178 22.6677 75.4349 22.4644 75.51 22.1388L76.2349 19.5097C76.3086 19.1752 76.1311 18.8306 75.8222 18.7083Z" fill="black"/>
        <path d="M60.4439 27.6735V29.0153C60.4439 30.613 58.7658 31.5676 57.1432 31.5676C56.0505 31.5676 54.8825 31.0958 54.8825 29.7717C54.8825 28.4383 56.0313 27.6735 58.0345 27.6735H60.4439ZM57.8564 18.404C54.8366 18.404 52.4261 19.7693 51.7154 21.8827C51.6549 22.0624 51.6758 22.2576 51.7723 22.4187C51.8627 22.5694 52.0122 22.6743 52.1837 22.7077L54.8778 23.3746C55.1601 23.4259 55.4409 23.2765 55.5495 23.0195C55.8576 22.2934 56.7082 21.8935 57.9455 21.8935C59.5799 21.8935 60.4439 22.6714 60.4439 24.1433V24.7891H57.3513C53.3347 24.7891 50.9365 26.7422 50.9365 30.0141C50.9365 33.5538 53.698 34.8151 56.2819 34.8151C58.015 34.8151 59.4474 34.3064 60.4439 33.3445V33.9781C60.4439 34.3062 60.7094 34.573 61.0356 34.573H63.7685C64.0947 34.573 64.3602 34.3062 64.3602 33.9781V23.7802C64.3602 20.6147 61.6859 18.404 57.8564 18.404Z" fill="black"/>
    </g>
    <path d="M142.653 34.583H146.034C146.195 34.583 146.356 34.5149 146.437 34.4014L149.952 29.2259C150.006 29.1351 150.06 29.1351 150.113 29.2259L153.602 34.4014C153.683 34.5149 153.844 34.583 154.005 34.583H157.386C157.627 34.583 157.762 34.4695 157.627 34.2652L152.421 26.7063C152.394 26.6609 152.394 26.6155 152.421 26.5701L157.627 19.0112C157.762 18.8069 157.627 18.6934 157.386 18.6934H154.005C153.844 18.6934 153.683 18.7615 153.602 18.875L150.113 24.0731C150.06 24.1639 150.006 24.1639 149.952 24.0731L146.464 18.875C146.383 18.7615 146.222 18.6934 146.061 18.6934H142.653C142.412 18.6934 142.277 18.8069 142.412 19.0112L147.618 26.5701C147.645 26.6155 147.645 26.6609 147.618 26.7063L142.412 34.2652C142.277 34.4695 142.412 34.583 142.653 34.583Z" fill="black"/>
    <defs>
        <clipPath id="clip0_1491_9684">
            <rect width="133.055" height="38.4273" fill="white" transform="translate(0.0488281 6.45508)"/>
        </clipPath>
    </defs>
</svg>
