<svg width="174" height="51" viewBox="0 0 174 51" fill="none" xmlns="http://www.w3.org/2000/svg">
<g clip-path="url(#clip0_7_33)">
<path d="M173.227 16.1779H169.377V11.533C169.377 11.2869 169.267 11.0599 169.076 10.9098C168.89 10.7641 168.652 10.7123 168.426 10.7692L165.039 11.6039C164.692 11.6895 164.45 12.0036 164.45 12.3681V16.1779H162.519C162.093 16.1779 161.746 16.5319 161.746 16.9673V19.7783C161.746 20.2136 162.093 20.568 162.52 20.568H164.45V31.9089C164.493 36.7298 167.574 37.3939 170.896 37.3939C171.224 37.3939 171.553 37.3846 171.886 37.3745C172.223 37.3644 172.564 37.354 172.916 37.354L172.955 37.3515C173.408 37.2932 173.689 36.9762 173.689 36.5243V33.5122C173.689 33.0768 173.343 32.7231 172.916 32.7231H171.751C170.064 32.7231 169.377 31.9744 169.377 30.1391V20.568H173.227C173.653 20.568 174 20.2136 174 19.7783V16.9673C174 16.5319 173.653 16.1779 173.227 16.1779Z" fill="#121212"/>
<path d="M152.515 15.8565C150.498 15.8565 148.919 16.4786 147.81 17.7066V16.9672C147.81 16.5171 147.477 16.1778 147.036 16.1778H143.462C143.021 16.1778 142.688 16.5171 142.688 16.9672V36.5243C142.688 36.9744 143.021 37.314 143.462 37.314H147.036C147.477 37.314 147.81 36.9744 147.81 36.5243V24.276C147.81 22.01 149.185 20.4874 151.233 20.4874C153.288 20.4874 154.616 21.9902 154.616 24.3159V36.5243C154.616 36.9744 154.949 37.314 155.39 37.314H158.964C159.405 37.314 159.738 36.9744 159.738 36.5243V23.3524C159.738 18.7989 156.903 15.8565 152.515 15.8565Z" fill="#121212"/>
<path d="M134.491 24.651H126.883C126.928 23.9793 127.014 23.5101 127.168 23.0989L127.175 23.0776C127.67 21.383 128.858 20.4875 130.61 20.4875C132.496 20.4875 133.832 21.5147 134.28 23.3266C134.375 23.6202 134.45 24.0937 134.491 24.651ZM130.61 15.8567C126.458 15.8567 123.312 18.2068 122.196 22.1364C121.83 23.3093 121.673 24.7733 121.716 26.605C121.716 28.8573 122.016 30.6699 122.63 32.1386C123.99 35.6289 126.96 37.5955 130.994 37.675C131.044 37.6757 131.093 37.6761 131.143 37.6761C134.501 37.6761 137.382 36.2855 139.066 33.8397C139.304 33.4698 139.242 33.0996 138.89 32.7963L136.483 30.7498C136.259 30.5566 136.05 30.5386 135.914 30.5544C135.77 30.5731 135.559 30.653 135.368 30.9293C134.41 32.3329 133.083 33.0442 131.43 33.0442C129.174 33.0078 127.742 32.0936 127.161 30.2965C126.99 29.9072 126.915 29.3416 126.848 28.7202H138.885C139.347 28.7202 139.657 28.405 139.659 27.9352C139.699 26.578 139.694 25.5123 139.54 24.4017C138.887 18.7314 135.883 15.8567 130.61 15.8567Z" fill="#121212"/>
<path d="M113.561 26.5655C113.561 28.78 113.477 29.3514 113.298 30.0533C112.891 31.7343 111.661 32.6985 109.92 32.6985C108.2 32.6985 106.863 31.6879 106.336 29.9749C106.17 29.5432 105.971 28.6088 105.971 26.6055C105.971 25.0224 106.111 23.9409 106.419 23.1821C106.988 21.4605 108.25 20.4729 109.882 20.4729C111.609 20.4729 112.872 21.4756 113.263 23.1713C113.474 23.9002 113.561 24.4111 113.561 26.5655ZM117.893 16.1777H114.332C113.892 16.1777 113.561 16.5163 113.561 16.9653V17.496C112.379 16.3943 110.841 15.8578 108.875 15.8578C105.397 15.8578 102.556 17.9936 101.464 21.4238C100.9 23.0389 100.828 25.0415 100.828 26.6055C100.828 28.6584 100.991 30.2217 101.344 31.5342C102.575 35.6481 106.181 37.1135 109.146 37.1135C110.993 37.1135 112.477 36.5918 113.56 35.5657C113.54 37.2847 113.09 38.5221 112.186 39.3456C111.003 40.4239 109 40.8118 106.034 40.5333C105.267 40.5333 105.185 41.0557 105.185 41.2694L105.068 44.5608C105.068 45.0213 105.328 45.3296 105.77 45.3872C106.504 45.4631 107.219 45.5013 107.908 45.5013C111.226 45.5013 113.989 44.628 115.825 42.9716C117.709 41.2705 118.664 38.7789 118.664 35.566V16.9653C118.664 16.5163 118.332 16.1777 117.893 16.1777Z" fill="#121212"/>
<path d="M99.0917 16.2606C98.5487 16.0429 97.9503 15.9371 97.262 15.9371C95.4341 15.9371 93.9458 16.6812 92.8288 18.1506V16.9676C92.8288 16.5322 92.482 16.1778 92.0554 16.1778H88.4808C88.0542 16.1778 87.7074 16.5319 87.7074 16.9672V36.5243C87.7074 36.9596 88.0546 37.314 88.4812 37.314H92.0554C92.482 37.314 92.8288 36.9596 92.8288 36.5243V25.1596C92.8288 22.7095 94.5956 21.511 96.3721 21.4081C96.9889 21.3214 97.3378 21.3498 97.7314 21.4279C98.1706 21.5149 98.5853 21.2451 98.6834 20.813L99.6315 17.3241C99.7278 16.8801 99.4957 16.4229 99.0917 16.2606Z" fill="#121212"/>
<path d="M78.9812 28.1579V29.9385C78.9812 32.0587 76.7867 33.3256 74.6648 33.3256C73.2359 33.3256 71.7084 32.6995 71.7084 30.9423C71.7084 29.1729 73.2107 28.1579 75.8303 28.1579H78.9812ZM75.5975 15.8567C71.6484 15.8567 68.4961 17.6686 67.5667 20.4732C67.4876 20.7117 67.5149 20.9708 67.6411 21.1845C67.7593 21.3845 67.9548 21.5237 68.1791 21.568L71.7023 22.4531C72.0714 22.5211 72.4387 22.3228 72.5807 21.9818C72.9836 21.0182 74.0959 20.4876 75.7139 20.4876C77.8512 20.4876 78.9812 21.5198 78.9812 23.4731V24.3301H74.9369C69.6843 24.3301 66.5482 26.922 66.5482 31.264C66.5482 35.9614 70.1594 37.6351 73.5385 37.6351C75.8048 37.6351 77.678 36.9602 78.9812 35.6836V36.5244C78.9812 36.9598 79.3284 37.3138 79.755 37.3138H83.3288C83.7554 37.3138 84.1026 36.9598 84.1026 36.5244V22.9913C84.1026 18.7904 80.6053 15.8567 75.5975 15.8567Z" fill="#121212"/>
<path d="M35.0239 0H20.6874C20.2083 0 19.8245 0.398297 19.814 0.89338C19.5244 14.8097 12.4805 28.0179 0.356458 37.3733C-0.02846 37.6702 -0.116153 38.2282 0.165258 38.6301L8.5533 50.6182C8.83866 51.0262 9.39466 51.1183 9.78604 50.8186C17.3669 45.0072 23.4645 37.9965 27.8556 30.2259C32.2468 37.9965 38.3447 45.0072 45.9255 50.8186C46.3166 51.1183 46.8726 51.0262 47.1583 50.6182L55.5463 38.6301C55.8274 38.2282 55.7397 37.6702 55.3551 37.3733C43.2308 28.0179 36.1869 14.8097 35.8976 0.89338C35.8871 0.398297 35.5029 0 35.0239 0Z" fill="#FF875B"/>
</g>
<defs>
<clipPath id="clip0_7_33">
<rect width="174" height="50.9951" fill="white"/>
</clipPath>
</defs>
</svg>
