<svg width="214" height="214" viewBox="0 0 214 214" fill="none" xmlns="http://www.w3.org/2000/svg">
<rect width="214" height="214" rx="107" fill="black"/>
<g clip-path="url(#clip0_584_3348)">
<path d="M177.691 136.72C173 139.989 172.246 143.55 172.123 144.536C171.379 144.973 170.686 145.361 170.056 145.704C171.049 144.051 171.987 142.366 172.854 140.643C174.29 137.709 175.536 134.686 176.581 131.597C176.697 131.258 176.811 130.918 176.917 130.578C177.733 128.04 178.907 125.627 180.479 123.473C180.586 123.328 180.69 123.185 180.79 123.04C193.925 115.854 187.898 101.197 187.898 101.197C188.095 104.435 184.97 106.905 181.76 112.804C179.027 117.827 179.942 121.349 180.279 122.286C179.606 123.325 178.978 124.23 178.435 124.984C178.648 124.039 178.849 123.095 179.033 122.144C179.658 118.949 180.004 115.705 180.162 112.461L180.214 111.245C180.237 110.841 180.25 110.434 180.243 110.029V107.594C180.22 106.782 180.169 105.974 180.136 105.162C180.114 104.758 180.107 104.35 180.072 103.946L179.962 102.733C179.887 101.931 179.933 101.12 180.091 100.331L181.033 95.6995V95.7059C190.609 84.1961 179.619 72.7767 179.619 72.7767C180.994 75.7164 178.994 79.1574 178.176 85.826C177.48 91.5017 179.625 94.4382 180.279 95.1885C180.007 96.5339 179.729 97.7078 179.48 98.6651L179.373 97.9115C179.279 97.1063 179.088 96.3172 178.946 95.5184L178.716 94.325C178.642 93.9272 178.564 93.5294 178.461 93.1381C178.069 91.5664 177.713 89.9882 177.212 88.4488L176.862 87.2878L176.688 86.7089L176.484 86.1365L175.665 83.8532C175.148 82.5273 174.607 81.2078 174.028 79.9077C172.993 77.5728 172.346 75.0761 172.204 72.5277C172.171 71.9359 172.123 71.3537 172.068 70.7845V70.791C177.225 56.7359 163.035 49.6664 163.035 49.6664C165.316 51.9722 164.588 55.8886 166.057 62.444C167.306 68.0227 170.314 70.0698 171.185 70.5582C171.46 72.4662 171.608 74.0671 171.686 75.1828C171.663 75.144 171.644 75.102 171.621 75.0632L171.045 73.9992C170.855 73.6434 170.631 73.3071 170.428 72.9578L169.176 70.888L167.826 68.8829C167.6 68.5498 167.38 68.2135 167.147 67.8836L166.422 66.9167C165.678 65.885 164.892 64.8825 164.08 63.9058C162.945 62.4699 161.392 60.3936 160.043 58.8963C159.409 58.1945 158.855 57.4216 158.448 56.5645C152.537 44.1168 138.121 47.616 138.121 47.616C141.359 47.823 143.42 51.2284 148.878 55.148C153.194 58.2462 156.613 58.0619 157.859 57.8452C158.008 57.8937 158.189 57.9519 158.341 58.0004L159.991 59.7274C162.145 62.098 164.21 64.5558 166.015 67.198L166.707 68.1747C166.93 68.5078 167.141 68.8474 167.357 69.1837L168.645 71.205L169.188 72.159C167.755 70.943 166.309 69.8823 164.882 68.9638H164.886C157.112 56.17 142.734 62.8483 142.734 62.8483C145.96 62.5054 148.567 65.5163 154.611 68.456C159.751 70.9592 163.229 69.8887 164.151 69.5103C166.209 70.7166 167.924 71.8971 168.913 72.6085C169.538 73.0581 170.065 73.637 170.411 74.3226C170.411 74.3258 170.415 74.329 170.418 74.3323L170.958 75.3995C172.45 78.2228 173.65 81.1884 174.73 84.1863L175.478 86.4566L175.662 87.0226L175.821 87.5982L176.138 88.7496C176.594 90.276 176.904 91.8381 177.247 93.3904C177.341 93.7785 177.406 94.1698 177.467 94.5611V94.5805C176.5 93.0896 175.484 91.7281 174.439 90.4959H174.442C170.754 75.9881 155.051 78.1678 155.051 78.1678C158.237 78.7823 159.848 82.4238 164.766 87.0064C168.949 90.9034 172.589 90.8969 173.582 90.8064C174.708 92.0321 175.633 93.1284 176.312 93.9757C177.26 95.1529 177.881 96.5662 178.021 98.07C178.021 98.0765 178.021 98.0862 178.021 98.0927L178.292 100.46L178.36 101.052L178.399 101.647L178.477 102.837L178.554 104.024C178.58 104.418 178.577 104.816 178.587 105.214C178.6 106.006 178.629 106.802 178.626 107.594L178.567 109.974C178.567 110.372 178.541 110.767 178.509 111.161L178.428 112.348C178.299 114.062 178.118 115.77 177.868 117.468C177.529 116.041 177.134 114.683 176.688 113.406C178.425 98.539 162.977 94.9718 162.977 94.9718C165.733 96.6826 165.94 100.66 168.894 106.692C171.411 111.828 174.811 113.118 175.772 113.39C176.141 114.315 176.458 115.172 176.723 115.928C177.377 117.788 177.516 119.793 177.092 121.717L177.086 121.746C176.406 124.835 175.575 127.894 174.472 130.857C173.381 133.822 172.103 136.713 170.644 139.511C170.211 140.323 169.758 141.121 169.295 141.914C169.564 140.238 169.713 138.621 169.774 137.076V137.082C176.84 123.881 163.776 114.903 163.776 114.903C165.714 117.507 164.446 121.281 164.986 127.978C165.445 133.677 168.137 136.125 168.93 136.726C168.93 136.943 168.93 137.16 168.93 137.37C168.907 140.995 167.797 144.543 165.698 147.499C165.688 147.515 165.678 147.528 165.665 147.544C163.85 150.118 161.806 152.521 159.658 154.811C159.108 155.37 158.59 155.962 158.011 156.499L156.312 158.129C156.287 158.106 156.293 158.113 156.267 158.09C156.785 157.169 157.254 156.257 157.674 155.354C169.305 145.927 160.745 132.59 160.745 132.59C161.521 135.74 158.891 138.728 156.791 145.112C155.005 150.542 156.539 153.844 157.034 154.704C156.691 155.526 156.361 156.279 156.05 156.949C155.293 158.592 154.184 160.053 152.757 161.166L152.734 161.182C150.282 163.135 147.726 164.963 145.025 166.547C143.453 167.475 141.848 168.345 140.217 169.157C140.897 168.455 141.531 167.75 142.11 167.042C153.252 161.906 149.15 149.588 149.15 149.588C149.13 152.246 146.435 154.087 143.478 158.731C140.961 162.683 141.511 165.613 141.731 166.395C141.369 166.877 141.023 167.32 140.699 167.728C139.635 169.06 138.263 170.124 136.691 170.79L136.668 170.8C133.786 172.006 130.829 173.025 127.82 173.859L127.788 173.869H127.778C126.963 174.105 126.361 174.83 126.342 175.674C126.309 177.123 127.649 178.044 128.901 177.663C132.058 176.699 135.154 175.541 138.16 174.193C141.162 172.831 144.051 171.237 146.84 169.49C148.519 168.446 150.143 167.31 151.715 166.114C153.854 164.487 156.419 163.52 159.095 163.291H159.091C173.074 168.656 180.36 154.581 180.36 154.581C178.017 156.826 174.112 156.04 167.532 157.408C161.932 158.572 159.839 161.547 159.337 162.408C157.992 162.582 156.801 162.692 155.821 162.767C156.71 161.984 157.571 161.169 158.438 160.364L160.169 158.614C160.754 158.042 161.282 157.411 161.841 156.81C164.022 154.365 166.083 151.81 167.901 149.087C167.936 149.032 167.975 148.977 168.011 148.922C168.904 147.589 170.123 146.516 171.553 145.788C171.786 145.668 172.016 145.549 172.246 145.429H172.243C187.208 144.873 188.373 129.068 188.373 129.068C187.102 132.053 183.203 132.865 177.691 136.707V136.72Z" fill="white"/>
<path d="M36.3146 136.72C41.0056 139.989 41.7594 143.55 41.8824 144.536C42.6265 144.973 43.3188 145.361 43.9496 145.704C42.9564 144.051 42.0182 142.366 41.1512 140.643C39.7148 137.709 38.4725 134.686 37.4243 131.597C37.3078 131.257 37.1946 130.918 37.0878 130.578C36.2725 128.04 35.0982 125.627 33.5259 123.473C33.4191 123.328 33.3156 123.185 33.2153 123.04C20.0804 115.857 26.1076 101.197 26.1076 101.197C25.9102 104.434 29.0354 106.905 32.2447 112.804C34.9785 117.827 34.0629 121.348 33.7265 122.286C34.3994 123.324 35.027 124.23 35.5705 124.983C35.357 124.039 35.1564 123.095 34.972 122.144C34.3476 118.949 34.0014 115.705 33.8429 112.461L33.7912 111.245C33.7685 110.841 33.7556 110.434 33.7653 110.029V107.594C33.7879 106.782 33.8397 105.974 33.872 105.162C33.8947 104.758 33.9012 104.35 33.9367 103.946L34.0467 102.733C34.1211 101.931 34.0759 101.12 33.9173 100.331L32.9759 95.6994V95.7059C23.3997 84.196 34.3897 72.7766 34.3897 72.7766C33.0147 75.7163 35.0141 79.1574 35.8326 85.8259C36.5281 91.5016 34.3832 94.4381 33.7297 95.1884C34.0014 96.5338 34.2797 97.7077 34.5288 98.665L34.6355 97.9115C34.7294 97.1062 34.9202 96.3171 35.0626 95.5183L35.2923 94.3249C35.3667 93.9271 35.4443 93.5294 35.5479 93.138C35.9393 91.5663 36.2952 89.9881 36.7966 88.4487L37.146 87.2877L37.3207 86.7088L37.5246 86.1364L38.3431 83.8532C38.8607 82.5272 39.401 81.2077 39.9801 79.9076C41.0186 77.5727 41.6624 75.076 41.8047 72.5276C41.8371 71.9358 41.8856 71.3536 41.9406 70.7845V70.7909C36.7869 56.7294 50.9765 49.663 50.9765 49.663C48.6957 51.9689 49.4236 55.8853 47.9548 62.4407C46.706 68.0194 43.6973 70.0665 42.827 70.5548C42.552 72.4629 42.4032 74.0638 42.3256 75.1795C42.3482 75.1407 42.3676 75.0986 42.3903 75.0598L42.9629 73.9958C43.1538 73.6401 43.377 73.3038 43.5808 72.9545L44.8329 70.8847L46.1819 68.8796C46.4084 68.5465 46.6284 68.2102 46.8613 67.8803L47.586 66.9133C48.3301 65.8817 49.1162 64.8791 49.9283 63.9025C51.0638 62.4665 52.6167 60.3903 53.9658 58.8929C54.5999 58.1912 55.1563 57.4182 55.5607 56.5612C61.465 44.1167 75.8842 47.6159 75.8842 47.6159C72.6458 47.8229 70.585 51.2283 65.1272 55.1479C60.8115 58.2461 57.3919 58.0618 56.1463 57.8451C55.9943 57.8936 55.8163 57.9518 55.6643 58.0004L54.0143 59.7273C51.8597 62.0979 49.7956 64.5557 47.9904 67.1979L47.2981 68.1746C47.0748 68.5077 46.8646 68.8473 46.6478 69.1836L45.3602 71.2049L44.8167 72.1589C46.2499 70.9429 47.696 69.8822 49.1227 68.9637H49.1195C56.8936 56.1699 71.2708 62.8482 71.2708 62.8482C68.0453 62.5054 65.4378 65.5162 59.3944 68.456C54.2537 70.9591 50.7759 69.8886 49.8539 69.5103C47.7931 70.7165 46.0816 71.897 45.0917 72.6084C44.4673 73.058 43.9399 73.6369 43.5938 74.3225C43.5938 74.3257 43.5905 74.329 43.5873 74.3322L43.047 75.3994C41.5556 78.2227 40.3554 81.1883 39.2748 84.1863L38.5275 86.4565L38.3431 87.0225L38.1845 87.5982L37.8675 88.7495C37.4113 90.2759 37.1008 91.838 36.7578 93.3903C36.664 93.7784 36.5993 94.1697 36.5346 94.561V94.5804C37.5019 93.0895 38.521 91.728 39.5627 90.4958H39.5595C43.2476 75.988 58.9512 78.1677 58.9512 78.1677C55.7646 78.7822 54.1534 82.4237 49.2359 87.0063C45.0528 90.9033 41.4133 90.8969 40.4201 90.8063C39.2942 92.032 38.3722 93.1283 37.6896 93.9757C36.7449 95.1528 36.1205 96.5661 35.9814 98.0699V98.0926L35.7096 100.46L35.6417 101.052L35.6029 101.647L35.5252 102.837L35.4476 104.024C35.4217 104.418 35.4249 104.816 35.4152 105.214C35.4023 106.006 35.3732 106.802 35.3764 107.594L35.4346 109.974C35.4346 110.372 35.4605 110.767 35.4929 111.161L35.5737 112.348C35.7032 114.062 35.8843 115.77 36.1334 117.468C36.4731 116.041 36.8678 114.683 37.3143 113.406C35.577 98.5389 51.025 94.9717 51.025 94.9717C48.2686 96.6825 48.0616 100.66 45.1078 106.692C42.5909 111.827 39.1907 113.118 38.2298 113.39C37.861 114.314 37.544 115.171 37.2787 115.928C36.6252 117.788 36.4861 119.793 36.9099 121.717L36.9163 121.746C37.5957 124.835 38.4272 127.894 39.5304 130.856C40.6206 133.822 41.8985 136.713 43.3576 139.511C43.7911 140.322 44.244 141.121 44.7067 141.914C44.4382 140.238 44.2893 138.621 44.2279 137.076V137.082C37.1622 123.881 50.2259 114.903 50.2259 114.903C48.288 117.506 49.5562 121.281 49.016 127.978C48.5566 133.677 45.8649 136.125 45.0723 136.726C45.0723 136.943 45.0723 137.16 45.0723 137.37C45.0949 140.995 46.2046 144.543 48.3042 147.499C48.3139 147.515 48.3236 147.528 48.3366 147.544C50.1515 150.118 52.1961 152.521 54.3443 154.811C54.8943 155.37 55.4119 155.962 55.991 156.499L57.6895 158.129C57.7186 158.106 57.7089 158.113 57.7348 158.09C57.2172 157.169 56.7513 156.257 56.3307 155.354C44.7002 145.927 53.2605 132.59 53.2605 132.59C52.4841 135.74 55.1143 138.728 57.2139 145.112C58.9997 150.542 57.4663 153.844 56.9713 154.704C57.3142 155.526 57.6474 156.279 57.9548 156.949C58.7118 158.591 59.8215 160.053 61.2482 161.166C61.2547 161.172 61.2644 161.175 61.2708 161.182C63.7231 163.135 66.2789 164.963 68.9835 166.547C70.5558 167.475 72.1605 168.345 73.791 169.157C73.1116 168.455 72.4775 167.75 71.8984 167.042C60.7565 161.906 64.8587 149.588 64.8587 149.588C64.8781 152.246 67.573 154.086 70.53 158.731C73.0469 162.683 72.4969 165.613 72.277 166.395C72.6393 166.877 72.9855 167.32 73.309 167.728C74.3734 169.06 75.7451 170.124 77.3174 170.79L77.34 170.8C80.2226 172.006 83.1795 173.025 86.1883 173.859L86.2206 173.869H86.2303C87.0456 174.105 87.6473 174.83 87.6668 175.674C87.6991 177.122 86.3597 178.044 85.1077 177.663C81.9502 176.699 78.8541 175.541 75.8486 174.192C72.8464 172.831 69.9573 171.237 67.1686 169.49C65.4895 168.446 63.8655 167.31 62.2932 166.114C60.1547 164.487 57.5892 163.52 54.9137 163.291H54.9169C40.9345 168.656 33.6488 154.581 33.6488 154.581C35.9911 156.826 39.896 156.04 46.4763 157.408C52.0764 158.572 54.1696 161.547 54.6711 162.408C56.0169 162.582 57.2075 162.692 58.1877 162.767C57.298 161.984 56.4375 161.169 55.5704 160.364L53.8396 158.614C53.2541 158.042 52.7267 157.411 52.167 156.81C49.9865 154.365 47.9257 151.81 46.1075 149.087C46.0687 149.032 46.0331 148.977 45.9975 148.922C45.1046 147.589 43.8849 146.516 42.455 145.788C42.2221 145.668 41.9891 145.549 41.7627 145.429H41.7659C26.7999 144.873 25.6352 129.068 25.6352 129.068C26.9067 132.053 30.8051 132.865 36.3178 136.707L36.3146 136.72Z" fill="white"/>
<path d="M81.8874 95.1221H87.7107C91.228 95.1221 93.5341 93.1655 93.5341 90.1839V83.755C93.5341 80.7734 91.228 78.8168 87.7107 78.8168H81.8874C81.7244 78.8168 81.6079 78.9332 81.6079 79.0963V94.8426C81.6079 95.0057 81.7244 95.1221 81.8874 95.1221ZM84.8922 92.1872V81.7517C84.8922 81.6819 84.9388 81.6353 85.0087 81.6353H87.8039C89.2947 81.6353 90.2497 82.6835 90.2497 84.2907V89.6482C90.2264 91.2554 89.2714 92.3036 87.8272 92.3036H85.0087C84.9388 92.3036 84.8922 92.257 84.8922 92.1872ZM100.504 82.963C97.6625 82.963 95.5894 84.4305 95.3797 86.4104C95.3564 86.5269 95.4729 86.5968 95.6359 86.6201L98.4544 86.9927C98.6175 87.016 98.7107 86.9229 98.7573 86.7598C98.9436 86.1542 99.5958 85.7815 100.574 85.7815C101.832 85.7815 102.438 86.4104 102.438 87.412V87.9245C102.438 87.9944 102.391 88.041 102.321 88.041H99.9452C96.8006 88.041 95.1002 89.4618 95.1002 91.8145C95.1002 94.2137 96.8705 95.3085 99.1532 95.3085C100.597 95.3085 101.646 94.8892 102.298 94.0273C102.368 93.9342 102.438 93.9808 102.438 94.0739V94.8426C102.438 95.0057 102.554 95.1221 102.717 95.1221H105.442C105.606 95.1221 105.722 95.0057 105.722 94.8426V86.9462C105.722 84.6867 103.579 82.963 100.504 82.963ZM100.038 92.8627C99.0601 92.8627 98.4079 92.3502 98.4079 91.5117C98.4079 90.5333 99.2697 89.9976 100.644 89.9976H102.321C102.391 89.9976 102.438 90.0442 102.438 90.1141V90.9526C102.438 92.094 101.343 92.8627 100.038 92.8627ZM118.727 86.3638C118.052 84.2441 116.421 82.963 114.255 82.963C113.044 82.963 112.158 83.4522 111.553 84.2441C111.483 84.314 111.413 84.2907 111.413 84.1975V83.4289C111.413 83.2658 111.297 83.1493 111.133 83.1493H108.408C108.245 83.1493 108.129 83.2658 108.129 83.4289V99.1752C108.129 99.3382 108.245 99.4547 108.408 99.4547H111.133C111.297 99.4547 111.413 99.3382 111.413 99.1752V94.1904C111.413 94.0972 111.483 94.0506 111.553 94.1438C112.135 94.8659 112.974 95.3085 114.162 95.3085C116.514 95.3085 118.028 93.9808 118.704 92.0707C119.007 91.1856 119.146 90.2072 119.146 89.159C119.146 88.1807 119.03 87.2257 118.727 86.3638ZM115.163 91.5815C114.791 92.1639 114.255 92.49 113.533 92.49C112.834 92.49 112.298 92.1639 111.949 91.5582C111.599 90.9759 111.436 90.1606 111.436 89.1357C111.436 88.1574 111.599 87.3421 111.925 86.7831C112.275 86.1309 112.811 85.7815 113.533 85.7815C114.325 85.7815 114.907 86.1309 115.256 86.7831C115.583 87.3654 115.746 88.1574 115.746 89.1124C115.746 90.1374 115.536 90.9992 115.163 91.5815ZM131.966 86.3638C131.291 84.2441 129.66 82.963 127.494 82.963C126.283 82.963 125.397 83.4522 124.792 84.2441C124.722 84.314 124.652 84.2907 124.652 84.1975V83.4289C124.652 83.2658 124.536 83.1493 124.372 83.1493H121.647C121.484 83.1493 121.368 83.2658 121.368 83.4289V99.1752C121.368 99.3382 121.484 99.4547 121.647 99.4547H124.372C124.536 99.4547 124.652 99.3382 124.652 99.1752V94.1904C124.652 94.0972 124.722 94.0506 124.792 94.1438C125.374 94.8659 126.213 95.3085 127.401 95.3085C129.753 95.3085 131.267 93.9808 131.943 92.0707C132.246 91.1856 132.385 90.2072 132.385 89.159C132.385 88.1807 132.269 87.2257 131.966 86.3638ZM128.402 91.5815C128.03 92.1639 127.494 92.49 126.772 92.49C126.073 92.49 125.537 92.1639 125.188 91.5582C124.838 90.9759 124.675 90.1606 124.675 89.1357C124.675 88.1574 124.838 87.3421 125.164 86.7831C125.514 86.1309 126.05 85.7815 126.772 85.7815C127.564 85.7815 128.146 86.1309 128.495 86.7831C128.822 87.3654 128.985 88.1574 128.985 89.1124C128.985 90.1374 128.775 90.9992 128.402 91.5815ZM96.432 110.205C97.6019 110.205 98.4611 109.542 98.7614 108.476C98.8545 108.165 98.9063 107.803 98.9063 107.43C98.9063 107.047 98.8442 106.664 98.7407 106.343C98.4197 105.339 97.5915 104.718 96.4424 104.718C95.2725 104.718 94.4133 105.339 94.0923 106.354C93.9992 106.664 93.9474 107.058 93.9474 107.451C93.9474 107.824 93.9992 108.197 94.0923 108.507C94.3926 109.553 95.2622 110.205 96.432 110.205ZM96.432 108.952C95.9558 108.952 95.6245 108.652 95.4899 108.176C95.4382 107.989 95.4175 107.72 95.4175 107.451C95.4175 107.172 95.4382 106.902 95.5003 106.716C95.6349 106.261 95.9455 105.971 96.4217 105.971C96.8875 105.971 97.2085 106.25 97.3534 106.716C97.4052 106.902 97.4362 107.172 97.4362 107.451C97.4362 107.71 97.4052 107.969 97.3534 108.176C97.2188 108.652 96.8979 108.952 96.432 108.952ZM102.736 104.791H101.732C101.701 104.791 101.68 104.77 101.68 104.739V104.625C101.68 104.128 101.836 103.973 102.322 103.962H102.664C102.736 103.962 102.788 103.911 102.788 103.838V103C102.788 102.927 102.736 102.875 102.664 102.875H102.271C100.749 102.834 100.221 103.248 100.221 104.511V104.739C100.221 104.77 100.2 104.791 100.169 104.791H99.5582C99.4857 104.791 99.434 104.842 99.434 104.915V105.898C99.434 105.971 99.4857 106.022 99.5582 106.022H100.169C100.2 106.022 100.221 106.043 100.221 106.074V109.998C100.221 110.07 100.273 110.122 100.345 110.122H101.556C101.629 110.122 101.68 110.07 101.68 109.998V106.074C101.68 106.043 101.701 106.022 101.732 106.022H102.736C102.809 106.022 102.861 105.971 102.861 105.898V104.915C102.861 104.842 102.809 104.791 102.736 104.791ZM108.833 105.847V104.925C108.833 104.853 108.781 104.801 108.709 104.801H107.715C107.684 104.801 107.663 104.78 107.663 104.749V103.517C107.663 103.445 107.612 103.393 107.539 103.393H106.38C106.307 103.393 106.255 103.445 106.255 103.517V104.749C106.255 104.78 106.235 104.801 106.204 104.801H105.614C105.541 104.801 105.489 104.853 105.489 104.925V105.847C105.489 105.919 105.541 105.971 105.614 105.971H106.204C106.235 105.971 106.255 105.991 106.255 106.022V108.797C106.266 109.905 106.918 110.153 107.974 110.153C108.171 110.153 108.378 110.143 108.595 110.132C108.678 110.122 108.719 110.07 108.719 109.998V109.014C108.719 108.942 108.668 108.89 108.595 108.89H108.253C107.839 108.89 107.663 108.673 107.663 108.217V106.022C107.663 105.991 107.684 105.971 107.715 105.971H108.709C108.781 105.971 108.833 105.919 108.833 105.847ZM112.486 104.718C111.938 104.718 111.513 104.904 111.223 105.319C111.203 105.35 111.172 105.329 111.172 105.287V103C111.172 102.927 111.12 102.875 111.047 102.875H109.836C109.764 102.875 109.712 102.927 109.712 103V109.998C109.712 110.07 109.764 110.122 109.836 110.122H111.047C111.12 110.122 111.172 110.07 111.172 109.998V106.902C111.172 106.343 111.513 105.971 112.021 105.971C112.528 105.971 112.87 106.354 112.87 106.902V109.998C112.87 110.07 112.921 110.122 112.994 110.122H114.205C114.277 110.122 114.329 110.07 114.329 109.998V106.602C114.329 105.422 113.574 104.718 112.486 104.718ZM120.054 106.913C119.878 105.619 119.049 104.708 117.631 104.708C116.534 104.708 115.695 105.339 115.385 106.312C115.271 106.633 115.219 107.016 115.229 107.41C115.229 107.896 115.302 108.321 115.447 108.673C115.799 109.615 116.617 110.205 117.797 110.205C118.666 110.215 119.433 109.894 119.898 109.315C119.95 109.253 119.95 109.201 119.888 109.139L119.143 108.404C119.081 108.341 119.029 108.352 118.977 108.424C118.749 108.735 118.418 108.952 117.931 108.963C117.331 108.963 117 108.735 116.834 108.383C116.782 108.259 116.741 108.124 116.72 107.969C116.71 107.938 116.73 107.917 116.762 107.917H119.961C120.033 107.917 120.085 107.876 120.095 107.793C120.105 107.482 120.095 107.192 120.054 106.913ZM117.642 105.971C118.107 105.971 118.418 106.209 118.542 106.623C118.563 106.706 118.573 106.799 118.594 106.913C118.604 106.944 118.584 106.965 118.553 106.965H116.762C116.73 106.965 116.71 106.944 116.71 106.913C116.73 106.789 116.751 106.685 116.782 106.582C116.917 106.188 117.196 105.971 117.642 105.971ZM87.4889 115.451L84.0693 120.727C84.024 120.818 83.9787 120.818 83.9334 120.727L80.5365 115.451C80.4685 115.338 80.3553 115.27 80.2194 115.27H77.5698C77.4113 115.27 77.298 115.383 77.298 115.541V130.85C77.298 131.009 77.4113 131.122 77.5698 131.122H80.2194C80.3779 131.122 80.4912 131.009 80.4912 130.85V120.886C80.4912 120.773 80.5818 120.75 80.627 120.841L83.0276 124.6C83.0955 124.713 83.2087 124.781 83.3446 124.781H84.6807C84.8166 124.781 84.9298 124.713 84.9978 124.6L87.3983 120.841C87.4436 120.75 87.5342 120.75 87.5342 120.863V130.85C87.5342 131.009 87.6474 131.122 87.8059 131.122H90.4556C90.6141 131.122 90.7273 131.009 90.7273 130.85V115.541C90.7273 115.383 90.6141 115.27 90.4556 115.27H87.8059C87.6701 115.27 87.5568 115.338 87.4889 115.451ZM98.4235 131.303C100.983 131.303 102.862 129.854 103.519 127.521C103.723 126.842 103.836 126.049 103.836 125.234C103.836 124.396 103.7 123.558 103.474 122.856C102.772 120.66 100.96 119.301 98.4462 119.301C95.8871 119.301 94.0075 120.66 93.3054 122.879C93.1016 123.558 92.9884 124.419 92.9884 125.279C92.9884 126.095 93.1016 126.91 93.3054 127.589C93.9622 129.877 95.8645 131.303 98.4235 131.303ZM98.4235 128.563C97.3818 128.563 96.6571 127.906 96.3627 126.865C96.2495 126.457 96.2042 125.868 96.2042 125.279C96.2042 124.668 96.2495 124.079 96.3853 123.671C96.6798 122.675 97.3591 122.041 98.4009 122.041C99.42 122.041 100.122 122.652 100.439 123.671C100.552 124.079 100.62 124.668 100.62 125.279C100.62 125.846 100.552 126.412 100.439 126.865C100.145 127.906 99.4426 128.563 98.4235 128.563ZM111.958 119.301C110.758 119.301 109.829 119.708 109.195 120.614C109.15 120.682 109.082 120.637 109.082 120.546V119.754C109.082 119.595 108.969 119.482 108.81 119.482H106.16C106.002 119.482 105.889 119.595 105.889 119.754V130.85C105.889 131.009 106.002 131.122 106.16 131.122H108.81C108.969 131.122 109.082 131.009 109.082 130.85V124.079C109.082 122.856 109.829 122.041 110.939 122.041C112.048 122.041 112.796 122.879 112.796 124.079V130.85C112.796 131.009 112.909 131.122 113.068 131.122H115.717C115.876 131.122 115.989 131.009 115.989 130.85V123.422C115.989 120.841 114.336 119.301 111.958 119.301ZM124.954 121.769V119.754C124.954 119.595 124.841 119.482 124.682 119.482H122.508C122.44 119.482 122.395 119.437 122.395 119.369V116.674C122.395 116.515 122.282 116.402 122.123 116.402H119.587C119.428 116.402 119.315 116.515 119.315 116.674V119.369C119.315 119.437 119.27 119.482 119.202 119.482H117.911C117.753 119.482 117.639 119.595 117.639 119.754V121.769C117.639 121.928 117.753 122.041 117.911 122.041H119.202C119.27 122.041 119.315 122.086 119.315 122.154V128.223C119.338 130.647 120.764 131.19 123.074 131.19C123.505 131.19 123.958 131.167 124.433 131.145C124.614 131.122 124.705 131.009 124.705 130.85V128.699C124.705 128.54 124.592 128.427 124.433 128.427H123.686C122.78 128.427 122.395 127.952 122.395 126.955V122.154C122.395 122.086 122.44 122.041 122.508 122.041H124.682C124.841 122.041 124.954 121.928 124.954 121.769ZM132.946 119.301C131.745 119.301 130.817 119.708 130.183 120.614C130.137 120.682 130.069 120.637 130.069 120.546V115.541C130.069 115.383 129.956 115.27 129.798 115.27H127.148C126.99 115.27 126.876 115.383 126.876 115.541V130.85C126.876 131.009 126.99 131.122 127.148 131.122H129.798C129.956 131.122 130.069 131.009 130.069 130.85V124.079C130.069 122.856 130.817 122.041 131.926 122.041C133.036 122.041 133.783 122.879 133.783 124.079V130.85C133.783 131.009 133.897 131.122 134.055 131.122H136.705C136.863 131.122 136.977 131.009 136.977 130.85V123.422C136.977 120.841 135.323 119.301 132.946 119.301Z" fill="white"/>
<g clip-path="url(#clip1_584_3348)">
<circle cx="100.883" cy="159.765" r="9.26471" transform="rotate(-180 100.883 159.765)" fill="#FF5B81"/>
<circle cx="117.559" cy="165.324" r="6.17647" transform="rotate(-180 117.559 165.324)" fill="#FFBF3D"/>
<circle cx="87.2943" cy="163.471" r="3.08824" transform="rotate(-180 87.2943 163.471)" fill="#FF875B"/>
<path d="M133.163 170.018L128.499 164.421L131.298 170.018H133.163Z" fill="#5C5B59"/>
<path d="M92.2236 181.638L85.8367 174.033L133.739 171.108L112.449 187.487L106.062 193.337L92.2236 184.562V181.638Z" fill="#5C5B59"/>
<path d="M95.417 178.713L85.8367 174.033L133.739 171.108L112.449 187.487L106.062 193.337L96.4815 183.977L95.417 178.713Z" fill="#333332"/>
<path d="M116.704 175.203L117.769 172.278L133.736 171.108L112.446 187.487L106.06 193.337L116.704 175.203Z" fill="#333332"/>
<path d="M125.222 184.565L117.771 183.395L133.738 171.11L125.222 184.565Z" fill="#333332"/>
<path d="M125.222 184.565L117.771 183.395L123.093 179.3L125.222 184.565Z" fill="#333332"/>
<path d="M116.77 167.014L116.185 175.203V179.883H126.13L128.47 178.128L130.81 177.543L135.49 175.203L137.83 174.618L133.15 169.354H125.545L116.77 167.014Z" fill="#02A697"/>
<path d="M86.055 171.654L85.0208 175.785L100.047 174.328L86.055 171.654Z" fill="#5C5B59"/>
<path d="M86.055 171.654L85.0208 175.785L90.0296 175.3L86.055 171.654Z" fill="#C2C0BE"/>
<path d="M89.8598 175.203L80.5 176.373L84.0099 177.543L90.4448 178.128H96.8797L99.8046 179.298L116.184 179.883H126.129L124.374 176.958L122.034 173.448L119.694 171.108L116.769 167.014L106.239 172.278L96.2947 172.863L89.8598 175.203Z" fill="#02BBA8"/>
<path d="M128.468 164.088L125.543 169.353H131.393L128.468 164.088Z" fill="#C2C0BE"/>
</g>
</g>
<defs>
<clipPath id="clip0_584_3348">
<rect width="166" height="147" fill="white" transform="translate(24 47)"/>
</clipPath>
<clipPath id="clip1_584_3348">
<rect width="57.3297" height="42.8373" fill="white" transform="translate(80.5 150.5)"/>
</clipPath>
</defs>
</svg>
