<svg width="218" height="63" viewBox="0 0 218 63" fill="none" xmlns="http://www.w3.org/2000/svg">
<path d="M84.3448 15.7663V24.1983C84.3448 24.3538 84.2282 24.3926 84.1117 24.276C83.0237 23.0326 81.5471 22.3332 79.7208 22.3332C75.7574 22.3332 73.2705 24.4703 72.1825 27.7732C71.7163 29.172 71.522 30.7652 71.522 32.5137C71.522 34.3012 71.7551 35.9332 72.2214 37.3709C73.3483 40.7514 75.9128 42.8109 79.6431 42.8109C81.5082 42.8109 83.0237 42.0726 84.1117 40.7903C84.2282 40.6349 84.3448 40.7126 84.3448 40.868V42.0337C84.3448 42.3057 84.5391 42.5 84.8111 42.5H88.3859C88.6579 42.5 88.8522 42.3057 88.8522 42.0337V15.7663C88.8522 15.4943 88.6579 15.3 88.3859 15.3H84.8111C84.5391 15.3 84.3448 15.4943 84.3448 15.7663ZM83.4122 37.06C82.7128 38.2646 81.7025 38.9252 80.3425 38.9252C78.866 38.9252 77.7391 38.2646 77.0397 37.06C76.4568 35.972 76.1071 34.4566 76.1071 32.5914C76.1071 30.532 76.5345 28.9389 77.2728 27.8509C78.0111 26.7629 79.0214 26.2189 80.3814 26.2189C81.6637 26.2189 82.6351 26.8017 83.3345 27.9286C83.9951 29.0166 84.306 30.5709 84.306 32.5526C84.306 34.4566 83.9951 36.0109 83.4122 37.06Z" fill="black"/>
<path d="M98.881 22.3332C94.3347 22.3332 91.1096 24.6258 90.721 27.7343C90.6822 27.9286 90.8764 28.084 91.1484 28.1229L94.9176 28.5892C95.1896 28.628 95.3839 28.4726 95.4616 28.2006C95.7724 26.9572 97.0159 26.2189 98.9976 26.2189C101.407 26.2189 102.572 27.4235 102.572 29.4052V30.3377C102.572 30.4543 102.495 30.532 102.378 30.532H98.2204C93.0524 30.532 90.1382 32.9412 90.1382 36.9434C90.1382 41.0234 93.2079 42.8109 96.8216 42.8109C99.2307 42.8109 101.096 42.0726 102.339 40.7126C102.456 40.596 102.572 40.6349 102.572 40.7903V42.0337C102.572 42.3057 102.767 42.5 103.039 42.5H106.614C106.886 42.5 107.08 42.3057 107.08 42.0337V28.9389C107.08 25.1309 103.855 22.3332 98.881 22.3332ZM97.9484 39.236C96.0833 39.236 94.6844 38.3423 94.6844 36.6326C94.6844 34.6897 96.433 33.6406 99.1141 33.6406H102.378C102.495 33.6406 102.572 33.7183 102.572 33.8349V35.6612C102.572 37.7983 100.396 39.236 97.9484 39.236Z" fill="black"/>
<path d="M126.002 27.7732C124.875 24.3926 122.31 22.3332 118.58 22.3332C116.715 22.3332 115.199 23.0715 114.111 24.3538C113.995 24.5092 113.878 24.4315 113.878 24.276V23.1103C113.878 22.8383 113.684 22.644 113.412 22.644H109.837C109.565 22.644 109.371 22.8383 109.371 23.1103V49.3777C109.371 49.6497 109.565 49.844 109.837 49.844H113.412C113.684 49.844 113.878 49.6497 113.878 49.3777V40.9457C113.878 40.7903 113.995 40.7126 114.111 40.8292C115.199 42.1114 116.676 42.8109 118.541 42.8109C122.466 42.8109 124.953 40.6737 126.041 37.3709C126.507 35.972 126.701 34.3789 126.701 32.6303C126.701 30.8429 126.507 29.2109 126.002 27.7732ZM120.95 37.2932C120.251 38.3812 119.202 38.9252 117.842 38.9252C116.559 38.9252 115.588 38.3423 114.927 37.2154C114.267 36.1274 113.956 34.5732 113.956 32.5526C113.956 30.6875 114.228 29.0943 114.85 28.0452C115.51 26.8406 116.521 26.18 117.881 26.18C119.357 26.18 120.484 26.8406 121.183 28.084C121.805 29.172 122.116 30.6875 122.116 32.5526C122.116 34.5732 121.689 36.1663 120.95 37.2932Z" fill="black"/>
<path d="M145.468 27.7732C144.341 24.3926 141.777 22.3332 138.047 22.3332C136.181 22.3332 134.666 23.0715 133.578 24.3538C133.461 24.5092 133.345 24.4315 133.345 24.276V23.1103C133.345 22.8383 133.151 22.644 132.879 22.644H129.304C129.032 22.644 128.837 22.8383 128.837 23.1103V49.3777C128.837 49.6497 129.032 49.844 129.304 49.844H132.879C133.151 49.844 133.345 49.6497 133.345 49.3777V40.9457C133.345 40.7903 133.461 40.7126 133.578 40.8292C134.666 42.1114 136.143 42.8109 138.008 42.8109C141.932 42.8109 144.419 40.6737 145.507 37.3709C145.973 35.972 146.168 34.3789 146.168 32.6303C146.168 30.8429 145.973 29.2109 145.468 27.7732ZM140.417 37.2932C139.717 38.3812 138.668 38.9252 137.308 38.9252C136.026 38.9252 135.055 38.3423 134.394 37.2154C133.733 36.1274 133.423 34.5732 133.423 32.5526C133.423 30.6875 133.695 29.0943 134.316 28.0452C134.977 26.8406 135.987 26.18 137.347 26.18C138.824 26.18 139.951 26.8406 140.65 28.084C141.272 29.172 141.583 30.6875 141.583 32.5526C141.583 34.5732 141.155 36.1663 140.417 37.2932Z" fill="black"/>
<path d="M148.576 42.5H152.151C152.423 42.5 152.617 42.3057 152.617 42.0337V15.7663C152.617 15.4943 152.423 15.3 152.151 15.3H148.576C148.304 15.3 148.11 15.4943 148.11 15.7663V42.0337C148.11 42.3057 148.304 42.5 148.576 42.5Z" fill="black"/>
<path d="M162.555 22.3332C158.009 22.3332 154.784 24.6258 154.395 27.7343C154.356 27.9286 154.55 28.084 154.822 28.1229L158.592 28.5892C158.864 28.628 159.058 28.4726 159.136 28.2006C159.446 26.9572 160.69 26.2189 162.672 26.2189C165.081 26.2189 166.246 27.4235 166.246 29.4052V30.3377C166.246 30.4543 166.169 30.532 166.052 30.532H161.894C156.726 30.532 153.812 32.9412 153.812 36.9434C153.812 41.0234 156.882 42.8109 160.496 42.8109C162.905 42.8109 164.77 42.0726 166.013 40.7126C166.13 40.596 166.246 40.6349 166.246 40.7903V42.0337C166.246 42.3057 166.441 42.5 166.713 42.5H170.288C170.56 42.5 170.754 42.3057 170.754 42.0337V28.9389C170.754 25.1309 167.529 22.3332 162.555 22.3332ZM161.622 39.236C159.757 39.236 158.358 38.3423 158.358 36.6326C158.358 34.6897 160.107 33.6406 162.788 33.6406H166.052C166.169 33.6406 166.246 33.7183 166.246 33.8349V35.6612C166.246 37.7983 164.07 39.236 161.622 39.236Z" fill="black"/>
<path d="M182.371 22.3332C180.311 22.3332 178.64 22.9938 177.552 24.4315C177.475 24.5869 177.358 24.5092 177.358 24.3538V23.1103C177.358 22.8383 177.164 22.644 176.892 22.644H173.317C173.045 22.644 172.851 22.8383 172.851 23.1103V42.0337C172.851 42.3057 173.045 42.5 173.317 42.5H176.892C177.164 42.5 177.358 42.3057 177.358 42.0337V30.1823C177.358 27.812 178.873 26.2189 181.088 26.2189C183.342 26.2189 184.78 27.8509 184.78 30.2212V42.0337C184.78 42.3057 184.974 42.5 185.246 42.5H188.821C189.093 42.5 189.287 42.3057 189.287 42.0337V29.2886C189.287 24.9755 186.567 22.3332 182.371 22.3332Z" fill="black"/>
<path d="M203.724 15.7663V24.1983C203.724 24.3538 203.608 24.3926 203.491 24.276C202.403 23.0326 200.926 22.3332 199.1 22.3332C195.137 22.3332 192.65 24.4703 191.562 27.7732C191.096 29.172 190.901 30.7652 190.901 32.5137C190.901 34.3012 191.134 35.9332 191.601 37.3709C192.728 40.7514 195.292 42.8109 199.022 42.8109C200.888 42.8109 202.403 42.0726 203.491 40.7903C203.608 40.6349 203.724 40.7126 203.724 40.868V42.0337C203.724 42.3057 203.918 42.5 204.19 42.5H207.765C208.037 42.5 208.232 42.3057 208.232 42.0337V15.7663C208.232 15.4943 208.037 15.3 207.765 15.3H204.19C203.918 15.3 203.724 15.4943 203.724 15.7663ZM202.792 37.06C202.092 38.2646 201.082 38.9252 199.722 38.9252C198.245 38.9252 197.118 38.2646 196.419 37.06C195.836 35.972 195.486 34.4566 195.486 32.5914C195.486 30.532 195.914 28.9389 196.652 27.8509C197.39 26.7629 198.401 26.2189 199.761 26.2189C201.043 26.2189 202.014 26.8017 202.714 27.9286C203.374 29.0166 203.685 30.5709 203.685 32.5526C203.685 34.4566 203.374 36.0109 202.792 37.06Z" fill="black"/>
<g clip-path="url(#clip0_706_2984)">
<path d="M16.059 20.3823C16.059 15.2656 20.2069 11.1176 25.3237 11.1176C30.4404 11.1176 34.5884 15.2656 34.5884 20.3823C34.5884 25.4991 30.4404 29.647 25.3237 29.647C20.2069 29.647 16.059 25.4991 16.059 20.3823Z" fill="#FF5B81"/>
<path d="M35.8238 25.9412C35.8238 22.53 38.5891 19.7647 42.0003 19.7647C45.4115 19.7647 48.1768 22.53 48.1768 25.9412C48.1768 29.3523 45.4115 32.1176 42.0003 32.1176C38.5891 32.1176 35.8238 29.3523 35.8238 25.9412Z" fill="#FFBF3D"/>
<path d="M8.64726 24.0882C8.64726 22.3827 10.0299 21 11.7355 21C13.4411 21 14.8237 22.3827 14.8237 24.0882C14.8237 25.7938 13.4411 27.1765 11.7355 27.1765C10.0299 27.1765 8.64726 25.7938 8.64726 24.0882Z" fill="#FF875B"/>
<path d="M57.6045 30.6351L52.9404 25.0381L55.7389 30.6351H57.6045Z" fill="#5C5B59"/>
<path d="M16.6648 42.2551L10.2778 34.6502L58.1797 31.7253L36.89 48.105L30.5031 53.9548L16.6648 45.18V42.2551Z" fill="#5C5B59"/>
<path d="M19.8582 39.3301L10.2778 34.6502L58.1797 31.7253L36.89 48.105L30.5031 53.9548L20.9227 44.595L19.8582 39.3301Z" fill="#333332"/>
<path d="M41.1456 35.8202L42.2101 32.8953L58.1774 31.7253L36.8877 48.105L30.5007 53.9548L41.1456 35.8202Z" fill="black"/>
<path d="M49.6636 45.1826L42.2122 44.0126L58.1795 31.7278L49.6636 45.1826Z" fill="black"/>
<path d="M49.6636 45.1826L42.2122 44.0126L47.5346 39.9177L49.6636 45.1826Z" fill="#333332"/>
<path d="M41.2112 27.6311L40.6262 35.8209V40.5008H50.571L52.911 38.7459L55.2509 38.1609L59.9308 35.8209L62.2708 35.2359L57.5909 29.9711H49.986L41.2112 27.6311Z" fill="#02A697"/>
<path d="M10.4962 32.2714L9.46196 36.4027L24.4883 34.9458L10.4962 32.2714Z" fill="#5C5B59"/>
<path d="M10.4962 32.2714L9.46196 36.4027L14.4707 35.9171L10.4962 32.2714Z" fill="#C2C0BE"/>
<path d="M14.301 35.8209L4.94116 36.9909L8.45109 38.1609L14.886 38.7459H21.3208L24.2458 39.9159L40.6254 40.5008H50.5702L48.8153 37.5759L46.4753 34.066L44.1354 31.726L41.2104 27.6311L30.6806 32.896L20.7358 33.481L14.301 35.8209Z" fill="#02BBA8"/>
<path d="M52.9093 24.7059L49.9844 29.9708H55.8343L52.9093 24.7059Z" fill="#C2C0BE"/>
</g>
<defs>
<clipPath id="clip0_706_2984">
<rect width="57.3297" height="42.8373" fill="white" transform="translate(4.94116 11.1176)"/>
</clipPath>
</defs>
</svg>
