<svg width="133" height="40" viewBox="0 0 133 40" fill="none" xmlns="http://www.w3.org/2000/svg">
<g clip-path="url(#clip0_1096_1072)">
<g clip-path="url(#clip1_1096_1072)">
<circle cx="15.4497" cy="13.2663" r="5.65232" transform="rotate(-180 15.4497 13.2663)" fill="#FF5B81"/>
<circle cx="25.6239" cy="16.6577" r="3.76821" transform="rotate(-180 25.6239 16.6577)" fill="#FFBF3D"/>
<circle cx="7.15966" cy="15.5273" r="1.88411" transform="rotate(-180 7.15966 15.5273)" fill="#FF875B"/>
<path d="M35.144 19.5214L32.2985 16.1068L34.0058 19.5214H35.144Z" fill="#5C5B59"/>
<path d="M10.167 26.6107L6.27039 21.9711L35.4949 20.1866L22.5062 30.1797L18.6096 33.7487L10.167 28.3952V26.6107Z" fill="#5C5B59"/>
<path d="M12.1153 24.8262L6.27039 21.9711L35.4949 20.1866L22.5062 30.1797L18.6096 33.7487L12.7647 28.0383L12.1153 24.8262Z" fill="#333332"/>
<path d="M25.1026 22.6849L25.7521 20.9004L35.4936 20.1866L22.5049 30.1797L18.6083 33.7487L25.1026 22.6849Z" fill="black"/>
<path d="M30.2993 28.3968L25.7533 27.683L35.4948 20.1881L30.2993 28.3968Z" fill="black"/>
<path d="M30.2993 28.3968L25.7533 27.683L29.0005 25.1847L30.2993 28.3968Z" fill="#333332"/>
<path d="M25.1426 17.6888L24.7857 22.6853V25.5405H30.8529L32.2805 24.4698L33.7081 24.1129L36.5633 22.6853L37.9909 22.3284L35.1357 19.1163H30.496L25.1426 17.6888Z" fill="#02A697"/>
<path d="M6.40368 20.5198L5.7727 23.0402L14.9401 22.1514L6.40368 20.5198Z" fill="#5C5B59"/>
<path d="M6.40368 20.5197L5.7727 23.0402L8.82851 22.7439L6.40368 20.5197Z" fill="#C2C0BE"/>
<path d="M8.72487 22.6853L3.01453 23.3991L5.1559 24.1129L9.08176 24.4698H13.0076L14.7921 25.1836L24.7852 25.5405H30.8524L29.7817 23.756L28.3542 21.6146L26.9266 20.187L25.1421 17.6888L18.718 20.9008L12.6507 21.2577L8.72487 22.6853Z" fill="#02BBA8"/>
<path d="M32.2794 15.9041L30.4949 19.1162H34.0639L32.2794 15.9041Z" fill="#C2C0BE"/>
</g>
<path d="M51.458 10.3515V15.4958C51.458 15.5906 51.3869 15.6144 51.3158 15.5432C50.652 14.7846 49.7512 14.3579 48.637 14.3579C46.2189 14.3579 44.7017 15.6618 44.0379 17.6768C43.7535 18.5302 43.6349 19.5022 43.6349 20.569C43.6349 21.6595 43.7772 22.6552 44.0617 23.5323C44.7491 25.5947 46.3138 26.8512 48.5896 26.8512C49.7275 26.8512 50.652 26.4008 51.3158 25.6184C51.3869 25.5236 51.458 25.571 51.458 25.6659V26.3771C51.458 26.543 51.5766 26.6615 51.7425 26.6615H53.9235C54.0895 26.6615 54.208 26.543 54.208 26.3771V10.3515C54.208 10.1856 54.0895 10.0671 53.9235 10.0671H51.7425C51.5766 10.0671 51.458 10.1856 51.458 10.3515ZM50.8891 23.3426C50.4624 24.0775 49.846 24.4805 49.0163 24.4805C48.1154 24.4805 47.428 24.0775 47.0012 23.3426C46.6457 22.6789 46.4323 21.7543 46.4323 20.6164C46.4323 19.36 46.6931 18.388 47.1435 17.7242C47.5939 17.0604 48.2103 16.7286 49.04 16.7286C49.8223 16.7286 50.415 17.0841 50.8417 17.7716C51.2447 18.4354 51.4343 19.3837 51.4343 20.5927C51.4343 21.7543 51.2447 22.7026 50.8891 23.3426ZM60.3265 14.3579C57.5528 14.3579 55.5852 15.7566 55.3481 17.6531C55.3244 17.7716 55.4429 17.8665 55.6089 17.8902L57.9084 18.1746C58.0744 18.1983 58.1929 18.1035 58.2403 17.9376C58.4299 17.179 59.1886 16.7286 60.3976 16.7286C61.8674 16.7286 62.5786 17.4635 62.5786 18.6725V19.2414C62.5786 19.3126 62.5312 19.36 62.46 19.36H59.9234C56.7705 19.36 54.9925 20.8298 54.9925 23.2715C54.9925 25.7607 56.8653 26.8512 59.07 26.8512C60.5398 26.8512 61.6777 26.4008 62.4363 25.571C62.5074 25.4999 62.5786 25.5236 62.5786 25.6184V26.3771C62.5786 26.543 62.6971 26.6615 62.863 26.6615H65.044C65.21 26.6615 65.3285 26.543 65.3285 26.3771V18.388C65.3285 16.0648 63.3609 14.3579 60.3265 14.3579ZM59.7575 24.6702C58.6196 24.6702 57.7662 24.1249 57.7662 23.0819C57.7662 21.8965 58.833 21.2565 60.4687 21.2565H62.46C62.5312 21.2565 62.5786 21.3039 62.5786 21.375V22.4892C62.5786 23.7931 61.251 24.6702 59.7575 24.6702ZM76.8726 17.6768C76.1851 15.6144 74.6205 14.3579 72.3447 14.3579C71.2068 14.3579 70.2822 14.8083 69.6184 15.5906C69.5473 15.6855 69.4762 15.6381 69.4762 15.5432V14.832C69.4762 14.6661 69.3577 14.5476 69.1917 14.5476H67.0107C66.8448 14.5476 66.7263 14.6661 66.7263 14.832V30.8576C66.7263 31.0235 66.8448 31.142 67.0107 31.142H69.1917C69.3577 31.142 69.4762 31.0235 69.4762 30.8576V25.7133C69.4762 25.6184 69.5473 25.571 69.6184 25.6422C70.2822 26.4245 71.1831 26.8512 72.321 26.8512C74.7153 26.8512 76.2325 25.5473 76.8963 23.5323C77.1808 22.6789 77.2993 21.7069 77.2993 20.6401C77.2993 19.5496 77.1808 18.5539 76.8726 17.6768ZM73.7908 23.4849C73.364 24.1487 72.724 24.4805 71.8942 24.4805C71.1119 24.4805 70.5193 24.1249 70.1163 23.4375C69.7133 22.7737 69.5236 21.8254 69.5236 20.5927C69.5236 19.4548 69.6896 18.4828 70.0689 17.8428C70.4719 17.1079 71.0882 16.7048 71.918 16.7048C72.8188 16.7048 73.5063 17.1079 73.933 17.8665C74.3123 18.5302 74.502 19.4548 74.502 20.5927C74.502 21.8254 74.2412 22.7974 73.7908 23.4849ZM88.7489 17.6768C88.0614 15.6144 86.4968 14.3579 84.221 14.3579C83.0831 14.3579 82.1586 14.8083 81.4948 15.5906C81.4237 15.6855 81.3525 15.6381 81.3525 15.5432V14.832C81.3525 14.6661 81.234 14.5476 81.0681 14.5476H78.8871C78.7211 14.5476 78.6026 14.6661 78.6026 14.832V30.8576C78.6026 31.0235 78.7211 31.142 78.8871 31.142H81.0681C81.234 31.142 81.3525 31.0235 81.3525 30.8576V25.7133C81.3525 25.6184 81.4237 25.571 81.4948 25.6422C82.1586 26.4245 83.0594 26.8512 84.1973 26.8512C86.5917 26.8512 88.1089 25.5473 88.7726 23.5323C89.0571 22.6789 89.1756 21.7069 89.1756 20.6401C89.1756 19.5496 89.0571 18.5539 88.7489 17.6768ZM85.6671 23.4849C85.2404 24.1487 84.6003 24.4805 83.7706 24.4805C82.9883 24.4805 82.3956 24.1249 81.9926 23.4375C81.5896 22.7737 81.4 21.8254 81.4 20.5927C81.4 19.4548 81.5659 18.4828 81.9452 17.8428C82.3482 17.1079 82.9646 16.7048 83.7943 16.7048C84.6951 16.7048 85.3826 17.1079 85.8093 17.8665C86.1886 18.5302 86.3783 19.4548 86.3783 20.5927C86.3783 21.8254 86.1175 22.7974 85.6671 23.4849ZM90.6449 26.6615H92.8259C92.9918 26.6615 93.1104 26.543 93.1104 26.3771V10.3515C93.1104 10.1856 92.9918 10.0671 92.8259 10.0671H90.6449C90.4789 10.0671 90.3604 10.1856 90.3604 10.3515V26.3771C90.3604 26.543 90.4789 26.6615 90.6449 26.6615ZM99.1734 14.3579C96.3998 14.3579 94.4322 15.7566 94.1951 17.6531C94.1714 17.7716 94.2899 17.8665 94.4559 17.8902L96.7554 18.1746C96.9213 18.1983 97.0399 18.1035 97.0873 17.9376C97.2769 17.179 98.0355 16.7286 99.2446 16.7286C100.714 16.7286 101.426 17.4635 101.426 18.6725V19.2414C101.426 19.3126 101.378 19.36 101.307 19.36H98.7704C95.6175 19.36 93.8395 20.8298 93.8395 23.2715C93.8395 25.7607 95.7123 26.8512 97.917 26.8512C99.3868 26.8512 100.525 26.4008 101.283 25.571C101.354 25.4999 101.426 25.5236 101.426 25.6184V26.3771C101.426 26.543 101.544 26.6615 101.71 26.6615H103.891C104.057 26.6615 104.175 26.543 104.175 26.3771V18.388C104.175 16.0648 102.208 14.3579 99.1734 14.3579ZM98.6045 24.6702C97.4666 24.6702 96.6132 24.1249 96.6132 23.0819C96.6132 21.8965 97.6799 21.2565 99.3157 21.2565H101.307C101.378 21.2565 101.426 21.3039 101.426 21.375V22.4892C101.426 23.7931 100.098 24.6702 98.6045 24.6702ZM111.263 14.3579C110.006 14.3579 108.987 14.7609 108.323 15.6381C108.276 15.7329 108.205 15.6855 108.205 15.5906V14.832C108.205 14.6661 108.086 14.5476 107.92 14.5476H105.739C105.573 14.5476 105.455 14.6661 105.455 14.832V26.3771C105.455 26.543 105.573 26.6615 105.739 26.6615H107.92C108.086 26.6615 108.205 26.543 108.205 26.3771V19.1466C108.205 17.7005 109.129 16.7286 110.48 16.7286C111.855 16.7286 112.733 17.7242 112.733 19.1703V26.3771C112.733 26.543 112.851 26.6615 113.017 26.6615H115.198C115.364 26.6615 115.483 26.543 115.483 26.3771V18.6014C115.483 15.9699 113.823 14.3579 111.263 14.3579ZM124.29 10.3515V15.4958C124.29 15.5906 124.219 15.6144 124.148 15.5432C123.484 14.7846 122.584 14.3579 121.469 14.3579C119.051 14.3579 117.534 15.6618 116.87 17.6768C116.586 18.5302 116.467 19.5022 116.467 20.569C116.467 21.6595 116.609 22.6552 116.894 23.5323C117.581 25.5947 119.146 26.8512 121.422 26.8512C122.56 26.8512 123.484 26.4008 124.148 25.6184C124.219 25.5236 124.29 25.571 124.29 25.6659V26.3771C124.29 26.543 124.409 26.6615 124.575 26.6615H126.756C126.922 26.6615 127.04 26.543 127.04 26.3771V10.3515C127.04 10.1856 126.922 10.0671 126.756 10.0671H124.575C124.409 10.0671 124.29 10.1856 124.29 10.3515ZM123.721 23.3426C123.295 24.0775 122.678 24.4805 121.849 24.4805C120.948 24.4805 120.26 24.0775 119.834 23.3426C119.478 22.6789 119.265 21.7543 119.265 20.6164C119.265 19.36 119.525 18.388 119.976 17.7242C120.426 17.0604 121.043 16.7286 121.872 16.7286C122.655 16.7286 123.247 17.0841 123.674 17.7716C124.077 18.4354 124.267 19.3837 124.267 20.5927C124.267 21.7543 124.077 22.7026 123.721 23.3426Z" fill="white"/>
<g clip-path="url(#clip2_1096_1072)">
<circle cx="15.4497" cy="13.2663" r="5.65232" transform="rotate(-180 15.4497 13.2663)" fill="#FF5B81"/>
<circle cx="25.6239" cy="16.6577" r="3.76821" transform="rotate(-180 25.6239 16.6577)" fill="#FFBF3D"/>
<circle cx="7.15966" cy="15.5273" r="1.88411" transform="rotate(-180 7.15966 15.5273)" fill="#FF875B"/>
<path d="M34.7753 19.134L32.3349 15.7785L34.1652 19.134H34.7753Z" fill="#5C5B59"/>
<path d="M10.167 26.6107L6.27039 21.9711L35.4949 20.1866L22.5062 30.1797L18.6096 33.7487L10.167 28.3952V26.6107Z" fill="#5C5B59"/>
<path d="M12.1153 24.8262L6.27039 21.9711L35.4949 20.1866L22.5062 30.1797L18.6096 33.7487L12.7647 28.0383L12.1153 24.8262Z" fill="#333332"/>
<path d="M25.1026 22.6849L25.7521 20.9004L35.4936 20.1866L22.5049 30.1797L18.6083 33.7487L25.1026 22.6849Z" fill="black"/>
<path d="M30.2993 28.3968L25.7533 27.683L35.4948 20.1881L30.2993 28.3968Z" fill="black"/>
<path d="M30.2993 28.3968L25.7533 27.683L29.0005 25.1847L30.2993 28.3968Z" fill="#333332"/>
<path d="M25.1427 17.6888L24.7858 22.6853V25.5405H30.853L32.2806 24.4698L33.7082 24.1129L36.5633 22.6853L37.9909 22.3284L35.1358 19.1164H30.4961L25.1427 17.6888Z" fill="#02A697"/>
<path d="M6.40368 20.5198L5.7727 23.0402L14.9401 22.1514L6.40368 20.5198Z" fill="#5C5B59"/>
<path d="M6.40368 20.5197L5.7727 23.0402L8.82851 22.7439L6.40368 20.5197Z" fill="#C2C0BE"/>
<path d="M8.72487 22.6853L3.01453 23.3991L5.1559 24.1129L9.08176 24.4698H13.0076L14.7921 25.1836L24.7852 25.5405H30.8524L29.7817 23.756L28.3542 21.6146L26.9266 20.1871L25.1421 17.6888L18.718 20.9008L12.6507 21.2577L8.72487 22.6853Z" fill="#02BBA8"/>
<path d="M32.3348 15.7785L30.495 19.1162H34.1652L32.3348 15.7785Z" fill="#C2C0BE"/>
</g>
</g>
<defs>
<clipPath id="clip0_1096_1072">
<rect width="133" height="40" fill="white"/>
</clipPath>
<clipPath id="clip1_1096_1072">
<rect width="34.9764" height="26.1347" fill="white" transform="translate(3.01453 7.61398)"/>
</clipPath>
<clipPath id="clip2_1096_1072">
<rect width="34.9764" height="26.1347" fill="white" transform="translate(3.01453 7.61398)"/>
</clipPath>
</defs>
</svg>
