<?xml version="1.0" encoding="UTF-8"?>
<svg id="Layer_1" xmlns="http://www.w3.org/2000/svg" version="1.1" viewBox="0 0 847 354">
  <!-- Generator: Adobe Illustrator 29.5.1, SVG Export Plug-In . SVG Version: 2.1.0 Build 141)  -->
  <g>
    <path d="M418.22,230.82c-4.55-13.9-9.12-27.93-13.68-42.14-.22-.57-1.32-.43-1.32.27-.02,14.36-.04,28.73-.06,43.09,0,.82-.22,1.48-.66,1.98-.44.51-1.05.81-1.82.9-8.07.91-16.15,1.89-24.21,2.94-.77.1-1.38-.06-1.81-.48-.44-.41-.66-1.05-.66-1.88.02-39.94.05-79.86.06-119.8,0-.83.22-1.49.66-1.96.44-.48,1.05-.72,1.82-.72h37.2c6.61,0,12.48,1.64,17.6,4.84,5.12,3.21,9.11,7.61,11.96,13.25,2.86,5.62,4.28,12.05,4.26,19.32,0,6.15-1.07,11.68-3.17,16.63-2.1,4.95-6.65,9.73-10.95,12.38-.44.36-.61.83-.5,1.38,5.05,15.72,10.09,31.27,15.15,46.69.11.22.17.5.17.83,0,1.34-.77,2.07-2.31,2.2-8.37.69-16.74,1.44-25.09,2.27-1.43.14-2.32-.51-2.64-1.96v-.03ZM404.27,140.97c-.66.02-.99.38-.99,1.07,0,6.66-.02,13.32-.03,19.98,0,.7.33,1.03.99,1,1.33-.06,2.65-.12,3.99-.17,2.42-.1,4.41-1.15,5.95-3.1,1.54-1.96,2.32-4.64,2.32-8.07s-.73-6.25-2.22-8.1c-1.49-1.86-3.5-2.75-6.02-2.69-1.33.04-2.65.06-3.99.1h0v-.02h0Z"/>
    <path d="M585.59,223.49c-.61-4.03-1.22-8.06-1.83-12.1,0-.21-.11-.43-.33-.65-.22-.21-.5-.33-.83-.33-7.31-.07-14.63-.09-21.94-.07-.33,0-.61.11-.83.32-.22.22-.33.43-.33.64-.55,4.02-1.1,8.05-1.66,12.07-.11,1.51-.99,2.26-2.66,2.27-8.67.07-17.35.2-26.02.42-1.76.05-2.49-.8-2.15-2.53,7.87-36.35,15.73-72.43,23.57-108.44.33-1.4,1.27-2.09,2.81-2.09h37.44c1.54,0,2.48.7,2.81,2.09,7.84,36.06,15.72,72.27,23.6,108.79v.65c0,1.29-.77,1.92-2.32,1.86-8.89-.29-17.78-.51-26.68-.64-1.66-.03-2.54-.79-2.66-2.3v.03h.01ZM563.98,187.17c5.05,0,10.09,0,15.15.04.77,0,1.05-.31.83-.96-2.72-11.03-5.44-22.04-8.16-33.06-.11-.43-.28-.64-.5-.64s-.39.21-.5.64c-2.54,11-5.1,22.01-7.65,33.01,0,.64.28.96.83.96h0Z"/>
    <path d="M625.2,226.14c-.44-.45-.66-1.05-.66-1.81-.05-36.29-.08-72.58-.13-108.87,0-.75.22-1.35.66-1.79.44-.43,1.05-.65,1.82-.65h32.57c7.28,0,13.7,1.38,19.27,4.17,5.57,2.8,9.9,6.77,13,11.92,3.09,5.15,4.65,11.08,4.66,17.73.03,16.91.05,33.82.08,50.73.01,6.65-1.52,12.44-4.6,17.32-3.08,4.89-7.39,8.5-12.96,10.87s-11.99,3.29-19.27,2.83c-10.87-.69-21.74-1.26-32.62-1.71-.77-.04-1.38-.27-1.82-.73h0ZM654.73,201.76c1.99.04,3.99.08,5.98.12,1.76-.02,3.25-.77,4.46-2.26,1.21-1.48,1.86-3.44,1.97-5.87-.03-15.2-.05-30.39-.07-45.59,0-2.54-.61-4.59-1.83-6.16-1.21-1.56-2.82-2.37-4.8-2.39-1.94-.03-3.88-.05-5.81-.08-.66,0-.99.32-.99.97.03,20.08.06,40.16.09,60.24,0,.66.33,1,.99,1.04h0v-.02h.01Z"/>
    <path d="M719.97,232.62c-.44-.51-.66-1.17-.66-1.97-.02-13.21-.04-26.41-.05-39.61,0-.69-.05-1.15-.16-1.39-7.74-25.07-15.5-49.63-23.26-73.76-.11-.23-.16-.57-.16-1.01,0-1.24.72-1.86,2.15-1.86h27.45c1.54,0,2.48.75,2.81,2.26,2.06,11.41,4.1,22.87,6.15,34.41.11.47.33.71.66.73.33,0,.55-.21.66-.68,2.02-11.41,4.05-22.88,6.08-34.43.33-1.52,1.27-2.29,2.81-2.29h27.45c.88,0,1.49.27,1.82.82.33.54.39,1.31.17,2.27-7.83,25.91-15.62,51.15-23.41,75.83-.11.23-.16.69-.16,1.4,0,13.59.02,27.19.04,40.78,0,.83-.22,1.45-.66,1.87-.44.41-1.05.58-1.81.49-8.68-1.07-17.37-2.07-26.06-2.99-.77-.08-1.38-.38-1.82-.88h-.04Z"/>
    <path d="M518.93,138.44c-.44.43-1.05.65-1.82.66-10.35.08-20.69.18-31.04.31-.66,0-.99.34-.99.99,0,5.25-.02,10.5-.03,15.75,0,.66.33.98.99.96,7.11-.15,14.23-.28,21.34-.39.77,0,1.38.2,1.82.62.44.43.66,1.02.66,1.77,0,7.09-.02,14.18-.03,21.27,0,.75-.22,1.36-.66,1.8-.44.45-1.06.68-1.82.69-7.12.17-14.24.39-21.35.62-.66.03-.99.36-.99,1.02,0,5.3-.02,10.61-.03,15.91,0,.66.33.96.99.95,10.35-.43,20.71-.78,31.07-1.05.77-.02,1.38.18,1.82.61.44.42.66,1.01.66,1.76,0,7.07,0,14.13-.02,21.21,0,.75-.22,1.36-.66,1.8-.44.45-1.06.68-1.82.71-19.64.65-39.27,1.7-58.87,3.14-.77.06-1.38-.12-1.82-.53s-.66-1-.66-1.78c.07-37.24.13-74.49.19-111.74,0-.77.22-1.39.66-1.84s1.05-.66,1.82-.67h58.78c.77,0,1.38.22,1.82.65s.66,1.03.66,1.78c0,7.07,0,14.14-.02,21.21,0,.75-.22,1.35-.66,1.78h-.02l.03.03h0Z"/>
  </g>
  <path d="M300.53,225.9c-50.05-38.53-79.09-92.91-80.29-150.23-.04-2.04-1.63-3.67-3.61-3.67h-59.2c-1.98,0-3.57,1.63-3.61,3.67-1.2,57.3-30.29,111.7-80.34,150.23-1.59,1.22-1.95,3.52-.79,5.17l34.63,49.37c1.18,1.68,3.48,2.06,5.09.82,31.3-23.94,56.47-52.79,74.6-84.8,18.13,32.01,43.31,60.86,74.6,84.8,1.61,1.24,3.91.86,5.09-.82l34.63-49.37c1.16-1.65.79-3.95-.8-5.17h0Z" fill="#ff875b"/>
  <g>
    <path d="M678.43,266.15c0,.22-.16.38-.38.38h-2.99c-.09,0-.16.06-.16.16v6.62c0,1.38.53,2.03,1.78,2.03h1.07c.22,0,.38.16.38.38v2.96c0,.22-.13.38-.38.4-.65.03-1.31.06-1.9.06-3.19,0-5.15-.75-5.15-4.08v-8.36c0-.09-.06-.16-.16-.16h-1.81c-.22,0-.38-.16-.38-.38v-2.78c0-.22.16-.38.38-.38h1.81c.09,0,.16-.06.16-.16v-3.72c0-.22.16-.38.38-.38h3.46c.22,0,.38.16.38.38v3.72c0,.09.06.16.16.16h2.99c.22,0,.38.16.38.38v2.78h-.02Z"/>
    <path d="M660.46,262.75c3.28,0,5.55,2.12,5.55,5.68v10.23c0,.22-.16.38-.38.38h-3.65c-.22,0-.38-.16-.38-.38v-9.33c0-1.65-1-2.81-2.52-2.81s-2.59,1.12-2.59,2.81v9.33c0,.22-.16.38-.38.38h-3.65c-.22,0-.38-.16-.38-.38v-15.29c0-.22.16-.38.38-.38h3.65c.22,0,.38.16.38.38v1.09c0,.13.09.18.16.09.87-1.25,2.16-1.81,3.81-1.81h0Z"/>
    <path d="M649.32,269.36c.13.84.16,1.72.13,2.65-.03.25-.18.38-.4.38h-9.65c-.09,0-.18.06-.16.16.09.47.22.87.38,1.25.49,1.07,1.49,1.74,3.3,1.74,1.43-.03,2.43-.69,3.12-1.62.16-.22.34-.25.53-.06l2.21,2.21c.16.16.18.34.03.53-1.38,1.74-3.68,2.72-6.31,2.68-3.56,0-6.02-1.78-7.09-4.61-.44-1.07-.65-2.34-.65-3.81-.03-1.18.13-2.34.44-3.3.96-2.94,3.5-4.84,6.8-4.84,4.28,0,6.73,2.74,7.31,6.64h.01ZM642.01,266.53c-1.34,0-2.16.65-2.56,1.85-.09.31-.16.62-.22,1,0,.09.06.16.16.16h5.39c.09,0,.16-.06.13-.16-.06-.34-.09-.62-.16-.87-.38-1.25-1.34-1.96-2.74-1.96h0v-.02Z"/>
    <path d="M627.61,263.37c0-.22.16-.38.38-.38h3.65c.22,0,.38.16.38.38v14.22c0,7.02-5.8,8.09-10.86,7.42-.22-.03-.31-.18-.31-.4l.13-3.21c0-.29.18-.38.44-.34,3.74.56,6.21-.16,6.21-3.5,0-.13-.09-.16-.18-.06-.71.78-1.85,1.27-3.46,1.27-2.34,0-5.12-.96-6.15-4.15-.38-1.16-.47-2.52-.47-3.72,0-1.4.13-2.78.56-3.96.87-2.5,3.03-4.21,5.86-4.21,1.69,0,2.83.53,3.65,1.43.09.09.18.06.18-.06v-.75l-.03.03h.02ZM627.36,273.44c.16-.6.25-1.18.25-2.56s-.09-1.9-.29-2.5c-.31-1.09-1.22-1.87-2.56-1.87s-2.16.81-2.56,1.87c-.29.6-.4,1.4-.4,2.52s.13,2,.34,2.5c.38,1.07,1.31,1.87,2.65,1.87s2.25-.81,2.56-1.85h.01v.02Z"/>
    <path d="M614.57,262.78c.81,0,1.38.18,1.74.44.18.09.22.29.18.47l-.62,3.56c-.03.25-.18.31-.44.22-.44-.13-1.09-.22-1.81-.09-1.4.13-2.68,1.09-2.68,2.78v8.51c0,.22-.16.38-.38.38h-3.65c-.22,0-.38-.16-.38-.38v-15.29c0-.22.16-.38.38-.38h3.65c.22,0,.38.16.38.38v1.18c0,.13.09.18.16.09.78-1.16,1.94-1.87,3.46-1.87h.01Z"/>
    <path d="M596.21,262.75c4.12,0,6.99,2.31,6.99,5.33v10.58c0,.22-.16.38-.38.38h-3.65c-.22,0-.38-.16-.38-.38v-1.03c0-.13-.09-.18-.18-.06-.87,1.12-2.31,1.72-4.24,1.72-3.06,0-5.39-1.47-5.39-4.68s2.27-5.06,6.49-5.06h3.19c.09,0,.16-.06.16-.16v-.69c0-1.34-.84-2.18-2.5-2.18-1.31,0-2.18.49-2.43,1.31-.06.22-.18.34-.4.31l-3.77-.49c-.22-.03-.38-.13-.34-.29.29-2.65,3.03-4.61,6.86-4.61h-.03ZM595.59,276.01c1.74,0,3.21-1.03,3.21-2.56v-1.12c0-.09-.06-.16-.16-.16h-2.25c-1.85,0-2.99.71-2.99,2.03,0,1.12.87,1.81,2.18,1.81h.01Z"/>
    <path d="M567.67,285.25c-.13,0-.22-.16-.22-.38v-2.87c0-.22.16-.38.38-.38,2.43-.03,3.46-.4,3.96-2.5.03-.06.03-.09,0-.18l-5.08-15.54c-.09-.29.06-.44.31-.44h3.87c.22,0,.38.09.44.31l2.63,10.11c.03.13.16.13.18,0l2.63-10.11c.06-.22.22-.31.44-.31h3.81c.25,0,.38.16.29.44l-5.39,16.22c-1.4,4.19-2.59,5.62-7.98,5.62h-.27Z"/>
    <path d="M560.33,279.03c-.22,0-.38-.16-.38-.38v-21.09c0-.22.16-.38.38-.38h3.65c.22,0,.38.16.38.38v21.09c0,.22-.16.38-.38.38h-3.65Z"/>
    <path d="M555.98,262.78c.81,0,1.38.18,1.74.44.18.09.22.29.18.47l-.62,3.56c-.03.25-.18.31-.44.22-.44-.13-1.09-.22-1.81-.09-1.4.13-2.68,1.09-2.68,2.78v8.51c0,.22-.16.38-.38.38h-3.65c-.22,0-.38-.16-.38-.38v-15.29c0-.22.16-.38.38-.38h3.65c.22,0,.38.16.38.38v1.18c0,.13.09.18.16.09.78-1.16,1.94-1.87,3.46-1.87h0Z"/>
    <path d="M545.18,269.36c.13.84.16,1.72.13,2.65-.03.25-.18.38-.4.38h-9.65c-.09,0-.18.06-.16.16.09.47.22.87.38,1.25.49,1.07,1.49,1.74,3.3,1.74,1.43-.03,2.43-.69,3.12-1.62.16-.22.34-.25.53-.06l2.21,2.21c.16.16.18.34.03.53-1.38,1.74-3.68,2.72-6.31,2.68-3.56,0-6.02-1.78-7.08-4.61-.44-1.07-.65-2.34-.65-3.81-.03-1.18.13-2.34.44-3.3.96-2.94,3.5-4.84,6.8-4.84,4.28,0,6.73,2.74,7.31,6.64h0ZM537.87,266.53c-1.34,0-2.16.65-2.56,1.85-.09.31-.16.62-.22,1,0,.09.07.16.16.16h5.39c.09,0,.16-.06.13-.16-.07-.34-.09-.62-.16-.87-.38-1.25-1.34-1.96-2.74-1.96h0v-.02Z"/>
    <path d="M522.82,262.75c3.21,0,5.15,2.05,5.15,5.59v10.32c0,.22-.16.38-.38.38h-3.65c-.22,0-.38-.16-.38-.38v-9.36c0-1.69-.94-2.78-2.41-2.78s-2.47,1.07-2.47,2.74v9.39c0,.22-.16.38-.38.38h-3.61c-.22,0-.38-.16-.38-.38v-9.36c0-1.69-1-2.78-2.47-2.78-1.31,0-2.27.84-2.47,2.25v9.89c0,.22-.16.38-.38.38h-3.65c-.22,0-.38-.16-.38-.38v-15.29c0-.22.16-.38.38-.38h3.65c.22,0,.38.16.38.38v1.22c0,.13.09.18.18.06.87-1.31,2.25-1.9,3.97-1.9,2.09,0,3.68.94,4.52,2.52.07.13.13.13.22,0,.94-1.74,2.59-2.52,4.52-2.52h.04Z"/>
    <path d="M501.01,262.78c.81,0,1.38.18,1.74.44.18.09.22.29.18.47l-.62,3.56c-.03.25-.18.31-.44.22-.44-.13-1.09-.22-1.81-.09-1.4.13-2.68,1.09-2.68,2.78v8.51c0,.22-.16.38-.38.38h-3.65c-.22,0-.38-.16-.38-.38v-15.29c0-.22.16-.38.38-.38h3.65c.22,0,.38.16.38.38v1.18c0,.13.09.18.16.09.78-1.16,1.94-1.87,3.46-1.87h0,0Z"/>
    <path d="M482.74,279.28c-3.52,0-6.15-1.96-7.05-5.12-.29-.94-.44-2.05-.44-3.19s.16-2.37.44-3.3c.96-3.06,3.56-4.93,7.08-4.93s5.95,1.87,6.93,4.9c.31.96.49,2.12.49,3.28s-.16,2.21-.44,3.15c-.91,3.21-3.5,5.21-7.02,5.21h.01ZM482.74,275.51c1.4,0,2.37-.91,2.78-2.34.16-.62.25-1.4.25-2.18,0-.84-.09-1.65-.25-2.21-.4-1.4-1.4-2.25-2.81-2.25s-2.37.87-2.78,2.25c-.18.56-.25,1.38-.25,2.21s.07,1.62.22,2.18c.4,1.43,1.4,2.34,2.83,2.34h0Z"/>
    <path d="M473.88,262.97c.22,0,.38.16.38.38v2.96c0,.22-.16.38-.38.38h-2.99c-.09,0-.16.06-.16.16v11.83c0,.22-.16.38-.38.38h-3.65c-.22,0-.38-.16-.38-.38v-11.83c0-.09-.07-.16-.16-.16h-1.85c-.22,0-.38-.16-.38-.38v-2.96c0-.22.16-.38.38-.38h1.85c.09,0,.16-.06.16-.16v-.69c0-3.81,1.59-5.06,6.17-4.93h1.18c.22,0,.38.16.38.38v2.52c0,.22-.16.38-.38.38h-1.03c-1.47.03-1.94.49-1.94,2v.34c0,.09.07.16.16.16h3.02Z"/>
  </g>
</svg>